G75*
%MOIN*%
%OFA0B0*%
%FSLAX25Y25*%
%IPPOS*%
%LPD*%
%AMOC8*
5,1,8,0,0,1.08239X$1,22.5*
%
%ADD10C,0.00000*%
%ADD11C,0.01000*%
%ADD12C,0.00400*%
%ADD13C,0.00300*%
%ADD14C,0.00200*%
%ADD15C,0.01200*%
%ADD16C,0.00600*%
%ADD17C,0.00500*%
%ADD18R,0.02400X0.03400*%
%ADD19R,0.03400X0.02400*%
%ADD20C,0.00800*%
%ADD21C,0.01600*%
D10*
X0001500Y0001500D02*
X0001500Y0198350D01*
X0198350Y0198350D01*
X0198350Y0001500D01*
X0001500Y0001500D01*
D11*
X0103291Y0177732D02*
X0103096Y0177734D01*
X0102900Y0177742D01*
X0102705Y0177754D01*
X0102510Y0177770D01*
X0102315Y0177792D01*
X0102121Y0177818D01*
X0101928Y0177849D01*
X0101736Y0177885D01*
X0101544Y0177925D01*
X0101354Y0177970D01*
X0101165Y0178020D01*
X0100977Y0178074D01*
X0100790Y0178133D01*
X0100605Y0178196D01*
X0100422Y0178264D01*
X0100240Y0178337D01*
X0100060Y0178413D01*
X0099882Y0178495D01*
X0099706Y0178580D01*
X0099532Y0178670D01*
X0099361Y0178764D01*
X0099191Y0178862D01*
X0099025Y0178965D01*
X0098860Y0179071D01*
X0098699Y0179181D01*
X0098540Y0179295D01*
X0098384Y0179414D01*
X0098231Y0179535D01*
X0098081Y0179661D01*
X0097934Y0179790D01*
X0097790Y0179923D01*
X0097650Y0180059D01*
X0097513Y0180199D01*
X0097379Y0180342D01*
X0097249Y0180488D01*
X0097123Y0180637D01*
X0097000Y0180790D01*
X0096881Y0180945D01*
X0096766Y0181103D01*
X0096655Y0181264D01*
X0096548Y0181428D01*
X0096444Y0181594D01*
X0096345Y0181763D01*
X0103291Y0193732D02*
X0103486Y0193730D01*
X0103680Y0193723D01*
X0103874Y0193711D01*
X0104068Y0193694D01*
X0104262Y0193673D01*
X0104455Y0193647D01*
X0104647Y0193616D01*
X0104839Y0193581D01*
X0105029Y0193541D01*
X0105219Y0193496D01*
X0105407Y0193447D01*
X0105594Y0193393D01*
X0105780Y0193335D01*
X0105964Y0193272D01*
X0106147Y0193205D01*
X0106328Y0193133D01*
X0106507Y0193057D01*
X0106684Y0192977D01*
X0106859Y0192892D01*
X0107033Y0192803D01*
X0107203Y0192710D01*
X0107372Y0192613D01*
X0107538Y0192511D01*
X0107702Y0192406D01*
X0107863Y0192297D01*
X0108022Y0192184D01*
X0108177Y0192067D01*
X0108330Y0191946D01*
X0108479Y0191821D01*
X0108626Y0191693D01*
X0108770Y0191562D01*
X0108910Y0191427D01*
X0109047Y0191288D01*
X0109180Y0191147D01*
X0109310Y0191002D01*
X0109437Y0190854D01*
X0103292Y0193732D02*
X0103100Y0193730D01*
X0102908Y0193723D01*
X0102716Y0193711D01*
X0102524Y0193695D01*
X0102333Y0193674D01*
X0102143Y0193649D01*
X0101953Y0193619D01*
X0101764Y0193585D01*
X0101576Y0193546D01*
X0101389Y0193502D01*
X0101203Y0193454D01*
X0101018Y0193402D01*
X0100834Y0193345D01*
X0100652Y0193284D01*
X0100472Y0193218D01*
X0100293Y0193148D01*
X0100115Y0193074D01*
X0099940Y0192996D01*
X0099766Y0192913D01*
X0099595Y0192826D01*
X0099426Y0192736D01*
X0099259Y0192641D01*
X0099094Y0192542D01*
X0098931Y0192439D01*
X0098772Y0192332D01*
X0098614Y0192222D01*
X0098460Y0192108D01*
X0098308Y0191990D01*
X0098159Y0191868D01*
X0098013Y0191743D01*
X0097871Y0191615D01*
X0097731Y0191483D01*
X0097594Y0191348D01*
X0097461Y0191209D01*
X0097331Y0191068D01*
X0097205Y0190923D01*
X0097082Y0190775D01*
X0096963Y0190625D01*
X0096847Y0190471D01*
X0096735Y0190315D01*
X0096627Y0190156D01*
X0096522Y0189995D01*
X0096422Y0189831D01*
X0096326Y0189665D01*
X0096233Y0189497D01*
X0103291Y0177732D02*
X0103484Y0177734D01*
X0103677Y0177741D01*
X0103869Y0177753D01*
X0104062Y0177769D01*
X0104254Y0177790D01*
X0104445Y0177816D01*
X0104635Y0177846D01*
X0104825Y0177881D01*
X0105014Y0177920D01*
X0105202Y0177964D01*
X0105389Y0178012D01*
X0105575Y0178065D01*
X0105759Y0178122D01*
X0105942Y0178184D01*
X0106123Y0178250D01*
X0106303Y0178321D01*
X0106481Y0178395D01*
X0106657Y0178474D01*
X0106831Y0178558D01*
X0107003Y0178645D01*
X0107173Y0178737D01*
X0107340Y0178833D01*
X0107506Y0178932D01*
X0107669Y0179036D01*
X0107829Y0179143D01*
X0107986Y0179255D01*
X0108141Y0179370D01*
X0108293Y0179489D01*
X0108442Y0179611D01*
X0108589Y0179737D01*
X0108732Y0179867D01*
X0108872Y0180000D01*
X0109008Y0180136D01*
X0109142Y0180276D01*
X0109271Y0180418D01*
X0109398Y0180564D01*
X0121463Y0181606D02*
X0121562Y0181437D01*
X0121666Y0181271D01*
X0121773Y0181107D01*
X0121884Y0180946D01*
X0121999Y0180788D01*
X0122118Y0180633D01*
X0122241Y0180480D01*
X0122367Y0180331D01*
X0122497Y0180185D01*
X0122631Y0180042D01*
X0122768Y0179902D01*
X0122908Y0179766D01*
X0123052Y0179633D01*
X0123199Y0179504D01*
X0123349Y0179378D01*
X0123502Y0179257D01*
X0123658Y0179138D01*
X0123817Y0179024D01*
X0123978Y0178914D01*
X0124143Y0178808D01*
X0124309Y0178705D01*
X0124479Y0178607D01*
X0124650Y0178513D01*
X0124824Y0178423D01*
X0125000Y0178338D01*
X0125178Y0178256D01*
X0125358Y0178180D01*
X0125540Y0178107D01*
X0125723Y0178039D01*
X0125908Y0177976D01*
X0126095Y0177917D01*
X0126283Y0177863D01*
X0126472Y0177813D01*
X0126662Y0177768D01*
X0126854Y0177728D01*
X0127046Y0177692D01*
X0127239Y0177661D01*
X0127433Y0177635D01*
X0127628Y0177613D01*
X0127823Y0177597D01*
X0128018Y0177585D01*
X0128214Y0177577D01*
X0128409Y0177575D01*
X0121351Y0189340D02*
X0121444Y0189508D01*
X0121540Y0189674D01*
X0121640Y0189838D01*
X0121745Y0189999D01*
X0121853Y0190158D01*
X0121965Y0190314D01*
X0122081Y0190468D01*
X0122200Y0190618D01*
X0122323Y0190766D01*
X0122449Y0190911D01*
X0122579Y0191052D01*
X0122712Y0191191D01*
X0122849Y0191326D01*
X0122989Y0191458D01*
X0123131Y0191586D01*
X0123277Y0191711D01*
X0123426Y0191833D01*
X0123578Y0191951D01*
X0123732Y0192065D01*
X0123890Y0192175D01*
X0124049Y0192282D01*
X0124212Y0192385D01*
X0124377Y0192484D01*
X0124544Y0192579D01*
X0124713Y0192669D01*
X0124884Y0192756D01*
X0125058Y0192839D01*
X0125233Y0192917D01*
X0125411Y0192991D01*
X0125590Y0193061D01*
X0125770Y0193127D01*
X0125952Y0193188D01*
X0126136Y0193245D01*
X0126321Y0193297D01*
X0126507Y0193345D01*
X0126694Y0193389D01*
X0126882Y0193428D01*
X0127071Y0193462D01*
X0127261Y0193492D01*
X0127451Y0193517D01*
X0127642Y0193538D01*
X0127834Y0193554D01*
X0128026Y0193566D01*
X0128218Y0193573D01*
X0128410Y0193575D01*
X0134517Y0180407D02*
X0134390Y0180261D01*
X0134261Y0180119D01*
X0134127Y0179979D01*
X0133991Y0179843D01*
X0133851Y0179710D01*
X0133708Y0179580D01*
X0133561Y0179454D01*
X0133412Y0179332D01*
X0133260Y0179213D01*
X0133105Y0179098D01*
X0132948Y0178986D01*
X0132788Y0178879D01*
X0132625Y0178775D01*
X0132459Y0178676D01*
X0132292Y0178580D01*
X0132122Y0178488D01*
X0131950Y0178401D01*
X0131776Y0178317D01*
X0131600Y0178238D01*
X0131422Y0178164D01*
X0131242Y0178093D01*
X0131061Y0178027D01*
X0130878Y0177965D01*
X0130694Y0177908D01*
X0130508Y0177855D01*
X0130321Y0177807D01*
X0130133Y0177763D01*
X0129944Y0177724D01*
X0129754Y0177689D01*
X0129564Y0177659D01*
X0129373Y0177633D01*
X0129181Y0177612D01*
X0128988Y0177596D01*
X0128796Y0177584D01*
X0128603Y0177577D01*
X0128410Y0177575D01*
X0134555Y0190697D02*
X0134428Y0190845D01*
X0134298Y0190990D01*
X0134165Y0191131D01*
X0134028Y0191270D01*
X0133888Y0191405D01*
X0133744Y0191536D01*
X0133597Y0191664D01*
X0133448Y0191789D01*
X0133295Y0191910D01*
X0133140Y0192027D01*
X0132981Y0192140D01*
X0132820Y0192249D01*
X0132656Y0192354D01*
X0132490Y0192456D01*
X0132321Y0192553D01*
X0132151Y0192646D01*
X0131977Y0192735D01*
X0131802Y0192820D01*
X0131625Y0192900D01*
X0131446Y0192976D01*
X0131265Y0193048D01*
X0131082Y0193115D01*
X0130898Y0193178D01*
X0130712Y0193236D01*
X0130525Y0193290D01*
X0130337Y0193339D01*
X0130147Y0193384D01*
X0129957Y0193424D01*
X0129765Y0193459D01*
X0129573Y0193490D01*
X0129380Y0193516D01*
X0129186Y0193537D01*
X0128992Y0193554D01*
X0128798Y0193566D01*
X0128604Y0193573D01*
X0128409Y0193575D01*
X0010516Y0197366D02*
X0002583Y0197366D01*
X0006520Y0192740D01*
X0010516Y0197366D01*
X0010379Y0197208D02*
X0002717Y0197208D01*
X0003567Y0196210D02*
X0009517Y0196210D01*
X0008654Y0195211D02*
X0004417Y0195211D01*
X0005266Y0194213D02*
X0007792Y0194213D01*
X0006929Y0193214D02*
X0006116Y0193214D01*
D12*
X0008353Y0018725D02*
X0009887Y0017191D01*
X0009887Y0014121D01*
X0011422Y0014121D02*
X0011422Y0017191D01*
X0013724Y0017191D01*
X0014491Y0016423D01*
X0014491Y0014121D01*
X0016026Y0014889D02*
X0016026Y0016423D01*
X0016793Y0017191D01*
X0019095Y0017191D01*
X0019095Y0018725D02*
X0019095Y0014121D01*
X0016793Y0014121D01*
X0016026Y0014889D01*
X0014491Y0011225D02*
X0011422Y0011225D01*
X0011422Y0006621D01*
X0014491Y0006621D01*
X0012957Y0008923D02*
X0011422Y0008923D01*
X0009887Y0011225D02*
X0009887Y0006621D01*
X0006818Y0006621D02*
X0006818Y0011225D01*
X0008353Y0009691D01*
X0009887Y0011225D01*
X0006818Y0014121D02*
X0006818Y0017191D01*
X0008353Y0018725D01*
X0006818Y0016423D02*
X0009887Y0016423D01*
X0020630Y0015656D02*
X0022165Y0017191D01*
X0022932Y0017191D01*
X0024466Y0016423D02*
X0024466Y0014889D01*
X0025234Y0014121D01*
X0026768Y0014121D01*
X0027536Y0015656D02*
X0024466Y0015656D01*
X0024466Y0016423D02*
X0025234Y0017191D01*
X0026768Y0017191D01*
X0027536Y0016423D01*
X0027536Y0015656D01*
X0029070Y0014889D02*
X0029070Y0017191D01*
X0029070Y0014889D02*
X0029838Y0014121D01*
X0030605Y0014889D01*
X0031372Y0014121D01*
X0032140Y0014889D01*
X0032140Y0017191D01*
X0032140Y0011225D02*
X0030605Y0011225D01*
X0029838Y0010458D01*
X0028303Y0010458D02*
X0028303Y0009691D01*
X0027536Y0008923D01*
X0028303Y0008156D01*
X0028303Y0007389D01*
X0027536Y0006621D01*
X0026001Y0006621D01*
X0025234Y0007389D01*
X0026768Y0008923D02*
X0027536Y0008923D01*
X0028303Y0010458D02*
X0027536Y0011225D01*
X0026001Y0011225D01*
X0025234Y0010458D01*
X0023699Y0008923D02*
X0020630Y0008923D01*
X0022932Y0011225D01*
X0022932Y0006621D01*
X0029838Y0007389D02*
X0030605Y0006621D01*
X0032140Y0006621D01*
X0032907Y0007389D01*
X0032907Y0008156D01*
X0032140Y0008923D01*
X0031372Y0008923D01*
X0032140Y0008923D02*
X0032907Y0009691D01*
X0032907Y0010458D01*
X0032140Y0011225D01*
X0039046Y0010458D02*
X0039813Y0011225D01*
X0041348Y0011225D01*
X0042115Y0010458D01*
X0042115Y0009691D01*
X0039046Y0006621D01*
X0042115Y0006621D01*
X0043650Y0007389D02*
X0046719Y0010458D01*
X0046719Y0007389D01*
X0045951Y0006621D01*
X0044417Y0006621D01*
X0043650Y0007389D01*
X0043650Y0010458D01*
X0044417Y0011225D01*
X0045951Y0011225D01*
X0046719Y0010458D01*
X0048253Y0009691D02*
X0049788Y0011225D01*
X0049788Y0006621D01*
X0048253Y0006621D02*
X0051323Y0006621D01*
X0052857Y0006621D02*
X0052857Y0007389D01*
X0055927Y0010458D01*
X0055927Y0011225D01*
X0052857Y0011225D01*
X0052857Y0014121D02*
X0052090Y0014889D01*
X0052090Y0016423D01*
X0052857Y0017191D01*
X0054392Y0017191D01*
X0055159Y0016423D01*
X0055159Y0014889D01*
X0054392Y0014121D01*
X0052857Y0014121D01*
X0050555Y0014121D02*
X0047486Y0014121D01*
X0047486Y0018725D01*
X0045951Y0016423D02*
X0045951Y0014121D01*
X0043649Y0014121D01*
X0042882Y0014889D01*
X0043649Y0015656D01*
X0045951Y0015656D01*
X0045951Y0016423D02*
X0045184Y0017191D01*
X0043649Y0017191D01*
X0041348Y0017958D02*
X0040580Y0018725D01*
X0039046Y0018725D01*
X0038278Y0017958D01*
X0038278Y0017191D01*
X0039046Y0016423D01*
X0040580Y0016423D01*
X0041348Y0015656D01*
X0041348Y0014889D01*
X0040580Y0014121D01*
X0039046Y0014121D01*
X0038278Y0014889D01*
X0020630Y0014121D02*
X0020630Y0017191D01*
X0056694Y0017191D02*
X0056694Y0014889D01*
X0057461Y0014121D01*
X0059763Y0014121D01*
X0059763Y0017191D01*
X0061298Y0017191D02*
X0062833Y0017191D01*
X0062065Y0017958D02*
X0062065Y0014889D01*
X0062833Y0014121D01*
X0064367Y0014889D02*
X0064367Y0016423D01*
X0065134Y0017191D01*
X0066669Y0017191D01*
X0067436Y0016423D01*
X0067436Y0014889D01*
X0066669Y0014121D01*
X0065134Y0014121D01*
X0064367Y0014889D01*
X0068971Y0014121D02*
X0071273Y0014121D01*
X0072040Y0014889D01*
X0071273Y0015656D01*
X0069738Y0015656D01*
X0068971Y0016423D01*
X0069738Y0017191D01*
X0072040Y0017191D01*
D13*
X0113126Y0006803D02*
X0113126Y0004334D01*
X0113744Y0003717D01*
X0114978Y0003717D01*
X0115595Y0004334D01*
X0115595Y0006803D01*
X0114978Y0007420D01*
X0113744Y0007420D01*
X0113126Y0006803D01*
X0116810Y0007420D02*
X0116810Y0003717D01*
X0116810Y0005569D02*
X0118044Y0005569D01*
X0116810Y0007420D02*
X0119278Y0007420D01*
X0120493Y0007420D02*
X0122961Y0007420D01*
X0121727Y0005569D02*
X0120493Y0005569D01*
X0120493Y0007420D02*
X0120493Y0003717D01*
X0146275Y0004334D02*
X0146892Y0003717D01*
X0148126Y0003717D01*
X0148743Y0004334D01*
X0148743Y0006803D01*
X0148126Y0007420D01*
X0146892Y0007420D01*
X0146275Y0006803D01*
X0146275Y0004334D01*
X0149958Y0003717D02*
X0149958Y0007420D01*
X0152427Y0003717D01*
X0152427Y0007420D01*
D14*
X0181221Y0064848D02*
X0182155Y0064848D01*
X0182622Y0065315D01*
X0182622Y0066249D01*
X0181688Y0066249D01*
X0182622Y0067183D02*
X0182155Y0067650D01*
X0181221Y0067650D01*
X0180754Y0067183D01*
X0180754Y0065315D01*
X0181221Y0064848D01*
X0183516Y0064848D02*
X0183516Y0067650D01*
X0185384Y0064848D01*
X0185384Y0067650D01*
X0186278Y0067650D02*
X0186278Y0064848D01*
X0187679Y0064848D01*
X0188147Y0065315D01*
X0188147Y0067183D01*
X0187679Y0067650D01*
X0186278Y0067650D01*
X0187212Y0074808D02*
X0188147Y0075742D01*
X0188147Y0077610D01*
X0186278Y0077610D02*
X0186278Y0075742D01*
X0187212Y0074808D01*
X0185384Y0075275D02*
X0185384Y0076209D01*
X0184917Y0076676D01*
X0184450Y0076676D01*
X0183516Y0076209D01*
X0183516Y0077610D01*
X0185384Y0077610D01*
X0185384Y0075275D02*
X0184917Y0074808D01*
X0183983Y0074808D01*
X0183516Y0075275D01*
X0182622Y0076209D02*
X0180754Y0076209D01*
X0181688Y0077143D02*
X0181688Y0075275D01*
X0182155Y0084768D02*
X0180754Y0084768D01*
X0180754Y0087570D01*
X0182155Y0087570D01*
X0182622Y0087103D01*
X0182622Y0086636D01*
X0182155Y0086169D01*
X0180754Y0086169D01*
X0182155Y0086169D02*
X0182622Y0085702D01*
X0182622Y0085235D01*
X0182155Y0084768D01*
X0183516Y0084768D02*
X0183516Y0085235D01*
X0185384Y0087103D01*
X0185384Y0087570D01*
X0183516Y0087570D01*
X0183983Y0094728D02*
X0183516Y0095195D01*
X0183516Y0095662D01*
X0183983Y0096129D01*
X0184917Y0096129D01*
X0185384Y0095662D01*
X0185384Y0095195D01*
X0184917Y0094728D01*
X0183983Y0094728D01*
X0183983Y0096129D02*
X0183516Y0096596D01*
X0183516Y0097063D01*
X0183983Y0097530D01*
X0184917Y0097530D01*
X0185384Y0097063D01*
X0185384Y0096596D01*
X0184917Y0096129D01*
X0182622Y0095662D02*
X0182622Y0095195D01*
X0182155Y0094728D01*
X0180754Y0094728D01*
X0180754Y0097530D01*
X0182155Y0097530D01*
X0182622Y0097063D01*
X0182622Y0096596D01*
X0182155Y0096129D01*
X0180754Y0096129D01*
X0182155Y0096129D02*
X0182622Y0095662D01*
X0182155Y0104688D02*
X0180754Y0104688D01*
X0180754Y0107490D01*
X0182155Y0107490D01*
X0182622Y0107023D01*
X0182622Y0106556D01*
X0182155Y0106089D01*
X0180754Y0106089D01*
X0182155Y0106089D02*
X0182622Y0105622D01*
X0182622Y0105155D01*
X0182155Y0104688D01*
X0183516Y0105155D02*
X0183983Y0104688D01*
X0184917Y0104688D01*
X0185384Y0105155D01*
X0185384Y0107023D01*
X0184917Y0107490D01*
X0183983Y0107490D01*
X0183516Y0107023D01*
X0183516Y0106556D01*
X0183983Y0106089D01*
X0185384Y0106089D01*
X0185384Y0114648D02*
X0183516Y0114648D01*
X0184450Y0114648D02*
X0184450Y0117450D01*
X0183516Y0116516D01*
X0182622Y0116516D02*
X0182155Y0116049D01*
X0180754Y0116049D01*
X0182155Y0116049D02*
X0182622Y0115582D01*
X0182622Y0115115D01*
X0182155Y0114648D01*
X0180754Y0114648D01*
X0180754Y0117450D01*
X0182155Y0117450D01*
X0182622Y0116983D01*
X0182622Y0116516D01*
X0186278Y0116983D02*
X0186745Y0117450D01*
X0187679Y0117450D01*
X0188147Y0116983D01*
X0188147Y0116516D01*
X0187679Y0116049D01*
X0188147Y0115582D01*
X0188147Y0115115D01*
X0187679Y0114648D01*
X0186745Y0114648D01*
X0186278Y0115115D01*
X0187212Y0116049D02*
X0187679Y0116049D01*
X0187679Y0124608D02*
X0187679Y0127410D01*
X0186278Y0126009D01*
X0188147Y0126009D01*
X0185384Y0124608D02*
X0183516Y0124608D01*
X0184450Y0124608D02*
X0184450Y0127410D01*
X0183516Y0126476D01*
X0182622Y0126476D02*
X0182155Y0126009D01*
X0180754Y0126009D01*
X0182155Y0126009D02*
X0182622Y0125542D01*
X0182622Y0125075D01*
X0182155Y0124608D01*
X0180754Y0124608D01*
X0180754Y0127410D01*
X0182155Y0127410D01*
X0182622Y0126943D01*
X0182622Y0126476D01*
X0182155Y0134568D02*
X0180754Y0134568D01*
X0180754Y0137370D01*
X0182155Y0137370D01*
X0182622Y0136903D01*
X0182622Y0136436D01*
X0182155Y0135969D01*
X0180754Y0135969D01*
X0182155Y0135969D02*
X0182622Y0135502D01*
X0182622Y0135035D01*
X0182155Y0134568D01*
X0183516Y0134568D02*
X0185384Y0134568D01*
X0184450Y0134568D02*
X0184450Y0137370D01*
X0183516Y0136436D01*
X0186278Y0135969D02*
X0187212Y0136436D01*
X0187679Y0136436D01*
X0188147Y0135969D01*
X0188147Y0135035D01*
X0187679Y0134568D01*
X0186745Y0134568D01*
X0186278Y0135035D01*
X0186278Y0135969D02*
X0186278Y0137370D01*
X0188147Y0137370D01*
X0023511Y0077650D02*
X0023511Y0075782D01*
X0022576Y0074847D01*
X0021642Y0075782D01*
X0021642Y0077650D01*
X0020748Y0077183D02*
X0020748Y0076716D01*
X0020281Y0076249D01*
X0020748Y0075782D01*
X0020748Y0075314D01*
X0020281Y0074847D01*
X0019347Y0074847D01*
X0018880Y0075314D01*
X0017966Y0075314D02*
X0017966Y0074847D01*
X0017499Y0074847D01*
X0017499Y0075314D01*
X0017966Y0075314D01*
X0016605Y0075314D02*
X0016138Y0074847D01*
X0015203Y0074847D01*
X0014736Y0075314D01*
X0013842Y0076249D02*
X0011974Y0076249D01*
X0012908Y0077183D02*
X0012908Y0075314D01*
X0014736Y0077183D02*
X0015203Y0077650D01*
X0016138Y0077650D01*
X0016605Y0077183D01*
X0016605Y0076716D01*
X0016138Y0076249D01*
X0016605Y0075782D01*
X0016605Y0075314D01*
X0016138Y0076249D02*
X0015670Y0076249D01*
X0018880Y0077183D02*
X0019347Y0077650D01*
X0020281Y0077650D01*
X0020748Y0077183D01*
X0020281Y0076249D02*
X0019814Y0076249D01*
X0016138Y0084807D02*
X0016138Y0087610D01*
X0014736Y0086209D01*
X0016605Y0086209D01*
X0013842Y0086209D02*
X0011974Y0086209D01*
X0011974Y0086676D02*
X0012908Y0087610D01*
X0013842Y0086676D01*
X0013842Y0084807D01*
X0011974Y0084807D02*
X0011974Y0086676D01*
X0011974Y0094767D02*
X0013375Y0094767D01*
X0013842Y0095234D01*
X0013842Y0095702D01*
X0013375Y0096169D01*
X0011974Y0096169D01*
X0011974Y0097570D02*
X0013375Y0097570D01*
X0013842Y0097103D01*
X0013842Y0096636D01*
X0013375Y0096169D01*
X0014736Y0096169D02*
X0016605Y0096169D01*
X0016138Y0097570D02*
X0014736Y0096169D01*
X0016138Y0094767D02*
X0016138Y0097570D01*
X0011974Y0097570D02*
X0011974Y0094767D01*
X0011974Y0104727D02*
X0013375Y0104727D01*
X0013842Y0105194D01*
X0013842Y0105661D01*
X0013375Y0106129D01*
X0011974Y0106129D01*
X0011974Y0107530D02*
X0013375Y0107530D01*
X0013842Y0107063D01*
X0013842Y0106596D01*
X0013375Y0106129D01*
X0014736Y0107063D02*
X0015203Y0107530D01*
X0016138Y0107530D01*
X0016605Y0107063D01*
X0016605Y0106596D01*
X0016138Y0106129D01*
X0016605Y0105661D01*
X0016605Y0105194D01*
X0016138Y0104727D01*
X0015203Y0104727D01*
X0014736Y0105194D01*
X0015670Y0106129D02*
X0016138Y0106129D01*
X0011974Y0104727D02*
X0011974Y0107530D01*
X0011974Y0114687D02*
X0013375Y0114687D01*
X0013842Y0115154D01*
X0013842Y0115621D01*
X0013375Y0116089D01*
X0011974Y0116089D01*
X0011974Y0117490D02*
X0013375Y0117490D01*
X0013842Y0117023D01*
X0013842Y0116556D01*
X0013375Y0116089D01*
X0014736Y0117023D02*
X0015203Y0117490D01*
X0016138Y0117490D01*
X0016605Y0117023D01*
X0016605Y0116556D01*
X0014736Y0114687D01*
X0016605Y0114687D01*
X0011974Y0114687D02*
X0011974Y0117490D01*
X0011974Y0124647D02*
X0011974Y0126516D01*
X0012908Y0127450D01*
X0013842Y0126516D01*
X0013842Y0124647D01*
X0014736Y0124647D02*
X0016605Y0124647D01*
X0015670Y0124647D02*
X0015670Y0127450D01*
X0014736Y0126516D01*
X0013842Y0126049D02*
X0011974Y0126049D01*
X0011974Y0134607D02*
X0011974Y0136476D01*
X0012908Y0137410D01*
X0013842Y0136476D01*
X0013842Y0134607D01*
X0014736Y0135074D02*
X0014736Y0136943D01*
X0015203Y0137410D01*
X0016138Y0137410D01*
X0016605Y0136943D01*
X0014736Y0135074D01*
X0015203Y0134607D01*
X0016138Y0134607D01*
X0016605Y0135074D01*
X0016605Y0136943D01*
X0013842Y0136009D02*
X0011974Y0136009D01*
X0012441Y0067690D02*
X0011974Y0067223D01*
X0011974Y0065354D01*
X0012441Y0064887D01*
X0013375Y0064887D01*
X0013842Y0065354D01*
X0013842Y0066289D01*
X0012908Y0066289D01*
X0013842Y0067223D02*
X0013375Y0067690D01*
X0012441Y0067690D01*
X0014736Y0067690D02*
X0014736Y0064887D01*
X0016605Y0064887D02*
X0014736Y0067690D01*
X0016605Y0067690D02*
X0016605Y0064887D01*
X0017499Y0064887D02*
X0018900Y0064887D01*
X0019367Y0065354D01*
X0019367Y0067223D01*
X0018900Y0067690D01*
X0017499Y0067690D01*
X0017499Y0064887D01*
D15*
X0030161Y0037603D02*
X0032661Y0037603D01*
X0035161Y0037603D01*
X0035161Y0035103D02*
X0032661Y0035103D01*
X0030161Y0035103D01*
X0130357Y0037799D02*
X0130357Y0040299D01*
X0130357Y0042799D01*
X0132857Y0042799D02*
X0132857Y0040299D01*
X0132857Y0037799D01*
X0133272Y0095023D02*
X0130772Y0095023D01*
X0133272Y0095023D02*
X0135772Y0095023D01*
X0135772Y0097523D02*
X0133272Y0097523D01*
X0130772Y0097523D01*
X0134157Y0150398D02*
X0134157Y0152898D01*
X0134157Y0155398D01*
X0136657Y0155398D02*
X0136657Y0152898D01*
X0136657Y0150398D01*
X0107976Y0152798D02*
X0105476Y0152798D01*
X0102976Y0152798D01*
X0102976Y0155298D02*
X0105476Y0155298D01*
X0107976Y0155298D01*
D16*
X0105476Y0155298D02*
X0105476Y0160098D01*
X0099476Y0167598D02*
X0099478Y0167658D01*
X0099483Y0167719D01*
X0099492Y0167778D01*
X0099505Y0167837D01*
X0099521Y0167896D01*
X0099541Y0167953D01*
X0099564Y0168008D01*
X0099591Y0168063D01*
X0099620Y0168115D01*
X0099653Y0168166D01*
X0099689Y0168215D01*
X0099727Y0168261D01*
X0099769Y0168305D01*
X0099813Y0168347D01*
X0099859Y0168385D01*
X0099908Y0168421D01*
X0099959Y0168454D01*
X0100011Y0168483D01*
X0100066Y0168510D01*
X0100121Y0168533D01*
X0100178Y0168553D01*
X0100237Y0168569D01*
X0100296Y0168582D01*
X0100355Y0168591D01*
X0100416Y0168596D01*
X0100476Y0168598D01*
X0110476Y0168598D01*
X0110536Y0168596D01*
X0110597Y0168591D01*
X0110656Y0168582D01*
X0110715Y0168569D01*
X0110774Y0168553D01*
X0110831Y0168533D01*
X0110886Y0168510D01*
X0110941Y0168483D01*
X0110993Y0168454D01*
X0111044Y0168421D01*
X0111093Y0168385D01*
X0111139Y0168347D01*
X0111183Y0168305D01*
X0111225Y0168261D01*
X0111263Y0168215D01*
X0111299Y0168166D01*
X0111332Y0168115D01*
X0111361Y0168063D01*
X0111388Y0168008D01*
X0111411Y0167953D01*
X0111431Y0167896D01*
X0111447Y0167837D01*
X0111460Y0167778D01*
X0111469Y0167719D01*
X0111474Y0167658D01*
X0111476Y0167598D01*
X0111476Y0140598D01*
X0111474Y0140538D01*
X0111469Y0140477D01*
X0111460Y0140418D01*
X0111447Y0140359D01*
X0111431Y0140300D01*
X0111411Y0140243D01*
X0111388Y0140188D01*
X0111361Y0140133D01*
X0111332Y0140081D01*
X0111299Y0140030D01*
X0111263Y0139981D01*
X0111225Y0139935D01*
X0111183Y0139891D01*
X0111139Y0139849D01*
X0111093Y0139811D01*
X0111044Y0139775D01*
X0110993Y0139742D01*
X0110941Y0139713D01*
X0110886Y0139686D01*
X0110831Y0139663D01*
X0110774Y0139643D01*
X0110715Y0139627D01*
X0110656Y0139614D01*
X0110597Y0139605D01*
X0110536Y0139600D01*
X0110476Y0139598D01*
X0100476Y0139598D01*
X0100416Y0139600D01*
X0100355Y0139605D01*
X0100296Y0139614D01*
X0100237Y0139627D01*
X0100178Y0139643D01*
X0100121Y0139663D01*
X0100066Y0139686D01*
X0100011Y0139713D01*
X0099959Y0139742D01*
X0099908Y0139775D01*
X0099859Y0139811D01*
X0099813Y0139849D01*
X0099769Y0139891D01*
X0099727Y0139935D01*
X0099689Y0139981D01*
X0099653Y0140030D01*
X0099620Y0140081D01*
X0099591Y0140133D01*
X0099564Y0140188D01*
X0099541Y0140243D01*
X0099521Y0140300D01*
X0099505Y0140359D01*
X0099492Y0140418D01*
X0099483Y0140477D01*
X0099478Y0140538D01*
X0099476Y0140598D01*
X0099476Y0167598D01*
X0105476Y0152798D02*
X0105476Y0148098D01*
X0120957Y0147898D02*
X0120957Y0157898D01*
X0120959Y0157958D01*
X0120964Y0158019D01*
X0120973Y0158078D01*
X0120986Y0158137D01*
X0121002Y0158196D01*
X0121022Y0158253D01*
X0121045Y0158308D01*
X0121072Y0158363D01*
X0121101Y0158415D01*
X0121134Y0158466D01*
X0121170Y0158515D01*
X0121208Y0158561D01*
X0121250Y0158605D01*
X0121294Y0158647D01*
X0121340Y0158685D01*
X0121389Y0158721D01*
X0121440Y0158754D01*
X0121492Y0158783D01*
X0121547Y0158810D01*
X0121602Y0158833D01*
X0121659Y0158853D01*
X0121718Y0158869D01*
X0121777Y0158882D01*
X0121836Y0158891D01*
X0121897Y0158896D01*
X0121957Y0158898D01*
X0148957Y0158898D01*
X0149017Y0158896D01*
X0149078Y0158891D01*
X0149137Y0158882D01*
X0149196Y0158869D01*
X0149255Y0158853D01*
X0149312Y0158833D01*
X0149367Y0158810D01*
X0149422Y0158783D01*
X0149474Y0158754D01*
X0149525Y0158721D01*
X0149574Y0158685D01*
X0149620Y0158647D01*
X0149664Y0158605D01*
X0149706Y0158561D01*
X0149744Y0158515D01*
X0149780Y0158466D01*
X0149813Y0158415D01*
X0149842Y0158363D01*
X0149869Y0158308D01*
X0149892Y0158253D01*
X0149912Y0158196D01*
X0149928Y0158137D01*
X0149941Y0158078D01*
X0149950Y0158019D01*
X0149955Y0157958D01*
X0149957Y0157898D01*
X0149957Y0147898D01*
X0149955Y0147838D01*
X0149950Y0147777D01*
X0149941Y0147718D01*
X0149928Y0147659D01*
X0149912Y0147600D01*
X0149892Y0147543D01*
X0149869Y0147488D01*
X0149842Y0147433D01*
X0149813Y0147381D01*
X0149780Y0147330D01*
X0149744Y0147281D01*
X0149706Y0147235D01*
X0149664Y0147191D01*
X0149620Y0147149D01*
X0149574Y0147111D01*
X0149525Y0147075D01*
X0149474Y0147042D01*
X0149422Y0147013D01*
X0149367Y0146986D01*
X0149312Y0146963D01*
X0149255Y0146943D01*
X0149196Y0146927D01*
X0149137Y0146914D01*
X0149078Y0146905D01*
X0149017Y0146900D01*
X0148957Y0146898D01*
X0121957Y0146898D01*
X0121897Y0146900D01*
X0121836Y0146905D01*
X0121777Y0146914D01*
X0121718Y0146927D01*
X0121659Y0146943D01*
X0121602Y0146963D01*
X0121547Y0146986D01*
X0121492Y0147013D01*
X0121440Y0147042D01*
X0121389Y0147075D01*
X0121340Y0147111D01*
X0121294Y0147149D01*
X0121250Y0147191D01*
X0121208Y0147235D01*
X0121170Y0147281D01*
X0121134Y0147330D01*
X0121101Y0147381D01*
X0121072Y0147433D01*
X0121045Y0147488D01*
X0121022Y0147543D01*
X0121002Y0147600D01*
X0120986Y0147659D01*
X0120973Y0147718D01*
X0120964Y0147777D01*
X0120959Y0147838D01*
X0120957Y0147898D01*
X0129457Y0152898D02*
X0134157Y0152898D01*
X0136657Y0152898D02*
X0141457Y0152898D01*
X0155453Y0168929D02*
X0156953Y0168929D01*
X0157453Y0169429D01*
X0176453Y0169429D01*
X0176953Y0168929D01*
X0178453Y0168929D01*
X0178513Y0168931D01*
X0178574Y0168936D01*
X0178633Y0168945D01*
X0178692Y0168958D01*
X0178751Y0168974D01*
X0178808Y0168994D01*
X0178863Y0169017D01*
X0178918Y0169044D01*
X0178970Y0169073D01*
X0179021Y0169106D01*
X0179070Y0169142D01*
X0179116Y0169180D01*
X0179160Y0169222D01*
X0179202Y0169266D01*
X0179240Y0169312D01*
X0179276Y0169361D01*
X0179309Y0169412D01*
X0179338Y0169464D01*
X0179365Y0169519D01*
X0179388Y0169574D01*
X0179408Y0169631D01*
X0179424Y0169690D01*
X0179437Y0169749D01*
X0179446Y0169808D01*
X0179451Y0169869D01*
X0179453Y0169929D01*
X0179453Y0176929D01*
X0179451Y0176989D01*
X0179446Y0177050D01*
X0179437Y0177109D01*
X0179424Y0177168D01*
X0179408Y0177227D01*
X0179388Y0177284D01*
X0179365Y0177339D01*
X0179338Y0177394D01*
X0179309Y0177446D01*
X0179276Y0177497D01*
X0179240Y0177546D01*
X0179202Y0177592D01*
X0179160Y0177636D01*
X0179116Y0177678D01*
X0179070Y0177716D01*
X0179021Y0177752D01*
X0178970Y0177785D01*
X0178918Y0177814D01*
X0178863Y0177841D01*
X0178808Y0177864D01*
X0178751Y0177884D01*
X0178692Y0177900D01*
X0178633Y0177913D01*
X0178574Y0177922D01*
X0178513Y0177927D01*
X0178453Y0177929D01*
X0176953Y0177929D01*
X0176453Y0177429D01*
X0157453Y0177429D01*
X0156953Y0177929D01*
X0155453Y0177929D01*
X0155393Y0177927D01*
X0155332Y0177922D01*
X0155273Y0177913D01*
X0155214Y0177900D01*
X0155155Y0177884D01*
X0155098Y0177864D01*
X0155043Y0177841D01*
X0154988Y0177814D01*
X0154936Y0177785D01*
X0154885Y0177752D01*
X0154836Y0177716D01*
X0154790Y0177678D01*
X0154746Y0177636D01*
X0154704Y0177592D01*
X0154666Y0177546D01*
X0154630Y0177497D01*
X0154597Y0177446D01*
X0154568Y0177394D01*
X0154541Y0177339D01*
X0154518Y0177284D01*
X0154498Y0177227D01*
X0154482Y0177168D01*
X0154469Y0177109D01*
X0154460Y0177050D01*
X0154455Y0176989D01*
X0154453Y0176929D01*
X0154453Y0169929D01*
X0154455Y0169869D01*
X0154460Y0169808D01*
X0154469Y0169749D01*
X0154482Y0169690D01*
X0154498Y0169631D01*
X0154518Y0169574D01*
X0154541Y0169519D01*
X0154568Y0169464D01*
X0154597Y0169412D01*
X0154630Y0169361D01*
X0154666Y0169312D01*
X0154704Y0169266D01*
X0154746Y0169222D01*
X0154790Y0169180D01*
X0154836Y0169142D01*
X0154885Y0169106D01*
X0154936Y0169073D01*
X0154988Y0169044D01*
X0155043Y0169017D01*
X0155098Y0168994D01*
X0155155Y0168974D01*
X0155214Y0168958D01*
X0155273Y0168945D01*
X0155332Y0168936D01*
X0155393Y0168931D01*
X0155453Y0168929D01*
X0160886Y0159161D02*
X0160886Y0157661D01*
X0162386Y0157661D01*
X0160886Y0157661D02*
X0160886Y0156161D01*
X0160886Y0157661D02*
X0159386Y0157661D01*
X0156386Y0152661D02*
X0156389Y0152931D01*
X0156399Y0153201D01*
X0156416Y0153470D01*
X0156439Y0153739D01*
X0156469Y0154008D01*
X0156505Y0154275D01*
X0156548Y0154542D01*
X0156597Y0154807D01*
X0156653Y0155071D01*
X0156716Y0155334D01*
X0156784Y0155595D01*
X0156860Y0155854D01*
X0156941Y0156111D01*
X0157029Y0156367D01*
X0157123Y0156620D01*
X0157223Y0156871D01*
X0157330Y0157119D01*
X0157442Y0157364D01*
X0157561Y0157607D01*
X0157685Y0157846D01*
X0157815Y0158083D01*
X0157951Y0158316D01*
X0158093Y0158546D01*
X0158240Y0158772D01*
X0158393Y0158995D01*
X0158551Y0159214D01*
X0158714Y0159429D01*
X0158883Y0159639D01*
X0159057Y0159846D01*
X0159236Y0160048D01*
X0159419Y0160246D01*
X0159608Y0160439D01*
X0159801Y0160628D01*
X0159999Y0160811D01*
X0160201Y0160990D01*
X0160408Y0161164D01*
X0160618Y0161333D01*
X0160833Y0161496D01*
X0161052Y0161654D01*
X0161275Y0161807D01*
X0161501Y0161954D01*
X0161731Y0162096D01*
X0161964Y0162232D01*
X0162201Y0162362D01*
X0162440Y0162486D01*
X0162683Y0162605D01*
X0162928Y0162717D01*
X0163176Y0162824D01*
X0163427Y0162924D01*
X0163680Y0163018D01*
X0163936Y0163106D01*
X0164193Y0163187D01*
X0164452Y0163263D01*
X0164713Y0163331D01*
X0164976Y0163394D01*
X0165240Y0163450D01*
X0165505Y0163499D01*
X0165772Y0163542D01*
X0166039Y0163578D01*
X0166308Y0163608D01*
X0166577Y0163631D01*
X0166846Y0163648D01*
X0167116Y0163658D01*
X0167386Y0163661D01*
X0167656Y0163658D01*
X0167926Y0163648D01*
X0168195Y0163631D01*
X0168464Y0163608D01*
X0168733Y0163578D01*
X0169000Y0163542D01*
X0169267Y0163499D01*
X0169532Y0163450D01*
X0169796Y0163394D01*
X0170059Y0163331D01*
X0170320Y0163263D01*
X0170579Y0163187D01*
X0170836Y0163106D01*
X0171092Y0163018D01*
X0171345Y0162924D01*
X0171596Y0162824D01*
X0171844Y0162717D01*
X0172089Y0162605D01*
X0172332Y0162486D01*
X0172571Y0162362D01*
X0172808Y0162232D01*
X0173041Y0162096D01*
X0173271Y0161954D01*
X0173497Y0161807D01*
X0173720Y0161654D01*
X0173939Y0161496D01*
X0174154Y0161333D01*
X0174364Y0161164D01*
X0174571Y0160990D01*
X0174773Y0160811D01*
X0174971Y0160628D01*
X0175164Y0160439D01*
X0175353Y0160246D01*
X0175536Y0160048D01*
X0175715Y0159846D01*
X0175889Y0159639D01*
X0176058Y0159429D01*
X0176221Y0159214D01*
X0176379Y0158995D01*
X0176532Y0158772D01*
X0176679Y0158546D01*
X0176821Y0158316D01*
X0176957Y0158083D01*
X0177087Y0157846D01*
X0177211Y0157607D01*
X0177330Y0157364D01*
X0177442Y0157119D01*
X0177549Y0156871D01*
X0177649Y0156620D01*
X0177743Y0156367D01*
X0177831Y0156111D01*
X0177912Y0155854D01*
X0177988Y0155595D01*
X0178056Y0155334D01*
X0178119Y0155071D01*
X0178175Y0154807D01*
X0178224Y0154542D01*
X0178267Y0154275D01*
X0178303Y0154008D01*
X0178333Y0153739D01*
X0178356Y0153470D01*
X0178373Y0153201D01*
X0178383Y0152931D01*
X0178386Y0152661D01*
X0178383Y0152391D01*
X0178373Y0152121D01*
X0178356Y0151852D01*
X0178333Y0151583D01*
X0178303Y0151314D01*
X0178267Y0151047D01*
X0178224Y0150780D01*
X0178175Y0150515D01*
X0178119Y0150251D01*
X0178056Y0149988D01*
X0177988Y0149727D01*
X0177912Y0149468D01*
X0177831Y0149211D01*
X0177743Y0148955D01*
X0177649Y0148702D01*
X0177549Y0148451D01*
X0177442Y0148203D01*
X0177330Y0147958D01*
X0177211Y0147715D01*
X0177087Y0147476D01*
X0176957Y0147239D01*
X0176821Y0147006D01*
X0176679Y0146776D01*
X0176532Y0146550D01*
X0176379Y0146327D01*
X0176221Y0146108D01*
X0176058Y0145893D01*
X0175889Y0145683D01*
X0175715Y0145476D01*
X0175536Y0145274D01*
X0175353Y0145076D01*
X0175164Y0144883D01*
X0174971Y0144694D01*
X0174773Y0144511D01*
X0174571Y0144332D01*
X0174364Y0144158D01*
X0174154Y0143989D01*
X0173939Y0143826D01*
X0173720Y0143668D01*
X0173497Y0143515D01*
X0173271Y0143368D01*
X0173041Y0143226D01*
X0172808Y0143090D01*
X0172571Y0142960D01*
X0172332Y0142836D01*
X0172089Y0142717D01*
X0171844Y0142605D01*
X0171596Y0142498D01*
X0171345Y0142398D01*
X0171092Y0142304D01*
X0170836Y0142216D01*
X0170579Y0142135D01*
X0170320Y0142059D01*
X0170059Y0141991D01*
X0169796Y0141928D01*
X0169532Y0141872D01*
X0169267Y0141823D01*
X0169000Y0141780D01*
X0168733Y0141744D01*
X0168464Y0141714D01*
X0168195Y0141691D01*
X0167926Y0141674D01*
X0167656Y0141664D01*
X0167386Y0141661D01*
X0167116Y0141664D01*
X0166846Y0141674D01*
X0166577Y0141691D01*
X0166308Y0141714D01*
X0166039Y0141744D01*
X0165772Y0141780D01*
X0165505Y0141823D01*
X0165240Y0141872D01*
X0164976Y0141928D01*
X0164713Y0141991D01*
X0164452Y0142059D01*
X0164193Y0142135D01*
X0163936Y0142216D01*
X0163680Y0142304D01*
X0163427Y0142398D01*
X0163176Y0142498D01*
X0162928Y0142605D01*
X0162683Y0142717D01*
X0162440Y0142836D01*
X0162201Y0142960D01*
X0161964Y0143090D01*
X0161731Y0143226D01*
X0161501Y0143368D01*
X0161275Y0143515D01*
X0161052Y0143668D01*
X0160833Y0143826D01*
X0160618Y0143989D01*
X0160408Y0144158D01*
X0160201Y0144332D01*
X0159999Y0144511D01*
X0159801Y0144694D01*
X0159608Y0144883D01*
X0159419Y0145076D01*
X0159236Y0145274D01*
X0159057Y0145476D01*
X0158883Y0145683D01*
X0158714Y0145893D01*
X0158551Y0146108D01*
X0158393Y0146327D01*
X0158240Y0146550D01*
X0158093Y0146776D01*
X0157951Y0147006D01*
X0157815Y0147239D01*
X0157685Y0147476D01*
X0157561Y0147715D01*
X0157442Y0147958D01*
X0157330Y0148203D01*
X0157223Y0148451D01*
X0157123Y0148702D01*
X0157029Y0148955D01*
X0156941Y0149211D01*
X0156860Y0149468D01*
X0156784Y0149727D01*
X0156716Y0149988D01*
X0156653Y0150251D01*
X0156597Y0150515D01*
X0156548Y0150780D01*
X0156505Y0151047D01*
X0156469Y0151314D01*
X0156439Y0151583D01*
X0156416Y0151852D01*
X0156399Y0152121D01*
X0156389Y0152391D01*
X0156386Y0152661D01*
X0156933Y0185760D02*
X0155433Y0185760D01*
X0155373Y0185762D01*
X0155312Y0185767D01*
X0155253Y0185776D01*
X0155194Y0185789D01*
X0155135Y0185805D01*
X0155078Y0185825D01*
X0155023Y0185848D01*
X0154968Y0185875D01*
X0154916Y0185904D01*
X0154865Y0185937D01*
X0154816Y0185973D01*
X0154770Y0186011D01*
X0154726Y0186053D01*
X0154684Y0186097D01*
X0154646Y0186143D01*
X0154610Y0186192D01*
X0154577Y0186243D01*
X0154548Y0186295D01*
X0154521Y0186350D01*
X0154498Y0186405D01*
X0154478Y0186462D01*
X0154462Y0186521D01*
X0154449Y0186580D01*
X0154440Y0186639D01*
X0154435Y0186700D01*
X0154433Y0186760D01*
X0154433Y0193760D01*
X0154435Y0193820D01*
X0154440Y0193881D01*
X0154449Y0193940D01*
X0154462Y0193999D01*
X0154478Y0194058D01*
X0154498Y0194115D01*
X0154521Y0194170D01*
X0154548Y0194225D01*
X0154577Y0194277D01*
X0154610Y0194328D01*
X0154646Y0194377D01*
X0154684Y0194423D01*
X0154726Y0194467D01*
X0154770Y0194509D01*
X0154816Y0194547D01*
X0154865Y0194583D01*
X0154916Y0194616D01*
X0154968Y0194645D01*
X0155023Y0194672D01*
X0155078Y0194695D01*
X0155135Y0194715D01*
X0155194Y0194731D01*
X0155253Y0194744D01*
X0155312Y0194753D01*
X0155373Y0194758D01*
X0155433Y0194760D01*
X0156933Y0194760D01*
X0157433Y0194260D01*
X0176433Y0194260D01*
X0176933Y0194760D01*
X0178433Y0194760D01*
X0178493Y0194758D01*
X0178554Y0194753D01*
X0178613Y0194744D01*
X0178672Y0194731D01*
X0178731Y0194715D01*
X0178788Y0194695D01*
X0178843Y0194672D01*
X0178898Y0194645D01*
X0178950Y0194616D01*
X0179001Y0194583D01*
X0179050Y0194547D01*
X0179096Y0194509D01*
X0179140Y0194467D01*
X0179182Y0194423D01*
X0179220Y0194377D01*
X0179256Y0194328D01*
X0179289Y0194277D01*
X0179318Y0194225D01*
X0179345Y0194170D01*
X0179368Y0194115D01*
X0179388Y0194058D01*
X0179404Y0193999D01*
X0179417Y0193940D01*
X0179426Y0193881D01*
X0179431Y0193820D01*
X0179433Y0193760D01*
X0179433Y0186760D01*
X0179431Y0186700D01*
X0179426Y0186639D01*
X0179417Y0186580D01*
X0179404Y0186521D01*
X0179388Y0186462D01*
X0179368Y0186405D01*
X0179345Y0186350D01*
X0179318Y0186295D01*
X0179289Y0186243D01*
X0179256Y0186192D01*
X0179220Y0186143D01*
X0179182Y0186097D01*
X0179140Y0186053D01*
X0179096Y0186011D01*
X0179050Y0185973D01*
X0179001Y0185937D01*
X0178950Y0185904D01*
X0178898Y0185875D01*
X0178843Y0185848D01*
X0178788Y0185825D01*
X0178731Y0185805D01*
X0178672Y0185789D01*
X0178613Y0185776D01*
X0178554Y0185767D01*
X0178493Y0185762D01*
X0178433Y0185760D01*
X0176933Y0185760D01*
X0176433Y0186260D01*
X0157433Y0186260D01*
X0156933Y0185760D01*
X0128409Y0179575D02*
X0128257Y0179577D01*
X0128106Y0179583D01*
X0127955Y0179592D01*
X0127803Y0179606D01*
X0127653Y0179623D01*
X0127503Y0179644D01*
X0127353Y0179669D01*
X0127204Y0179697D01*
X0127056Y0179730D01*
X0126909Y0179766D01*
X0126762Y0179805D01*
X0126617Y0179849D01*
X0126473Y0179896D01*
X0126330Y0179947D01*
X0126189Y0180001D01*
X0126048Y0180059D01*
X0125910Y0180120D01*
X0125773Y0180185D01*
X0125637Y0180254D01*
X0125504Y0180325D01*
X0125372Y0180400D01*
X0125242Y0180479D01*
X0125115Y0180560D01*
X0124989Y0180645D01*
X0124865Y0180733D01*
X0124744Y0180824D01*
X0124625Y0180918D01*
X0124509Y0181016D01*
X0124395Y0181116D01*
X0124283Y0181218D01*
X0124175Y0181324D01*
X0124069Y0181432D01*
X0123965Y0181543D01*
X0123865Y0181657D01*
X0123767Y0181773D01*
X0123673Y0181892D01*
X0128409Y0191575D02*
X0128563Y0191573D01*
X0128717Y0191567D01*
X0128871Y0191557D01*
X0129025Y0191543D01*
X0129178Y0191526D01*
X0129330Y0191504D01*
X0129482Y0191478D01*
X0129634Y0191449D01*
X0129784Y0191415D01*
X0129934Y0191378D01*
X0130082Y0191337D01*
X0130230Y0191292D01*
X0130376Y0191243D01*
X0130521Y0191191D01*
X0130664Y0191135D01*
X0130807Y0191075D01*
X0130947Y0191012D01*
X0131086Y0190945D01*
X0131223Y0190874D01*
X0131358Y0190800D01*
X0131491Y0190723D01*
X0131623Y0190642D01*
X0131752Y0190558D01*
X0131879Y0190470D01*
X0132003Y0190379D01*
X0132125Y0190286D01*
X0132245Y0190188D01*
X0132362Y0190088D01*
X0132477Y0189985D01*
X0132589Y0189879D01*
X0132698Y0189771D01*
X0132804Y0189659D01*
X0132908Y0189545D01*
X0133008Y0189428D01*
X0133106Y0189309D01*
X0133200Y0189187D01*
X0133291Y0189062D01*
X0128409Y0191575D02*
X0128259Y0191573D01*
X0128108Y0191567D01*
X0127958Y0191558D01*
X0127809Y0191545D01*
X0127659Y0191528D01*
X0127510Y0191507D01*
X0127362Y0191483D01*
X0127214Y0191455D01*
X0127067Y0191423D01*
X0126921Y0191388D01*
X0126776Y0191348D01*
X0126632Y0191306D01*
X0126489Y0191259D01*
X0126347Y0191209D01*
X0126206Y0191156D01*
X0126067Y0191099D01*
X0125929Y0191039D01*
X0125793Y0190975D01*
X0125659Y0190908D01*
X0125526Y0190837D01*
X0125395Y0190763D01*
X0125266Y0190686D01*
X0125139Y0190605D01*
X0125014Y0190522D01*
X0124891Y0190435D01*
X0124770Y0190346D01*
X0124652Y0190253D01*
X0124536Y0190157D01*
X0124422Y0190059D01*
X0124311Y0189958D01*
X0124202Y0189853D01*
X0124097Y0189747D01*
X0123993Y0189637D01*
X0123893Y0189525D01*
X0123795Y0189411D01*
X0123701Y0189294D01*
X0123609Y0189175D01*
X0128409Y0179575D02*
X0128561Y0179577D01*
X0128712Y0179583D01*
X0128863Y0179592D01*
X0129015Y0179606D01*
X0129165Y0179623D01*
X0129315Y0179644D01*
X0129465Y0179669D01*
X0129614Y0179697D01*
X0129762Y0179730D01*
X0129909Y0179766D01*
X0130056Y0179805D01*
X0130201Y0179849D01*
X0130345Y0179896D01*
X0130488Y0179947D01*
X0130629Y0180001D01*
X0130770Y0180059D01*
X0130908Y0180120D01*
X0131045Y0180185D01*
X0131181Y0180254D01*
X0131314Y0180325D01*
X0131446Y0180400D01*
X0131576Y0180479D01*
X0131703Y0180560D01*
X0131829Y0180645D01*
X0131953Y0180733D01*
X0132074Y0180824D01*
X0132193Y0180918D01*
X0132309Y0181016D01*
X0132423Y0181116D01*
X0132535Y0181218D01*
X0132643Y0181324D01*
X0132749Y0181432D01*
X0132853Y0181543D01*
X0132953Y0181657D01*
X0133051Y0181773D01*
X0133145Y0181892D01*
X0103291Y0179732D02*
X0103139Y0179734D01*
X0102988Y0179740D01*
X0102837Y0179749D01*
X0102685Y0179763D01*
X0102535Y0179780D01*
X0102385Y0179801D01*
X0102235Y0179826D01*
X0102086Y0179854D01*
X0101938Y0179887D01*
X0101791Y0179923D01*
X0101644Y0179962D01*
X0101499Y0180006D01*
X0101355Y0180053D01*
X0101212Y0180104D01*
X0101071Y0180158D01*
X0100930Y0180216D01*
X0100792Y0180277D01*
X0100655Y0180342D01*
X0100519Y0180411D01*
X0100386Y0180482D01*
X0100254Y0180557D01*
X0100124Y0180636D01*
X0099997Y0180717D01*
X0099871Y0180802D01*
X0099747Y0180890D01*
X0099626Y0180981D01*
X0099507Y0181075D01*
X0099391Y0181173D01*
X0099277Y0181273D01*
X0099165Y0181375D01*
X0099057Y0181481D01*
X0098951Y0181589D01*
X0098847Y0181700D01*
X0098747Y0181814D01*
X0098649Y0181930D01*
X0098555Y0182049D01*
X0103291Y0191732D02*
X0103445Y0191730D01*
X0103599Y0191724D01*
X0103753Y0191714D01*
X0103907Y0191700D01*
X0104060Y0191683D01*
X0104212Y0191661D01*
X0104364Y0191635D01*
X0104516Y0191606D01*
X0104666Y0191572D01*
X0104816Y0191535D01*
X0104964Y0191494D01*
X0105112Y0191449D01*
X0105258Y0191400D01*
X0105403Y0191348D01*
X0105546Y0191292D01*
X0105689Y0191232D01*
X0105829Y0191169D01*
X0105968Y0191102D01*
X0106105Y0191031D01*
X0106240Y0190957D01*
X0106373Y0190880D01*
X0106505Y0190799D01*
X0106634Y0190715D01*
X0106761Y0190627D01*
X0106885Y0190536D01*
X0107007Y0190443D01*
X0107127Y0190345D01*
X0107244Y0190245D01*
X0107359Y0190142D01*
X0107471Y0190036D01*
X0107580Y0189928D01*
X0107686Y0189816D01*
X0107790Y0189702D01*
X0107890Y0189585D01*
X0107988Y0189466D01*
X0108082Y0189344D01*
X0108173Y0189219D01*
X0103291Y0191732D02*
X0103141Y0191730D01*
X0102990Y0191724D01*
X0102840Y0191715D01*
X0102691Y0191702D01*
X0102541Y0191685D01*
X0102392Y0191664D01*
X0102244Y0191640D01*
X0102096Y0191612D01*
X0101949Y0191580D01*
X0101803Y0191545D01*
X0101658Y0191505D01*
X0101514Y0191463D01*
X0101371Y0191416D01*
X0101229Y0191366D01*
X0101088Y0191313D01*
X0100949Y0191256D01*
X0100811Y0191196D01*
X0100675Y0191132D01*
X0100541Y0191065D01*
X0100408Y0190994D01*
X0100277Y0190920D01*
X0100148Y0190843D01*
X0100021Y0190762D01*
X0099896Y0190679D01*
X0099773Y0190592D01*
X0099652Y0190503D01*
X0099534Y0190410D01*
X0099418Y0190314D01*
X0099304Y0190216D01*
X0099193Y0190115D01*
X0099084Y0190010D01*
X0098979Y0189904D01*
X0098875Y0189794D01*
X0098775Y0189682D01*
X0098677Y0189568D01*
X0098583Y0189451D01*
X0098491Y0189332D01*
X0103291Y0179732D02*
X0103443Y0179734D01*
X0103594Y0179740D01*
X0103745Y0179749D01*
X0103897Y0179763D01*
X0104047Y0179780D01*
X0104197Y0179801D01*
X0104347Y0179826D01*
X0104496Y0179854D01*
X0104644Y0179887D01*
X0104791Y0179923D01*
X0104938Y0179962D01*
X0105083Y0180006D01*
X0105227Y0180053D01*
X0105370Y0180104D01*
X0105511Y0180158D01*
X0105652Y0180216D01*
X0105790Y0180277D01*
X0105927Y0180342D01*
X0106063Y0180411D01*
X0106196Y0180482D01*
X0106328Y0180557D01*
X0106458Y0180636D01*
X0106585Y0180717D01*
X0106711Y0180802D01*
X0106835Y0180890D01*
X0106956Y0180981D01*
X0107075Y0181075D01*
X0107191Y0181173D01*
X0107305Y0181273D01*
X0107417Y0181375D01*
X0107525Y0181481D01*
X0107631Y0181589D01*
X0107735Y0181700D01*
X0107835Y0181814D01*
X0107933Y0181930D01*
X0108027Y0182049D01*
X0080815Y0161264D02*
X0073315Y0161264D01*
X0073313Y0161138D01*
X0073307Y0161013D01*
X0073297Y0160888D01*
X0073283Y0160763D01*
X0073266Y0160638D01*
X0073244Y0160514D01*
X0073219Y0160391D01*
X0073189Y0160269D01*
X0073156Y0160148D01*
X0073119Y0160028D01*
X0073079Y0159909D01*
X0073034Y0159792D01*
X0072986Y0159675D01*
X0072934Y0159561D01*
X0072879Y0159448D01*
X0072820Y0159337D01*
X0072758Y0159228D01*
X0072692Y0159121D01*
X0072623Y0159016D01*
X0072551Y0158913D01*
X0072476Y0158812D01*
X0072397Y0158714D01*
X0072315Y0158619D01*
X0072231Y0158526D01*
X0072143Y0158436D01*
X0072053Y0158348D01*
X0071960Y0158264D01*
X0071865Y0158182D01*
X0071767Y0158103D01*
X0071666Y0158028D01*
X0071563Y0157956D01*
X0071458Y0157887D01*
X0071351Y0157821D01*
X0071242Y0157759D01*
X0071131Y0157700D01*
X0071018Y0157645D01*
X0070904Y0157593D01*
X0070787Y0157545D01*
X0070670Y0157500D01*
X0070551Y0157460D01*
X0070431Y0157423D01*
X0070310Y0157390D01*
X0070188Y0157360D01*
X0070065Y0157335D01*
X0069941Y0157313D01*
X0069816Y0157296D01*
X0069691Y0157282D01*
X0069566Y0157272D01*
X0069441Y0157266D01*
X0069315Y0157264D01*
X0069189Y0157266D01*
X0069064Y0157272D01*
X0068939Y0157282D01*
X0068814Y0157296D01*
X0068689Y0157313D01*
X0068565Y0157335D01*
X0068442Y0157360D01*
X0068320Y0157390D01*
X0068199Y0157423D01*
X0068079Y0157460D01*
X0067960Y0157500D01*
X0067843Y0157545D01*
X0067726Y0157593D01*
X0067612Y0157645D01*
X0067499Y0157700D01*
X0067388Y0157759D01*
X0067279Y0157821D01*
X0067172Y0157887D01*
X0067067Y0157956D01*
X0066964Y0158028D01*
X0066863Y0158103D01*
X0066765Y0158182D01*
X0066670Y0158264D01*
X0066577Y0158348D01*
X0066487Y0158436D01*
X0066399Y0158526D01*
X0066315Y0158619D01*
X0066233Y0158714D01*
X0066154Y0158812D01*
X0066079Y0158913D01*
X0066007Y0159016D01*
X0065938Y0159121D01*
X0065872Y0159228D01*
X0065810Y0159337D01*
X0065751Y0159448D01*
X0065696Y0159561D01*
X0065644Y0159675D01*
X0065596Y0159792D01*
X0065551Y0159909D01*
X0065511Y0160028D01*
X0065474Y0160148D01*
X0065441Y0160269D01*
X0065411Y0160391D01*
X0065386Y0160514D01*
X0065364Y0160638D01*
X0065347Y0160763D01*
X0065333Y0160888D01*
X0065323Y0161013D01*
X0065317Y0161138D01*
X0065315Y0161264D01*
X0057815Y0161264D01*
X0057815Y0021264D01*
X0080815Y0021264D01*
X0080815Y0161264D01*
X0040764Y0150303D02*
X0040764Y0148803D01*
X0040264Y0148303D01*
X0040264Y0129303D01*
X0040764Y0128803D01*
X0040764Y0127303D01*
X0040762Y0127243D01*
X0040757Y0127182D01*
X0040748Y0127123D01*
X0040735Y0127064D01*
X0040719Y0127005D01*
X0040699Y0126948D01*
X0040676Y0126893D01*
X0040649Y0126838D01*
X0040620Y0126786D01*
X0040587Y0126735D01*
X0040551Y0126686D01*
X0040513Y0126640D01*
X0040471Y0126596D01*
X0040427Y0126554D01*
X0040381Y0126516D01*
X0040332Y0126480D01*
X0040281Y0126447D01*
X0040229Y0126418D01*
X0040174Y0126391D01*
X0040119Y0126368D01*
X0040062Y0126348D01*
X0040003Y0126332D01*
X0039944Y0126319D01*
X0039885Y0126310D01*
X0039824Y0126305D01*
X0039764Y0126303D01*
X0032764Y0126303D01*
X0032704Y0126305D01*
X0032643Y0126310D01*
X0032584Y0126319D01*
X0032525Y0126332D01*
X0032466Y0126348D01*
X0032409Y0126368D01*
X0032354Y0126391D01*
X0032299Y0126418D01*
X0032247Y0126447D01*
X0032196Y0126480D01*
X0032147Y0126516D01*
X0032101Y0126554D01*
X0032057Y0126596D01*
X0032015Y0126640D01*
X0031977Y0126686D01*
X0031941Y0126735D01*
X0031908Y0126786D01*
X0031879Y0126838D01*
X0031852Y0126893D01*
X0031829Y0126948D01*
X0031809Y0127005D01*
X0031793Y0127064D01*
X0031780Y0127123D01*
X0031771Y0127182D01*
X0031766Y0127243D01*
X0031764Y0127303D01*
X0031764Y0128803D01*
X0032264Y0129303D01*
X0032264Y0148303D01*
X0031764Y0148803D01*
X0031764Y0150303D01*
X0031766Y0150363D01*
X0031771Y0150424D01*
X0031780Y0150483D01*
X0031793Y0150542D01*
X0031809Y0150601D01*
X0031829Y0150658D01*
X0031852Y0150713D01*
X0031879Y0150768D01*
X0031908Y0150820D01*
X0031941Y0150871D01*
X0031977Y0150920D01*
X0032015Y0150966D01*
X0032057Y0151010D01*
X0032101Y0151052D01*
X0032147Y0151090D01*
X0032196Y0151126D01*
X0032247Y0151159D01*
X0032299Y0151188D01*
X0032354Y0151215D01*
X0032409Y0151238D01*
X0032466Y0151258D01*
X0032525Y0151274D01*
X0032584Y0151287D01*
X0032643Y0151296D01*
X0032704Y0151301D01*
X0032764Y0151303D01*
X0039764Y0151303D01*
X0039824Y0151301D01*
X0039885Y0151296D01*
X0039944Y0151287D01*
X0040003Y0151274D01*
X0040062Y0151258D01*
X0040119Y0151238D01*
X0040174Y0151215D01*
X0040229Y0151188D01*
X0040281Y0151159D01*
X0040332Y0151126D01*
X0040381Y0151090D01*
X0040427Y0151052D01*
X0040471Y0151010D01*
X0040513Y0150966D01*
X0040551Y0150920D01*
X0040587Y0150871D01*
X0040620Y0150820D01*
X0040649Y0150768D01*
X0040676Y0150713D01*
X0040699Y0150658D01*
X0040719Y0150601D01*
X0040735Y0150542D01*
X0040748Y0150483D01*
X0040757Y0150424D01*
X0040762Y0150363D01*
X0040764Y0150303D01*
X0027142Y0149988D02*
X0027142Y0148488D01*
X0026642Y0147988D01*
X0026642Y0128988D01*
X0027142Y0128488D01*
X0027142Y0126988D01*
X0027140Y0126928D01*
X0027135Y0126867D01*
X0027126Y0126808D01*
X0027113Y0126749D01*
X0027097Y0126690D01*
X0027077Y0126633D01*
X0027054Y0126578D01*
X0027027Y0126523D01*
X0026998Y0126471D01*
X0026965Y0126420D01*
X0026929Y0126371D01*
X0026891Y0126325D01*
X0026849Y0126281D01*
X0026805Y0126239D01*
X0026759Y0126201D01*
X0026710Y0126165D01*
X0026659Y0126132D01*
X0026607Y0126103D01*
X0026552Y0126076D01*
X0026497Y0126053D01*
X0026440Y0126033D01*
X0026381Y0126017D01*
X0026322Y0126004D01*
X0026263Y0125995D01*
X0026202Y0125990D01*
X0026142Y0125988D01*
X0019142Y0125988D01*
X0019082Y0125990D01*
X0019021Y0125995D01*
X0018962Y0126004D01*
X0018903Y0126017D01*
X0018844Y0126033D01*
X0018787Y0126053D01*
X0018732Y0126076D01*
X0018677Y0126103D01*
X0018625Y0126132D01*
X0018574Y0126165D01*
X0018525Y0126201D01*
X0018479Y0126239D01*
X0018435Y0126281D01*
X0018393Y0126325D01*
X0018355Y0126371D01*
X0018319Y0126420D01*
X0018286Y0126471D01*
X0018257Y0126523D01*
X0018230Y0126578D01*
X0018207Y0126633D01*
X0018187Y0126690D01*
X0018171Y0126749D01*
X0018158Y0126808D01*
X0018149Y0126867D01*
X0018144Y0126928D01*
X0018142Y0126988D01*
X0018142Y0128488D01*
X0018642Y0128988D01*
X0018642Y0147988D01*
X0018142Y0148488D01*
X0018142Y0149988D01*
X0018144Y0150048D01*
X0018149Y0150109D01*
X0018158Y0150168D01*
X0018171Y0150227D01*
X0018187Y0150286D01*
X0018207Y0150343D01*
X0018230Y0150398D01*
X0018257Y0150453D01*
X0018286Y0150505D01*
X0018319Y0150556D01*
X0018355Y0150605D01*
X0018393Y0150651D01*
X0018435Y0150695D01*
X0018479Y0150737D01*
X0018525Y0150775D01*
X0018574Y0150811D01*
X0018625Y0150844D01*
X0018677Y0150873D01*
X0018732Y0150900D01*
X0018787Y0150923D01*
X0018844Y0150943D01*
X0018903Y0150959D01*
X0018962Y0150972D01*
X0019021Y0150981D01*
X0019082Y0150986D01*
X0019142Y0150988D01*
X0026142Y0150988D01*
X0026202Y0150986D01*
X0026263Y0150981D01*
X0026322Y0150972D01*
X0026381Y0150959D01*
X0026440Y0150943D01*
X0026497Y0150923D01*
X0026552Y0150900D01*
X0026607Y0150873D01*
X0026659Y0150844D01*
X0026710Y0150811D01*
X0026759Y0150775D01*
X0026805Y0150737D01*
X0026849Y0150695D01*
X0026891Y0150651D01*
X0026929Y0150605D01*
X0026965Y0150556D01*
X0026998Y0150505D01*
X0027027Y0150453D01*
X0027054Y0150398D01*
X0027077Y0150343D01*
X0027097Y0150286D01*
X0027113Y0150227D01*
X0027126Y0150168D01*
X0027135Y0150109D01*
X0027140Y0150048D01*
X0027142Y0149988D01*
X0101319Y0090748D02*
X0102819Y0090748D01*
X0102819Y0092248D01*
X0102819Y0090748D02*
X0104319Y0090748D01*
X0102819Y0090748D02*
X0102819Y0089248D01*
X0096819Y0097248D02*
X0096822Y0097518D01*
X0096832Y0097788D01*
X0096849Y0098057D01*
X0096872Y0098326D01*
X0096902Y0098595D01*
X0096938Y0098862D01*
X0096981Y0099129D01*
X0097030Y0099394D01*
X0097086Y0099658D01*
X0097149Y0099921D01*
X0097217Y0100182D01*
X0097293Y0100441D01*
X0097374Y0100698D01*
X0097462Y0100954D01*
X0097556Y0101207D01*
X0097656Y0101458D01*
X0097763Y0101706D01*
X0097875Y0101951D01*
X0097994Y0102194D01*
X0098118Y0102433D01*
X0098248Y0102670D01*
X0098384Y0102903D01*
X0098526Y0103133D01*
X0098673Y0103359D01*
X0098826Y0103582D01*
X0098984Y0103801D01*
X0099147Y0104016D01*
X0099316Y0104226D01*
X0099490Y0104433D01*
X0099669Y0104635D01*
X0099852Y0104833D01*
X0100041Y0105026D01*
X0100234Y0105215D01*
X0100432Y0105398D01*
X0100634Y0105577D01*
X0100841Y0105751D01*
X0101051Y0105920D01*
X0101266Y0106083D01*
X0101485Y0106241D01*
X0101708Y0106394D01*
X0101934Y0106541D01*
X0102164Y0106683D01*
X0102397Y0106819D01*
X0102634Y0106949D01*
X0102873Y0107073D01*
X0103116Y0107192D01*
X0103361Y0107304D01*
X0103609Y0107411D01*
X0103860Y0107511D01*
X0104113Y0107605D01*
X0104369Y0107693D01*
X0104626Y0107774D01*
X0104885Y0107850D01*
X0105146Y0107918D01*
X0105409Y0107981D01*
X0105673Y0108037D01*
X0105938Y0108086D01*
X0106205Y0108129D01*
X0106472Y0108165D01*
X0106741Y0108195D01*
X0107010Y0108218D01*
X0107279Y0108235D01*
X0107549Y0108245D01*
X0107819Y0108248D01*
X0108089Y0108245D01*
X0108359Y0108235D01*
X0108628Y0108218D01*
X0108897Y0108195D01*
X0109166Y0108165D01*
X0109433Y0108129D01*
X0109700Y0108086D01*
X0109965Y0108037D01*
X0110229Y0107981D01*
X0110492Y0107918D01*
X0110753Y0107850D01*
X0111012Y0107774D01*
X0111269Y0107693D01*
X0111525Y0107605D01*
X0111778Y0107511D01*
X0112029Y0107411D01*
X0112277Y0107304D01*
X0112522Y0107192D01*
X0112765Y0107073D01*
X0113004Y0106949D01*
X0113241Y0106819D01*
X0113474Y0106683D01*
X0113704Y0106541D01*
X0113930Y0106394D01*
X0114153Y0106241D01*
X0114372Y0106083D01*
X0114587Y0105920D01*
X0114797Y0105751D01*
X0115004Y0105577D01*
X0115206Y0105398D01*
X0115404Y0105215D01*
X0115597Y0105026D01*
X0115786Y0104833D01*
X0115969Y0104635D01*
X0116148Y0104433D01*
X0116322Y0104226D01*
X0116491Y0104016D01*
X0116654Y0103801D01*
X0116812Y0103582D01*
X0116965Y0103359D01*
X0117112Y0103133D01*
X0117254Y0102903D01*
X0117390Y0102670D01*
X0117520Y0102433D01*
X0117644Y0102194D01*
X0117763Y0101951D01*
X0117875Y0101706D01*
X0117982Y0101458D01*
X0118082Y0101207D01*
X0118176Y0100954D01*
X0118264Y0100698D01*
X0118345Y0100441D01*
X0118421Y0100182D01*
X0118489Y0099921D01*
X0118552Y0099658D01*
X0118608Y0099394D01*
X0118657Y0099129D01*
X0118700Y0098862D01*
X0118736Y0098595D01*
X0118766Y0098326D01*
X0118789Y0098057D01*
X0118806Y0097788D01*
X0118816Y0097518D01*
X0118819Y0097248D01*
X0118816Y0096978D01*
X0118806Y0096708D01*
X0118789Y0096439D01*
X0118766Y0096170D01*
X0118736Y0095901D01*
X0118700Y0095634D01*
X0118657Y0095367D01*
X0118608Y0095102D01*
X0118552Y0094838D01*
X0118489Y0094575D01*
X0118421Y0094314D01*
X0118345Y0094055D01*
X0118264Y0093798D01*
X0118176Y0093542D01*
X0118082Y0093289D01*
X0117982Y0093038D01*
X0117875Y0092790D01*
X0117763Y0092545D01*
X0117644Y0092302D01*
X0117520Y0092063D01*
X0117390Y0091826D01*
X0117254Y0091593D01*
X0117112Y0091363D01*
X0116965Y0091137D01*
X0116812Y0090914D01*
X0116654Y0090695D01*
X0116491Y0090480D01*
X0116322Y0090270D01*
X0116148Y0090063D01*
X0115969Y0089861D01*
X0115786Y0089663D01*
X0115597Y0089470D01*
X0115404Y0089281D01*
X0115206Y0089098D01*
X0115004Y0088919D01*
X0114797Y0088745D01*
X0114587Y0088576D01*
X0114372Y0088413D01*
X0114153Y0088255D01*
X0113930Y0088102D01*
X0113704Y0087955D01*
X0113474Y0087813D01*
X0113241Y0087677D01*
X0113004Y0087547D01*
X0112765Y0087423D01*
X0112522Y0087304D01*
X0112277Y0087192D01*
X0112029Y0087085D01*
X0111778Y0086985D01*
X0111525Y0086891D01*
X0111269Y0086803D01*
X0111012Y0086722D01*
X0110753Y0086646D01*
X0110492Y0086578D01*
X0110229Y0086515D01*
X0109965Y0086459D01*
X0109700Y0086410D01*
X0109433Y0086367D01*
X0109166Y0086331D01*
X0108897Y0086301D01*
X0108628Y0086278D01*
X0108359Y0086261D01*
X0108089Y0086251D01*
X0107819Y0086248D01*
X0107549Y0086251D01*
X0107279Y0086261D01*
X0107010Y0086278D01*
X0106741Y0086301D01*
X0106472Y0086331D01*
X0106205Y0086367D01*
X0105938Y0086410D01*
X0105673Y0086459D01*
X0105409Y0086515D01*
X0105146Y0086578D01*
X0104885Y0086646D01*
X0104626Y0086722D01*
X0104369Y0086803D01*
X0104113Y0086891D01*
X0103860Y0086985D01*
X0103609Y0087085D01*
X0103361Y0087192D01*
X0103116Y0087304D01*
X0102873Y0087423D01*
X0102634Y0087547D01*
X0102397Y0087677D01*
X0102164Y0087813D01*
X0101934Y0087955D01*
X0101708Y0088102D01*
X0101485Y0088255D01*
X0101266Y0088413D01*
X0101051Y0088576D01*
X0100841Y0088745D01*
X0100634Y0088919D01*
X0100432Y0089098D01*
X0100234Y0089281D01*
X0100041Y0089470D01*
X0099852Y0089663D01*
X0099669Y0089861D01*
X0099490Y0090063D01*
X0099316Y0090270D01*
X0099147Y0090480D01*
X0098984Y0090695D01*
X0098826Y0090914D01*
X0098673Y0091137D01*
X0098526Y0091363D01*
X0098384Y0091593D01*
X0098248Y0091826D01*
X0098118Y0092063D01*
X0097994Y0092302D01*
X0097875Y0092545D01*
X0097763Y0092790D01*
X0097656Y0093038D01*
X0097556Y0093289D01*
X0097462Y0093542D01*
X0097374Y0093798D01*
X0097293Y0094055D01*
X0097217Y0094314D01*
X0097149Y0094575D01*
X0097086Y0094838D01*
X0097030Y0095102D01*
X0096981Y0095367D01*
X0096938Y0095634D01*
X0096902Y0095901D01*
X0096872Y0096170D01*
X0096849Y0096439D01*
X0096832Y0096708D01*
X0096822Y0096978D01*
X0096819Y0097248D01*
X0127272Y0109823D02*
X0127272Y0082823D01*
X0127274Y0082763D01*
X0127279Y0082702D01*
X0127288Y0082643D01*
X0127301Y0082584D01*
X0127317Y0082525D01*
X0127337Y0082468D01*
X0127360Y0082413D01*
X0127387Y0082358D01*
X0127416Y0082306D01*
X0127449Y0082255D01*
X0127485Y0082206D01*
X0127523Y0082160D01*
X0127565Y0082116D01*
X0127609Y0082074D01*
X0127655Y0082036D01*
X0127704Y0082000D01*
X0127755Y0081967D01*
X0127807Y0081938D01*
X0127862Y0081911D01*
X0127917Y0081888D01*
X0127974Y0081868D01*
X0128033Y0081852D01*
X0128092Y0081839D01*
X0128151Y0081830D01*
X0128212Y0081825D01*
X0128272Y0081823D01*
X0138272Y0081823D01*
X0138332Y0081825D01*
X0138393Y0081830D01*
X0138452Y0081839D01*
X0138511Y0081852D01*
X0138570Y0081868D01*
X0138627Y0081888D01*
X0138682Y0081911D01*
X0138737Y0081938D01*
X0138789Y0081967D01*
X0138840Y0082000D01*
X0138889Y0082036D01*
X0138935Y0082074D01*
X0138979Y0082116D01*
X0139021Y0082160D01*
X0139059Y0082206D01*
X0139095Y0082255D01*
X0139128Y0082306D01*
X0139157Y0082358D01*
X0139184Y0082413D01*
X0139207Y0082468D01*
X0139227Y0082525D01*
X0139243Y0082584D01*
X0139256Y0082643D01*
X0139265Y0082702D01*
X0139270Y0082763D01*
X0139272Y0082823D01*
X0139272Y0109823D01*
X0139270Y0109883D01*
X0139265Y0109944D01*
X0139256Y0110003D01*
X0139243Y0110062D01*
X0139227Y0110121D01*
X0139207Y0110178D01*
X0139184Y0110233D01*
X0139157Y0110288D01*
X0139128Y0110340D01*
X0139095Y0110391D01*
X0139059Y0110440D01*
X0139021Y0110486D01*
X0138979Y0110530D01*
X0138935Y0110572D01*
X0138889Y0110610D01*
X0138840Y0110646D01*
X0138789Y0110679D01*
X0138737Y0110708D01*
X0138682Y0110735D01*
X0138627Y0110758D01*
X0138570Y0110778D01*
X0138511Y0110794D01*
X0138452Y0110807D01*
X0138393Y0110816D01*
X0138332Y0110821D01*
X0138272Y0110823D01*
X0128272Y0110823D01*
X0128212Y0110821D01*
X0128151Y0110816D01*
X0128092Y0110807D01*
X0128033Y0110794D01*
X0127974Y0110778D01*
X0127917Y0110758D01*
X0127862Y0110735D01*
X0127807Y0110708D01*
X0127755Y0110679D01*
X0127704Y0110646D01*
X0127655Y0110610D01*
X0127609Y0110572D01*
X0127565Y0110530D01*
X0127523Y0110486D01*
X0127485Y0110440D01*
X0127449Y0110391D01*
X0127416Y0110340D01*
X0127387Y0110288D01*
X0127360Y0110233D01*
X0127337Y0110178D01*
X0127317Y0110121D01*
X0127301Y0110062D01*
X0127288Y0110003D01*
X0127279Y0109944D01*
X0127274Y0109883D01*
X0127272Y0109823D01*
X0133272Y0102323D02*
X0133272Y0097523D01*
X0133272Y0095023D02*
X0133272Y0090323D01*
X0145157Y0046299D02*
X0118157Y0046299D01*
X0118097Y0046297D01*
X0118036Y0046292D01*
X0117977Y0046283D01*
X0117918Y0046270D01*
X0117859Y0046254D01*
X0117802Y0046234D01*
X0117747Y0046211D01*
X0117692Y0046184D01*
X0117640Y0046155D01*
X0117589Y0046122D01*
X0117540Y0046086D01*
X0117494Y0046048D01*
X0117450Y0046006D01*
X0117408Y0045962D01*
X0117370Y0045916D01*
X0117334Y0045867D01*
X0117301Y0045816D01*
X0117272Y0045764D01*
X0117245Y0045709D01*
X0117222Y0045654D01*
X0117202Y0045597D01*
X0117186Y0045538D01*
X0117173Y0045479D01*
X0117164Y0045420D01*
X0117159Y0045359D01*
X0117157Y0045299D01*
X0117157Y0035299D01*
X0117159Y0035239D01*
X0117164Y0035178D01*
X0117173Y0035119D01*
X0117186Y0035060D01*
X0117202Y0035001D01*
X0117222Y0034944D01*
X0117245Y0034889D01*
X0117272Y0034834D01*
X0117301Y0034782D01*
X0117334Y0034731D01*
X0117370Y0034682D01*
X0117408Y0034636D01*
X0117450Y0034592D01*
X0117494Y0034550D01*
X0117540Y0034512D01*
X0117589Y0034476D01*
X0117640Y0034443D01*
X0117692Y0034414D01*
X0117747Y0034387D01*
X0117802Y0034364D01*
X0117859Y0034344D01*
X0117918Y0034328D01*
X0117977Y0034315D01*
X0118036Y0034306D01*
X0118097Y0034301D01*
X0118157Y0034299D01*
X0145157Y0034299D01*
X0145217Y0034301D01*
X0145278Y0034306D01*
X0145337Y0034315D01*
X0145396Y0034328D01*
X0145455Y0034344D01*
X0145512Y0034364D01*
X0145567Y0034387D01*
X0145622Y0034414D01*
X0145674Y0034443D01*
X0145725Y0034476D01*
X0145774Y0034512D01*
X0145820Y0034550D01*
X0145864Y0034592D01*
X0145906Y0034636D01*
X0145944Y0034682D01*
X0145980Y0034731D01*
X0146013Y0034782D01*
X0146042Y0034834D01*
X0146069Y0034889D01*
X0146092Y0034944D01*
X0146112Y0035001D01*
X0146128Y0035060D01*
X0146141Y0035119D01*
X0146150Y0035178D01*
X0146155Y0035239D01*
X0146157Y0035299D01*
X0146157Y0045299D01*
X0146155Y0045359D01*
X0146150Y0045420D01*
X0146141Y0045479D01*
X0146128Y0045538D01*
X0146112Y0045597D01*
X0146092Y0045654D01*
X0146069Y0045709D01*
X0146042Y0045764D01*
X0146013Y0045816D01*
X0145980Y0045867D01*
X0145944Y0045916D01*
X0145906Y0045962D01*
X0145864Y0046006D01*
X0145820Y0046048D01*
X0145774Y0046086D01*
X0145725Y0046122D01*
X0145674Y0046155D01*
X0145622Y0046184D01*
X0145567Y0046211D01*
X0145512Y0046234D01*
X0145455Y0046254D01*
X0145396Y0046270D01*
X0145337Y0046283D01*
X0145278Y0046292D01*
X0145217Y0046297D01*
X0145157Y0046299D01*
X0137657Y0040299D02*
X0132857Y0040299D01*
X0130357Y0040299D02*
X0125657Y0040299D01*
X0038661Y0049803D02*
X0038661Y0022803D01*
X0038659Y0022743D01*
X0038654Y0022682D01*
X0038645Y0022623D01*
X0038632Y0022564D01*
X0038616Y0022505D01*
X0038596Y0022448D01*
X0038573Y0022393D01*
X0038546Y0022338D01*
X0038517Y0022286D01*
X0038484Y0022235D01*
X0038448Y0022186D01*
X0038410Y0022140D01*
X0038368Y0022096D01*
X0038324Y0022054D01*
X0038278Y0022016D01*
X0038229Y0021980D01*
X0038178Y0021947D01*
X0038126Y0021918D01*
X0038071Y0021891D01*
X0038016Y0021868D01*
X0037959Y0021848D01*
X0037900Y0021832D01*
X0037841Y0021819D01*
X0037782Y0021810D01*
X0037721Y0021805D01*
X0037661Y0021803D01*
X0027661Y0021803D01*
X0027601Y0021805D01*
X0027540Y0021810D01*
X0027481Y0021819D01*
X0027422Y0021832D01*
X0027363Y0021848D01*
X0027306Y0021868D01*
X0027251Y0021891D01*
X0027196Y0021918D01*
X0027144Y0021947D01*
X0027093Y0021980D01*
X0027044Y0022016D01*
X0026998Y0022054D01*
X0026954Y0022096D01*
X0026912Y0022140D01*
X0026874Y0022186D01*
X0026838Y0022235D01*
X0026805Y0022286D01*
X0026776Y0022338D01*
X0026749Y0022393D01*
X0026726Y0022448D01*
X0026706Y0022505D01*
X0026690Y0022564D01*
X0026677Y0022623D01*
X0026668Y0022682D01*
X0026663Y0022743D01*
X0026661Y0022803D01*
X0026661Y0049803D01*
X0026663Y0049863D01*
X0026668Y0049924D01*
X0026677Y0049983D01*
X0026690Y0050042D01*
X0026706Y0050101D01*
X0026726Y0050158D01*
X0026749Y0050213D01*
X0026776Y0050268D01*
X0026805Y0050320D01*
X0026838Y0050371D01*
X0026874Y0050420D01*
X0026912Y0050466D01*
X0026954Y0050510D01*
X0026998Y0050552D01*
X0027044Y0050590D01*
X0027093Y0050626D01*
X0027144Y0050659D01*
X0027196Y0050688D01*
X0027251Y0050715D01*
X0027306Y0050738D01*
X0027363Y0050758D01*
X0027422Y0050774D01*
X0027481Y0050787D01*
X0027540Y0050796D01*
X0027601Y0050801D01*
X0027661Y0050803D01*
X0037661Y0050803D01*
X0037721Y0050801D01*
X0037782Y0050796D01*
X0037841Y0050787D01*
X0037900Y0050774D01*
X0037959Y0050758D01*
X0038016Y0050738D01*
X0038071Y0050715D01*
X0038126Y0050688D01*
X0038178Y0050659D01*
X0038229Y0050626D01*
X0038278Y0050590D01*
X0038324Y0050552D01*
X0038368Y0050510D01*
X0038410Y0050466D01*
X0038448Y0050420D01*
X0038484Y0050371D01*
X0038517Y0050320D01*
X0038546Y0050268D01*
X0038573Y0050213D01*
X0038596Y0050158D01*
X0038616Y0050101D01*
X0038632Y0050042D01*
X0038645Y0049983D01*
X0038654Y0049924D01*
X0038659Y0049863D01*
X0038661Y0049803D01*
X0032661Y0042303D02*
X0032661Y0037603D01*
X0032661Y0035103D02*
X0032661Y0030303D01*
D17*
X0024314Y0039616D02*
X0021311Y0039616D01*
X0021311Y0035112D01*
X0019710Y0035112D02*
X0019710Y0038115D01*
X0021311Y0037364D02*
X0022813Y0037364D01*
X0019710Y0035112D02*
X0017458Y0035112D01*
X0016707Y0035863D01*
X0016707Y0038115D01*
X0015106Y0035112D02*
X0012104Y0035112D01*
X0013605Y0035112D02*
X0013605Y0039616D01*
X0012104Y0038115D01*
X0010552Y0035863D02*
X0009802Y0035863D01*
X0009802Y0035112D01*
X0010552Y0035112D01*
X0010552Y0035863D01*
X0008200Y0035863D02*
X0007450Y0035112D01*
X0005948Y0035112D01*
X0005198Y0035863D01*
X0008200Y0038865D01*
X0008200Y0035863D01*
X0005198Y0035863D02*
X0005198Y0038865D01*
X0005948Y0039616D01*
X0007450Y0039616D01*
X0008200Y0038865D01*
X0029380Y0075386D02*
X0029697Y0075386D01*
X0030014Y0075703D01*
X0030014Y0076336D01*
X0030331Y0076653D01*
X0030648Y0076653D01*
X0030965Y0076336D01*
X0030965Y0075703D01*
X0030648Y0075386D01*
X0030331Y0075386D01*
X0030014Y0075703D01*
X0030014Y0076336D02*
X0029697Y0076653D01*
X0029380Y0076653D01*
X0029063Y0076336D01*
X0029063Y0075703D01*
X0029380Y0075386D01*
X0029063Y0079805D02*
X0029697Y0080439D01*
X0029063Y0081073D01*
X0030965Y0081073D01*
X0030965Y0082015D02*
X0029063Y0082015D01*
X0030014Y0082015D02*
X0030014Y0083283D01*
X0029063Y0083283D02*
X0030965Y0083283D01*
X0030965Y0084225D02*
X0029697Y0085493D01*
X0029697Y0084225D01*
X0030965Y0084225D02*
X0030965Y0085493D01*
X0030965Y0079805D02*
X0029063Y0079805D01*
X0067061Y0078974D02*
X0068562Y0080476D01*
X0067061Y0081977D01*
X0071565Y0081977D01*
X0071565Y0083578D02*
X0067061Y0086581D01*
X0067812Y0088182D02*
X0067061Y0088933D01*
X0067061Y0090434D01*
X0067812Y0091185D01*
X0068562Y0091185D01*
X0071565Y0088182D01*
X0071565Y0091185D01*
X0070814Y0092786D02*
X0071565Y0093537D01*
X0071565Y0095038D01*
X0070814Y0095789D01*
X0069313Y0095789D01*
X0068562Y0095038D01*
X0068562Y0094287D01*
X0069313Y0092786D01*
X0067061Y0092786D01*
X0067061Y0095789D01*
X0067812Y0097390D02*
X0067061Y0098141D01*
X0067061Y0099642D01*
X0067812Y0100393D01*
X0070814Y0097390D01*
X0071565Y0098141D01*
X0071565Y0099642D01*
X0070814Y0100393D01*
X0067812Y0100393D01*
X0067061Y0101994D02*
X0067061Y0104997D01*
X0068562Y0106598D02*
X0067061Y0108099D01*
X0071565Y0108099D01*
X0071565Y0106598D02*
X0071565Y0109600D01*
X0071565Y0111202D02*
X0068562Y0114204D01*
X0067812Y0114204D01*
X0067061Y0113454D01*
X0067061Y0111952D01*
X0067812Y0111202D01*
X0071565Y0111202D02*
X0071565Y0114204D01*
X0070814Y0115806D02*
X0070064Y0115806D01*
X0069313Y0116556D01*
X0069313Y0118058D01*
X0070064Y0118808D01*
X0070814Y0118808D01*
X0071565Y0118058D01*
X0071565Y0116556D01*
X0070814Y0115806D01*
X0069313Y0116556D02*
X0068562Y0115806D01*
X0067812Y0115806D01*
X0067061Y0116556D01*
X0067061Y0118058D01*
X0067812Y0118808D01*
X0068562Y0118808D01*
X0069313Y0118058D01*
X0069313Y0120410D02*
X0069313Y0122662D01*
X0070064Y0123412D01*
X0070814Y0123412D01*
X0071565Y0122662D01*
X0071565Y0120410D01*
X0067061Y0120410D01*
X0067061Y0122662D01*
X0067812Y0123412D01*
X0068562Y0123412D01*
X0069313Y0122662D01*
X0069313Y0103495D02*
X0069313Y0101994D01*
X0071565Y0101994D02*
X0067061Y0101994D01*
X0067812Y0097390D02*
X0070814Y0097390D01*
X0071565Y0086581D02*
X0067061Y0083578D01*
X0067061Y0078974D02*
X0071565Y0078974D01*
X0071565Y0077373D02*
X0071565Y0074370D01*
X0068562Y0077373D01*
X0067812Y0077373D01*
X0067061Y0076622D01*
X0067061Y0075121D01*
X0067812Y0074370D01*
X0067812Y0072769D02*
X0068562Y0072769D01*
X0069313Y0072018D01*
X0070064Y0072769D01*
X0070814Y0072769D01*
X0071565Y0072018D01*
X0071565Y0070517D01*
X0070814Y0069767D01*
X0070814Y0068165D02*
X0071565Y0067415D01*
X0071565Y0065913D01*
X0070814Y0065163D01*
X0067812Y0065163D01*
X0067061Y0065913D01*
X0067061Y0067415D01*
X0067812Y0068165D01*
X0067812Y0069767D02*
X0067061Y0070517D01*
X0067061Y0072018D01*
X0067812Y0072769D01*
X0069313Y0072018D02*
X0069313Y0071268D01*
X0067061Y0063595D02*
X0067061Y0062093D01*
X0067061Y0062844D02*
X0071565Y0062844D01*
X0071565Y0062093D02*
X0071565Y0063595D01*
X0069313Y0060492D02*
X0070064Y0059741D01*
X0070064Y0057489D01*
X0071565Y0057489D02*
X0067061Y0057489D01*
X0067061Y0059741D01*
X0067812Y0060492D01*
X0069313Y0060492D01*
X0119383Y0051893D02*
X0119383Y0048890D01*
X0122385Y0051893D01*
X0122385Y0048890D01*
X0121635Y0048140D01*
X0120133Y0048140D01*
X0119383Y0048890D01*
X0119383Y0051893D02*
X0120133Y0052644D01*
X0121635Y0052644D01*
X0122385Y0051893D01*
X0123987Y0048890D02*
X0124737Y0048890D01*
X0124737Y0048140D01*
X0123987Y0048140D01*
X0123987Y0048890D01*
X0126289Y0048140D02*
X0129291Y0048140D01*
X0127790Y0048140D02*
X0127790Y0052644D01*
X0126289Y0051142D01*
X0130892Y0051142D02*
X0130892Y0048890D01*
X0131643Y0048140D01*
X0133895Y0048140D01*
X0133895Y0051142D01*
X0135496Y0050392D02*
X0136998Y0050392D01*
X0135496Y0052644D02*
X0138499Y0052644D01*
X0135496Y0052644D02*
X0135496Y0048140D01*
X0149473Y0107323D02*
X0151052Y0107323D01*
X0151679Y0112823D02*
X0168171Y0112823D01*
X0168798Y0107323D02*
X0170378Y0107323D01*
X0161052Y0107323D02*
X0158798Y0107323D01*
X0168171Y0112823D02*
X0168324Y0112624D01*
X0168472Y0112422D01*
X0168615Y0112217D01*
X0168753Y0112008D01*
X0168886Y0111796D01*
X0169014Y0111581D01*
X0169136Y0111363D01*
X0169254Y0111142D01*
X0169366Y0110918D01*
X0169473Y0110692D01*
X0169574Y0110463D01*
X0169670Y0110232D01*
X0169761Y0109998D01*
X0169846Y0109763D01*
X0169925Y0109525D01*
X0169998Y0109286D01*
X0170066Y0109045D01*
X0170128Y0108803D01*
X0170184Y0108559D01*
X0170235Y0108313D01*
X0170279Y0108067D01*
X0170318Y0107820D01*
X0170350Y0107572D01*
X0170377Y0107323D01*
X0156829Y0096290D02*
X0156587Y0096368D01*
X0156347Y0096452D01*
X0156109Y0096541D01*
X0155873Y0096637D01*
X0155639Y0096738D01*
X0155408Y0096844D01*
X0155180Y0096957D01*
X0154954Y0097074D01*
X0154731Y0097197D01*
X0154512Y0097326D01*
X0154295Y0097460D01*
X0154082Y0097599D01*
X0153872Y0097743D01*
X0153666Y0097892D01*
X0153464Y0098046D01*
X0153265Y0098205D01*
X0153070Y0098369D01*
X0152879Y0098538D01*
X0152693Y0098711D01*
X0152510Y0098888D01*
X0152332Y0099070D01*
X0152159Y0099256D01*
X0151990Y0099447D01*
X0151826Y0099641D01*
X0151666Y0099839D01*
X0151511Y0100041D01*
X0151362Y0100247D01*
X0151217Y0100456D01*
X0151077Y0100669D01*
X0150943Y0100885D01*
X0150814Y0101105D01*
X0150690Y0101327D01*
X0150571Y0101552D01*
X0150459Y0101780D01*
X0150351Y0102011D01*
X0150250Y0102244D01*
X0150154Y0102480D01*
X0150063Y0102718D01*
X0149979Y0102958D01*
X0149900Y0103200D01*
X0149827Y0103444D01*
X0149761Y0103690D01*
X0149700Y0103937D01*
X0149645Y0104185D01*
X0149596Y0104435D01*
X0149553Y0104686D01*
X0149517Y0104938D01*
X0149486Y0105190D01*
X0149462Y0105444D01*
X0149444Y0105697D01*
X0149432Y0105952D01*
X0149426Y0106206D01*
X0149426Y0106461D01*
X0149432Y0106715D01*
X0149445Y0106969D01*
X0149464Y0107223D01*
X0149489Y0107476D01*
X0149520Y0107729D01*
X0149557Y0107981D01*
X0149600Y0108231D01*
X0149649Y0108481D01*
X0149704Y0108730D01*
X0149766Y0108977D01*
X0149833Y0109222D01*
X0149906Y0109466D01*
X0149985Y0109708D01*
X0150070Y0109947D01*
X0150161Y0110185D01*
X0150258Y0110421D01*
X0150360Y0110654D01*
X0150468Y0110884D01*
X0150581Y0111112D01*
X0150700Y0111337D01*
X0150824Y0111559D01*
X0150953Y0111778D01*
X0151088Y0111994D01*
X0151228Y0112207D01*
X0151374Y0112416D01*
X0151524Y0112621D01*
X0151679Y0112823D01*
X0144477Y0117144D02*
X0141474Y0117144D01*
X0141474Y0112640D01*
X0139873Y0112640D02*
X0139873Y0115642D01*
X0141474Y0114892D02*
X0142975Y0114892D01*
X0139873Y0112640D02*
X0137621Y0112640D01*
X0136870Y0113390D01*
X0136870Y0115642D01*
X0135269Y0112640D02*
X0132266Y0112640D01*
X0133767Y0112640D02*
X0133767Y0117144D01*
X0132266Y0115642D01*
X0130715Y0113390D02*
X0130715Y0112640D01*
X0129964Y0112640D01*
X0129964Y0113390D01*
X0130715Y0113390D01*
X0128363Y0113390D02*
X0127612Y0112640D01*
X0126111Y0112640D01*
X0125360Y0113390D01*
X0128363Y0116393D01*
X0128363Y0113390D01*
X0125360Y0113390D02*
X0125360Y0116393D01*
X0126111Y0117144D01*
X0127612Y0117144D01*
X0128363Y0116393D01*
X0114015Y0114785D02*
X0111012Y0114785D01*
X0111012Y0110281D01*
X0109411Y0110281D02*
X0109411Y0113284D01*
X0111012Y0112533D02*
X0112513Y0112533D01*
X0109411Y0110281D02*
X0107159Y0110281D01*
X0106408Y0111032D01*
X0106408Y0113284D01*
X0104807Y0114035D02*
X0104807Y0111032D01*
X0104056Y0110281D01*
X0102555Y0110281D01*
X0101804Y0111032D01*
X0104807Y0114035D01*
X0104056Y0114785D01*
X0102555Y0114785D01*
X0101804Y0114035D01*
X0101804Y0111032D01*
X0100203Y0110281D02*
X0097200Y0110281D01*
X0098702Y0110281D02*
X0098702Y0114785D01*
X0097200Y0113284D01*
X0098808Y0133703D02*
X0098057Y0134453D01*
X0101060Y0137456D01*
X0101060Y0134453D01*
X0100309Y0133703D01*
X0098808Y0133703D01*
X0098057Y0134453D02*
X0098057Y0137456D01*
X0098808Y0138207D01*
X0100309Y0138207D01*
X0101060Y0137456D01*
X0102661Y0134453D02*
X0103412Y0134453D01*
X0103412Y0133703D01*
X0102661Y0133703D01*
X0102661Y0134453D01*
X0104963Y0133703D02*
X0107966Y0133703D01*
X0106464Y0133703D02*
X0106464Y0138207D01*
X0104963Y0136705D01*
X0109567Y0136705D02*
X0109567Y0134453D01*
X0110318Y0133703D01*
X0112569Y0133703D01*
X0112569Y0136705D01*
X0114171Y0135955D02*
X0115672Y0135955D01*
X0114171Y0138207D02*
X0117173Y0138207D01*
X0114171Y0138207D02*
X0114171Y0133703D01*
X0123772Y0140918D02*
X0126775Y0143921D01*
X0126775Y0140918D01*
X0126024Y0140167D01*
X0124523Y0140167D01*
X0123772Y0140918D01*
X0123772Y0143921D01*
X0124523Y0144671D01*
X0126024Y0144671D01*
X0126775Y0143921D01*
X0128376Y0140918D02*
X0129127Y0140918D01*
X0129127Y0140167D01*
X0128376Y0140167D01*
X0128376Y0140918D01*
X0130678Y0140167D02*
X0133681Y0140167D01*
X0132180Y0140167D02*
X0132180Y0144671D01*
X0130678Y0143170D01*
X0135282Y0143170D02*
X0135282Y0140918D01*
X0136033Y0140167D01*
X0138285Y0140167D01*
X0138285Y0143170D01*
X0139886Y0142419D02*
X0141387Y0142419D01*
X0139886Y0140167D02*
X0139886Y0144671D01*
X0142889Y0144671D01*
X0160321Y0138131D02*
X0161822Y0139632D01*
X0161822Y0135128D01*
X0160321Y0135128D02*
X0163323Y0135128D01*
X0164925Y0135879D02*
X0167927Y0138881D01*
X0167927Y0135879D01*
X0167177Y0135128D01*
X0165675Y0135128D01*
X0164925Y0135879D01*
X0164925Y0138881D01*
X0165675Y0139632D01*
X0167177Y0139632D01*
X0167927Y0138881D01*
X0169529Y0138131D02*
X0169529Y0135879D01*
X0170279Y0135128D01*
X0172531Y0135128D01*
X0172531Y0138131D01*
X0174133Y0137380D02*
X0175634Y0137380D01*
X0174133Y0139632D02*
X0177135Y0139632D01*
X0174133Y0139632D02*
X0174133Y0135128D01*
X0170377Y0107323D02*
X0170399Y0107068D01*
X0170414Y0106812D01*
X0170422Y0106556D01*
X0170425Y0106299D01*
X0170421Y0106043D01*
X0170411Y0105787D01*
X0170395Y0105531D01*
X0170373Y0105276D01*
X0170344Y0105021D01*
X0170309Y0104767D01*
X0170268Y0104514D01*
X0170221Y0104262D01*
X0170167Y0104012D01*
X0170108Y0103763D01*
X0170042Y0103515D01*
X0169971Y0103269D01*
X0169893Y0103024D01*
X0169810Y0102782D01*
X0169721Y0102542D01*
X0169625Y0102304D01*
X0169524Y0102068D01*
X0169418Y0101835D01*
X0169305Y0101605D01*
X0169187Y0101377D01*
X0169064Y0101153D01*
X0168935Y0100931D01*
X0168801Y0100713D01*
X0168661Y0100498D01*
X0168516Y0100287D01*
X0168366Y0100079D01*
X0168212Y0099875D01*
X0168052Y0099674D01*
X0167887Y0099478D01*
X0167718Y0099286D01*
X0167543Y0099097D01*
X0167365Y0098914D01*
X0167182Y0098734D01*
X0166994Y0098559D01*
X0166803Y0098389D01*
X0166607Y0098224D01*
X0166407Y0098063D01*
X0166204Y0097907D01*
X0165997Y0097757D01*
X0165786Y0097611D01*
X0165571Y0097470D01*
X0165354Y0097335D01*
X0165133Y0097205D01*
X0164909Y0097081D01*
X0164682Y0096962D01*
X0164452Y0096849D01*
X0164219Y0096741D01*
X0163984Y0096639D01*
X0163746Y0096543D01*
X0163507Y0096453D01*
X0163265Y0096368D01*
X0163021Y0096290D01*
X0164397Y0171179D02*
X0163647Y0171930D01*
X0164397Y0171179D02*
X0165899Y0171179D01*
X0166649Y0171930D01*
X0166649Y0172680D01*
X0165899Y0173431D01*
X0165148Y0173431D01*
X0165899Y0173431D02*
X0166649Y0174182D01*
X0166649Y0174932D01*
X0165899Y0175683D01*
X0164397Y0175683D01*
X0163647Y0174932D01*
X0162045Y0174932D02*
X0162045Y0174182D01*
X0161295Y0173431D01*
X0162045Y0172680D01*
X0162045Y0171930D01*
X0161295Y0171179D01*
X0159794Y0171179D01*
X0159043Y0171930D01*
X0160544Y0173431D02*
X0161295Y0173431D01*
X0162045Y0174932D02*
X0161295Y0175683D01*
X0159794Y0175683D01*
X0159043Y0174932D01*
X0168251Y0174932D02*
X0168251Y0171930D01*
X0171253Y0174932D01*
X0171253Y0171930D01*
X0170503Y0171179D01*
X0169001Y0171179D01*
X0168251Y0171930D01*
X0168251Y0174932D02*
X0169001Y0175683D01*
X0170503Y0175683D01*
X0171253Y0174932D01*
X0170483Y0187911D02*
X0168982Y0187911D01*
X0168231Y0188662D01*
X0171234Y0191665D01*
X0171234Y0188662D01*
X0170483Y0187911D01*
X0168231Y0188662D02*
X0168231Y0191665D01*
X0168982Y0192415D01*
X0170483Y0192415D01*
X0171234Y0191665D01*
X0166630Y0191665D02*
X0166630Y0190914D01*
X0165879Y0190163D01*
X0166630Y0189413D01*
X0166630Y0188662D01*
X0165879Y0187911D01*
X0164378Y0187911D01*
X0163627Y0188662D01*
X0162026Y0188662D02*
X0161275Y0187911D01*
X0159774Y0187911D01*
X0159023Y0188662D01*
X0160525Y0190163D02*
X0161275Y0190163D01*
X0162026Y0189413D01*
X0162026Y0188662D01*
X0161275Y0190163D02*
X0162026Y0190914D01*
X0162026Y0191665D01*
X0161275Y0192415D01*
X0159774Y0192415D01*
X0159023Y0191665D01*
X0163627Y0191665D02*
X0164378Y0192415D01*
X0165879Y0192415D01*
X0166630Y0191665D01*
X0165879Y0190163D02*
X0165128Y0190163D01*
X0132196Y0175384D02*
X0132196Y0170880D01*
X0129944Y0170880D01*
X0129193Y0171631D01*
X0129193Y0173132D01*
X0129944Y0173882D01*
X0132196Y0173882D01*
X0127592Y0173132D02*
X0127592Y0172381D01*
X0124589Y0172381D01*
X0124589Y0171631D02*
X0124589Y0173132D01*
X0125340Y0173882D01*
X0126841Y0173882D01*
X0127592Y0173132D01*
X0126841Y0170880D02*
X0125340Y0170880D01*
X0124589Y0171631D01*
X0122988Y0170880D02*
X0121487Y0172381D01*
X0122237Y0172381D02*
X0119985Y0172381D01*
X0119985Y0170880D02*
X0119985Y0175384D01*
X0122237Y0175384D01*
X0122988Y0174633D01*
X0122988Y0173132D01*
X0122237Y0172381D01*
X0114862Y0173171D02*
X0114862Y0170919D01*
X0114862Y0173171D02*
X0114111Y0173922D01*
X0111859Y0173922D01*
X0111859Y0170919D01*
X0110258Y0172421D02*
X0107255Y0172421D01*
X0107255Y0173171D02*
X0108006Y0173922D01*
X0109507Y0173922D01*
X0110258Y0173171D01*
X0110258Y0172421D01*
X0109507Y0170919D02*
X0108006Y0170919D01*
X0107255Y0171670D01*
X0107255Y0173171D01*
X0105654Y0173171D02*
X0104903Y0173922D01*
X0103402Y0173922D01*
X0102651Y0173171D01*
X0102651Y0171670D01*
X0103402Y0170919D01*
X0104903Y0170919D01*
X0105654Y0172421D02*
X0102651Y0172421D01*
X0101066Y0173922D02*
X0100316Y0173922D01*
X0098815Y0172421D01*
X0098815Y0173922D02*
X0098815Y0170919D01*
X0097213Y0171670D02*
X0097213Y0173171D01*
X0095712Y0173171D01*
X0097213Y0171670D02*
X0096463Y0170919D01*
X0094961Y0170919D01*
X0094211Y0171670D01*
X0094211Y0174672D01*
X0094961Y0175423D01*
X0096463Y0175423D01*
X0097213Y0174672D01*
X0105654Y0173171D02*
X0105654Y0172421D01*
X0076464Y0194939D02*
X0075196Y0194939D01*
X0075830Y0194939D02*
X0075830Y0193037D01*
X0074254Y0193037D02*
X0072986Y0193037D01*
X0072986Y0194939D01*
X0074254Y0194939D01*
X0073620Y0193988D02*
X0072986Y0193988D01*
X0072044Y0193671D02*
X0072044Y0193354D01*
X0071727Y0193037D01*
X0071093Y0193037D01*
X0070776Y0193354D01*
X0071093Y0193988D02*
X0071727Y0193988D01*
X0072044Y0193671D01*
X0072044Y0194622D02*
X0071727Y0194939D01*
X0071093Y0194939D01*
X0070776Y0194622D01*
X0070776Y0194305D01*
X0071093Y0193988D01*
X0069834Y0193037D02*
X0068566Y0193037D01*
X0068566Y0194939D01*
X0069834Y0194939D01*
X0069200Y0193988D02*
X0068566Y0193988D01*
X0067624Y0193988D02*
X0067307Y0193671D01*
X0066356Y0193671D01*
X0066356Y0193037D02*
X0066356Y0194939D01*
X0067307Y0194939D01*
X0067624Y0194622D01*
X0067624Y0193988D01*
X0066990Y0193671D02*
X0067624Y0193037D01*
X0039372Y0193057D02*
X0038738Y0193691D01*
X0039055Y0193691D02*
X0038104Y0193691D01*
X0038104Y0193057D02*
X0038104Y0194959D01*
X0039055Y0194959D01*
X0039372Y0194642D01*
X0039372Y0194008D01*
X0039055Y0193691D01*
X0037162Y0193057D02*
X0035894Y0193057D01*
X0035894Y0194959D01*
X0037162Y0194959D01*
X0036528Y0194008D02*
X0035894Y0194008D01*
X0034952Y0193691D02*
X0034635Y0194008D01*
X0034001Y0194008D01*
X0033684Y0194325D01*
X0033684Y0194642D01*
X0034001Y0194959D01*
X0034635Y0194959D01*
X0034952Y0194642D01*
X0034952Y0193691D02*
X0034952Y0193374D01*
X0034635Y0193057D01*
X0034001Y0193057D01*
X0033684Y0193374D01*
X0032742Y0193374D02*
X0032742Y0194959D01*
X0031474Y0194959D02*
X0031474Y0193374D01*
X0031791Y0193057D01*
X0032425Y0193057D01*
X0032742Y0193374D01*
X0024892Y0144448D02*
X0023390Y0142196D01*
X0021889Y0144448D01*
X0020388Y0142196D02*
X0024892Y0142196D01*
X0024141Y0140594D02*
X0024892Y0139844D01*
X0024892Y0138342D01*
X0024141Y0137592D01*
X0021139Y0140594D01*
X0024141Y0140594D01*
X0024141Y0137592D02*
X0021139Y0137592D01*
X0020388Y0138342D01*
X0020388Y0139844D01*
X0021139Y0140594D01*
X0024892Y0135990D02*
X0024892Y0132988D01*
X0024892Y0134489D02*
X0020388Y0134489D01*
X0021889Y0132988D01*
X0033813Y0132571D02*
X0038317Y0132571D01*
X0038317Y0131070D02*
X0038317Y0134073D01*
X0037566Y0135674D02*
X0038317Y0136425D01*
X0038317Y0137926D01*
X0037566Y0138677D01*
X0034564Y0138677D01*
X0037566Y0135674D01*
X0034564Y0135674D01*
X0033813Y0136425D01*
X0033813Y0137926D01*
X0034564Y0138677D01*
X0033813Y0140278D02*
X0038317Y0140278D01*
X0036816Y0140278D02*
X0038317Y0142530D01*
X0036816Y0140278D02*
X0035314Y0142530D01*
X0033813Y0132571D02*
X0035314Y0131070D01*
D18*
X0036264Y0124603D03*
X0022642Y0124288D03*
X0022642Y0152688D03*
X0036264Y0153003D03*
D19*
X0152753Y0173429D03*
X0152733Y0190260D03*
X0181133Y0190260D03*
X0181153Y0173429D03*
D20*
X0086008Y0181146D02*
X0086008Y0186146D01*
X0078508Y0196146D01*
X0063508Y0196146D01*
X0056008Y0186146D01*
X0056008Y0181146D01*
X0063508Y0171146D01*
X0078508Y0171146D01*
X0086008Y0181146D01*
X0050535Y0181067D02*
X0050535Y0186067D01*
X0043035Y0196067D01*
X0028035Y0196067D01*
X0020535Y0186067D01*
X0020535Y0181067D01*
X0028035Y0171067D01*
X0043035Y0171067D01*
X0050535Y0181067D01*
X0011500Y0179000D02*
X0011500Y0174000D01*
X0009000Y0171500D01*
X0011500Y0169000D01*
X0011500Y0164000D01*
X0009000Y0161500D01*
X0011500Y0159000D01*
X0011500Y0154000D01*
X0009000Y0151500D01*
X0011500Y0149000D01*
X0011500Y0144000D01*
X0009000Y0141500D01*
X0004000Y0141500D01*
X0001500Y0144000D01*
X0001500Y0149000D01*
X0004000Y0151500D01*
X0001500Y0154000D01*
X0001500Y0159000D01*
X0004000Y0161500D01*
X0001500Y0164000D01*
X0001500Y0169000D01*
X0004000Y0171500D01*
X0001500Y0174000D01*
X0001500Y0179000D01*
X0004000Y0181500D01*
X0001500Y0184000D01*
X0001500Y0189000D01*
X0004000Y0191500D01*
X0009000Y0191500D01*
X0011500Y0189000D01*
X0011500Y0184000D01*
X0009000Y0181500D01*
X0011500Y0179000D01*
X0034315Y0086185D02*
X0031815Y0083685D01*
X0031815Y0078685D01*
X0034315Y0076185D01*
X0031815Y0073685D01*
X0031815Y0068685D01*
X0034315Y0066185D01*
X0031815Y0063685D01*
X0031815Y0058685D01*
X0034315Y0056185D01*
X0039315Y0056185D01*
X0041815Y0058685D01*
X0041815Y0063685D01*
X0039315Y0066185D01*
X0041815Y0068685D01*
X0041815Y0073685D01*
X0039315Y0076185D01*
X0041815Y0078685D01*
X0041815Y0083685D01*
X0039315Y0086185D01*
X0034315Y0086185D01*
D21*
X0116854Y0026362D02*
X0116854Y0009433D01*
X0150713Y0009433D01*
X0150713Y0026362D01*
X0116854Y0026362D01*
X0133783Y0010024D02*
X0133783Y0002150D01*
X0141657Y0002150D01*
X0141657Y0010024D01*
M02*
