G75*
%MOIN*%
%OFA0B0*%
%FSLAX25Y25*%
%IPPOS*%
%LPD*%
%AMOC8*
5,1,8,0,0,1.08239X$1,22.5*
%
%ADD10C,0.00000*%
%ADD11OC8,0.05200*%
%ADD12OC8,0.06300*%
%ADD13C,0.06300*%
%ADD14C,0.05200*%
%ADD15C,0.07400*%
%ADD16C,0.05150*%
%ADD17C,0.11220*%
%ADD18C,0.05937*%
%ADD19C,0.01000*%
%ADD20C,0.01600*%
%ADD21C,0.03562*%
D10*
X0001500Y0001500D02*
X0001500Y0198350D01*
X0198350Y0198350D01*
X0198350Y0001500D01*
X0001500Y0001500D01*
D11*
X0032661Y0026303D03*
X0032661Y0046303D03*
X0036264Y0118803D03*
X0022642Y0118488D03*
X0022642Y0158488D03*
X0036264Y0158803D03*
X0098291Y0185732D03*
X0108291Y0185732D03*
X0123409Y0185575D03*
X0133409Y0185575D03*
X0146933Y0190260D03*
X0146953Y0173429D03*
X0145457Y0152898D03*
X0125457Y0152898D03*
X0105476Y0144098D03*
X0105476Y0164098D03*
X0133272Y0106323D03*
X0133272Y0086323D03*
X0154925Y0106323D03*
X0159925Y0098823D03*
X0164925Y0106323D03*
X0141657Y0040299D03*
X0121657Y0040299D03*
X0186953Y0173429D03*
X0186933Y0190260D03*
D12*
X0172386Y0152661D03*
X0107819Y0102248D03*
D13*
X0107819Y0092248D03*
X0162386Y0152661D03*
D14*
X0086915Y0156264D02*
X0081715Y0156264D01*
X0081715Y0146264D02*
X0086915Y0146264D01*
X0086915Y0136264D02*
X0081715Y0136264D01*
X0081715Y0126264D02*
X0086915Y0126264D01*
X0086915Y0116264D02*
X0081715Y0116264D01*
X0081715Y0106264D02*
X0086915Y0106264D01*
X0086915Y0096264D02*
X0081715Y0096264D01*
X0081715Y0086264D02*
X0086915Y0086264D01*
X0086915Y0076264D02*
X0081715Y0076264D01*
X0081715Y0066264D02*
X0086915Y0066264D01*
X0086915Y0056264D02*
X0081715Y0056264D01*
X0081715Y0046264D02*
X0086915Y0046264D01*
X0086915Y0036264D02*
X0081715Y0036264D01*
X0081715Y0026264D02*
X0086915Y0026264D01*
X0056915Y0026264D02*
X0051715Y0026264D01*
X0051715Y0036264D02*
X0056915Y0036264D01*
X0056915Y0046264D02*
X0051715Y0046264D01*
X0051715Y0056264D02*
X0056915Y0056264D01*
X0056915Y0066264D02*
X0051715Y0066264D01*
X0051715Y0076264D02*
X0056915Y0076264D01*
X0056915Y0086264D02*
X0051715Y0086264D01*
X0051715Y0096264D02*
X0056915Y0096264D01*
X0056915Y0106264D02*
X0051715Y0106264D01*
X0051715Y0116264D02*
X0056915Y0116264D01*
X0056915Y0126264D02*
X0051715Y0126264D01*
X0051715Y0136264D02*
X0056915Y0136264D01*
X0056915Y0146264D02*
X0051715Y0146264D01*
X0051715Y0156264D02*
X0056915Y0156264D01*
D15*
X0061008Y0183646D03*
X0045535Y0183567D03*
X0025535Y0183567D03*
X0006500Y0186500D03*
X0006500Y0176500D03*
X0006500Y0166500D03*
X0006500Y0156500D03*
X0006500Y0146500D03*
X0006500Y0136500D03*
X0006500Y0126500D03*
X0006500Y0116500D03*
X0006500Y0106500D03*
X0006500Y0096500D03*
X0006500Y0086500D03*
X0006500Y0076500D03*
X0006500Y0066500D03*
X0036815Y0071185D03*
X0036815Y0061185D03*
X0036815Y0081185D03*
X0081008Y0183646D03*
X0193500Y0136500D03*
X0193500Y0126500D03*
X0193500Y0116500D03*
X0193500Y0106500D03*
X0193500Y0096500D03*
X0193500Y0086500D03*
X0193500Y0076500D03*
X0193500Y0066500D03*
D16*
X0165220Y0039276D03*
X0160496Y0042425D03*
X0160496Y0036126D03*
X0165220Y0032976D03*
X0160496Y0029827D03*
X0141657Y0017898D03*
X0133783Y0017898D03*
X0125909Y0017898D03*
D17*
X0180575Y0021756D03*
X0180575Y0050496D03*
D18*
X0149531Y0017898D03*
X0118035Y0017898D03*
D19*
X0121221Y0014481D02*
X0123281Y0014481D01*
X0123488Y0014274D02*
X0125059Y0013623D01*
X0126760Y0013623D01*
X0128331Y0014274D01*
X0129533Y0015476D01*
X0129846Y0016232D01*
X0130159Y0015476D01*
X0131362Y0014274D01*
X0132933Y0013623D01*
X0134634Y0013623D01*
X0136205Y0014274D01*
X0137407Y0015476D01*
X0137720Y0016232D01*
X0138033Y0015476D01*
X0139236Y0014274D01*
X0140807Y0013623D01*
X0142508Y0013623D01*
X0144079Y0014274D01*
X0145281Y0015476D01*
X0145381Y0015717D01*
X0145574Y0015253D01*
X0146887Y0013940D01*
X0148603Y0013229D01*
X0150460Y0013229D01*
X0152176Y0013940D01*
X0153489Y0015253D01*
X0154200Y0016969D01*
X0154200Y0018826D01*
X0153489Y0020542D01*
X0152303Y0021728D01*
X0152323Y0021741D01*
X0152569Y0021741D01*
X0153059Y0022231D01*
X0158659Y0025961D01*
X0159646Y0025552D01*
X0161346Y0025552D01*
X0161554Y0025638D01*
X0163473Y0023719D01*
X0164762Y0022430D01*
X0172982Y0022430D01*
X0173265Y0022712D01*
X0173265Y0020302D01*
X0174377Y0017615D01*
X0176434Y0015559D01*
X0179121Y0014446D01*
X0182029Y0014446D01*
X0184716Y0015559D01*
X0186772Y0017615D01*
X0187885Y0020302D01*
X0187885Y0023210D01*
X0186772Y0025897D01*
X0184716Y0027953D01*
X0182029Y0029066D01*
X0179618Y0029066D01*
X0184104Y0033552D01*
X0185393Y0034841D01*
X0185393Y0034939D01*
X0191683Y0041229D01*
X0192972Y0042518D01*
X0192972Y0061319D01*
X0193000Y0061314D01*
X0193000Y0066000D01*
X0194000Y0066000D01*
X0194000Y0061314D01*
X0194718Y0061428D01*
X0195496Y0061681D01*
X0196225Y0062053D01*
X0196650Y0062361D01*
X0196650Y0003200D01*
X0003200Y0003200D01*
X0003200Y0062470D01*
X0003775Y0062053D01*
X0004504Y0061681D01*
X0005282Y0061428D01*
X0006000Y0061314D01*
X0006000Y0066000D01*
X0007000Y0066000D01*
X0007000Y0067000D01*
X0011686Y0067000D01*
X0011572Y0067718D01*
X0011319Y0068496D01*
X0010947Y0069225D01*
X0010466Y0069888D01*
X0009888Y0070466D01*
X0009225Y0070947D01*
X0008496Y0071319D01*
X0008276Y0071391D01*
X0009559Y0071922D01*
X0011078Y0073441D01*
X0011434Y0074300D01*
X0017411Y0074300D01*
X0042411Y0099300D01*
X0043700Y0100589D01*
X0043700Y0114478D01*
X0040564Y0117614D01*
X0040564Y0120584D01*
X0038045Y0123103D01*
X0034483Y0123103D01*
X0031964Y0120584D01*
X0031964Y0117022D01*
X0034483Y0114503D01*
X0037452Y0114503D01*
X0039300Y0112656D01*
X0039300Y0102411D01*
X0015589Y0078700D01*
X0011434Y0078700D01*
X0011078Y0079559D01*
X0009559Y0081078D01*
X0008540Y0081500D01*
X0009559Y0081922D01*
X0011078Y0083441D01*
X0011900Y0085426D01*
X0011900Y0087574D01*
X0011078Y0089559D01*
X0009559Y0091078D01*
X0008540Y0091500D01*
X0009559Y0091922D01*
X0011078Y0093441D01*
X0011434Y0094300D01*
X0017411Y0094300D01*
X0031130Y0108019D01*
X0032192Y0108019D01*
X0033472Y0108549D01*
X0034451Y0109528D01*
X0034981Y0110808D01*
X0034981Y0112192D01*
X0034451Y0113472D01*
X0033472Y0114451D01*
X0032192Y0114981D01*
X0030808Y0114981D01*
X0029528Y0114451D01*
X0028549Y0113472D01*
X0028019Y0112192D01*
X0028019Y0111130D01*
X0015589Y0098700D01*
X0011434Y0098700D01*
X0011078Y0099559D01*
X0009559Y0101078D01*
X0008540Y0101500D01*
X0009559Y0101922D01*
X0011078Y0103441D01*
X0011900Y0105426D01*
X0011900Y0107574D01*
X0011078Y0109559D01*
X0009559Y0111078D01*
X0008540Y0111500D01*
X0009559Y0111922D01*
X0011078Y0113441D01*
X0011900Y0115426D01*
X0011900Y0117574D01*
X0011078Y0119559D01*
X0009559Y0121078D01*
X0008540Y0121500D01*
X0009559Y0121922D01*
X0011078Y0123441D01*
X0011900Y0125426D01*
X0011900Y0127574D01*
X0011078Y0129559D01*
X0009559Y0131078D01*
X0008540Y0131500D01*
X0009559Y0131922D01*
X0011078Y0133441D01*
X0011900Y0135426D01*
X0011900Y0137574D01*
X0011607Y0138282D01*
X0020589Y0129300D01*
X0038167Y0129300D01*
X0048419Y0119049D01*
X0048070Y0118700D01*
X0047415Y0117119D01*
X0047415Y0115408D01*
X0048070Y0113828D01*
X0049279Y0112618D01*
X0050860Y0111964D01*
X0057770Y0111964D01*
X0059351Y0112618D01*
X0060560Y0113828D01*
X0061215Y0115408D01*
X0061215Y0117119D01*
X0060560Y0118700D01*
X0059351Y0119909D01*
X0057770Y0120564D01*
X0053126Y0120564D01*
X0051726Y0121964D01*
X0057770Y0121964D01*
X0059351Y0122618D01*
X0060560Y0123828D01*
X0061215Y0125408D01*
X0061215Y0127119D01*
X0060560Y0128700D01*
X0059351Y0129909D01*
X0057770Y0130564D01*
X0053126Y0130564D01*
X0051726Y0131964D01*
X0057770Y0131964D01*
X0059351Y0132618D01*
X0060560Y0133828D01*
X0061215Y0135408D01*
X0061215Y0137119D01*
X0060560Y0138700D01*
X0059351Y0139909D01*
X0057770Y0140564D01*
X0050860Y0140564D01*
X0049279Y0139909D01*
X0048070Y0138700D01*
X0047415Y0137119D01*
X0047415Y0136275D01*
X0039990Y0143700D01*
X0022411Y0143700D01*
X0011544Y0154567D01*
X0011900Y0155426D01*
X0011900Y0157574D01*
X0011078Y0159559D01*
X0009559Y0161078D01*
X0008276Y0161609D01*
X0008496Y0161681D01*
X0009225Y0162053D01*
X0009888Y0162534D01*
X0010466Y0163112D01*
X0010947Y0163775D01*
X0011319Y0164504D01*
X0011572Y0165282D01*
X0011686Y0166000D01*
X0007000Y0166000D01*
X0007000Y0167000D01*
X0011686Y0167000D01*
X0011572Y0167718D01*
X0011319Y0168496D01*
X0010947Y0169225D01*
X0010466Y0169888D01*
X0009888Y0170466D01*
X0009225Y0170947D01*
X0008496Y0171319D01*
X0008276Y0171391D01*
X0009559Y0171922D01*
X0011078Y0173441D01*
X0011900Y0175426D01*
X0011900Y0177574D01*
X0011544Y0178433D01*
X0022411Y0189300D01*
X0095778Y0189300D01*
X0093991Y0187513D01*
X0093991Y0183951D01*
X0096510Y0181432D01*
X0100072Y0181432D01*
X0102591Y0183951D01*
X0102591Y0187513D01*
X0100805Y0189300D01*
X0105778Y0189300D01*
X0103991Y0187513D01*
X0103991Y0183951D01*
X0106510Y0181432D01*
X0110072Y0181432D01*
X0112591Y0183951D01*
X0112591Y0187513D01*
X0110805Y0189300D01*
X0116274Y0189300D01*
X0119109Y0186616D01*
X0119109Y0183794D01*
X0119668Y0183235D01*
X0110633Y0166298D01*
X0109357Y0166298D01*
X0107257Y0168398D01*
X0103695Y0168398D01*
X0101595Y0166298D01*
X0091238Y0166298D01*
X0085504Y0160564D01*
X0080860Y0160564D01*
X0079279Y0159909D01*
X0078070Y0158700D01*
X0077415Y0157119D01*
X0077415Y0155408D01*
X0078070Y0153828D01*
X0079279Y0152618D01*
X0080860Y0151964D01*
X0087770Y0151964D01*
X0089351Y0152618D01*
X0090560Y0153828D01*
X0091215Y0155408D01*
X0091215Y0157119D01*
X0090560Y0158700D01*
X0090211Y0159049D01*
X0093061Y0161898D01*
X0101595Y0161898D01*
X0103695Y0159798D01*
X0107257Y0159798D01*
X0109357Y0161898D01*
X0111403Y0161898D01*
X0111721Y0161728D01*
X0112280Y0161898D01*
X0112864Y0161898D01*
X0113119Y0162154D01*
X0113465Y0162259D01*
X0113740Y0162774D01*
X0114153Y0163187D01*
X0114153Y0163548D01*
X0123609Y0181275D01*
X0124557Y0181275D01*
X0143257Y0162291D01*
X0143257Y0156779D01*
X0141157Y0154679D01*
X0141157Y0151117D01*
X0143676Y0148598D01*
X0147238Y0148598D01*
X0149264Y0150624D01*
X0153251Y0146638D01*
X0152725Y0146112D01*
X0152725Y0110204D01*
X0150625Y0108104D01*
X0150625Y0104542D01*
X0153144Y0102023D01*
X0156706Y0102023D01*
X0159225Y0104542D01*
X0159225Y0108104D01*
X0157125Y0110204D01*
X0157125Y0144290D01*
X0157273Y0144438D01*
X0158562Y0145727D01*
X0160874Y0148038D01*
X0161421Y0147811D01*
X0163351Y0147811D01*
X0165133Y0148550D01*
X0166497Y0149914D01*
X0167236Y0151697D01*
X0167236Y0153626D01*
X0166497Y0155409D01*
X0165133Y0156773D01*
X0163351Y0157511D01*
X0161421Y0157511D01*
X0159639Y0156773D01*
X0158274Y0155409D01*
X0157536Y0153626D01*
X0157536Y0151697D01*
X0157763Y0151149D01*
X0156362Y0149749D01*
X0151014Y0155098D01*
X0149338Y0155098D01*
X0147657Y0156779D01*
X0147657Y0163184D01*
X0147663Y0164088D01*
X0147657Y0164094D01*
X0147657Y0164104D01*
X0147018Y0164743D01*
X0127709Y0184345D01*
X0127709Y0187356D01*
X0125191Y0189875D01*
X0122067Y0189875D01*
X0118684Y0193077D01*
X0118061Y0193700D01*
X0118026Y0193700D01*
X0118000Y0193724D01*
X0117119Y0193700D01*
X0020589Y0193700D01*
X0019300Y0192411D01*
X0011607Y0184718D01*
X0011900Y0185426D01*
X0011900Y0187574D01*
X0011078Y0189559D01*
X0009559Y0191078D01*
X0007574Y0191900D01*
X0005426Y0191900D01*
X0003441Y0191078D01*
X0003200Y0190837D01*
X0003200Y0196650D01*
X0196650Y0196650D01*
X0196650Y0140986D01*
X0196559Y0141078D01*
X0194574Y0141900D01*
X0192426Y0141900D01*
X0190441Y0141078D01*
X0188922Y0139559D01*
X0188100Y0137574D01*
X0188100Y0135426D01*
X0188922Y0133441D01*
X0190441Y0131922D01*
X0191460Y0131500D01*
X0190441Y0131078D01*
X0188922Y0129559D01*
X0188100Y0127574D01*
X0188100Y0125426D01*
X0188922Y0123441D01*
X0190441Y0121922D01*
X0191460Y0121500D01*
X0190441Y0121078D01*
X0188922Y0119559D01*
X0188100Y0117574D01*
X0188100Y0115426D01*
X0188922Y0113441D01*
X0190441Y0111922D01*
X0191460Y0111500D01*
X0190441Y0111078D01*
X0188922Y0109559D01*
X0188100Y0107574D01*
X0188100Y0105426D01*
X0188922Y0103441D01*
X0190441Y0101922D01*
X0191460Y0101500D01*
X0190441Y0101078D01*
X0188922Y0099559D01*
X0188100Y0097574D01*
X0188100Y0095426D01*
X0188922Y0093441D01*
X0190441Y0091922D01*
X0191460Y0091500D01*
X0190441Y0091078D01*
X0188922Y0089559D01*
X0188100Y0087574D01*
X0188100Y0085426D01*
X0188922Y0083441D01*
X0190441Y0081922D01*
X0191460Y0081500D01*
X0190441Y0081078D01*
X0188922Y0079559D01*
X0188100Y0077574D01*
X0188100Y0075426D01*
X0188456Y0074567D01*
X0186300Y0072411D01*
X0186300Y0063518D01*
X0187589Y0062229D01*
X0188572Y0061246D01*
X0188572Y0044340D01*
X0180993Y0036762D01*
X0180993Y0036663D01*
X0171160Y0026830D01*
X0166584Y0026830D01*
X0164713Y0028702D01*
X0166071Y0028702D01*
X0167642Y0029352D01*
X0168844Y0030555D01*
X0168936Y0030776D01*
X0173356Y0030776D01*
X0176132Y0033552D01*
X0177420Y0034841D01*
X0177420Y0041388D01*
X0152914Y0065894D01*
X0152914Y0066956D01*
X0152384Y0068236D01*
X0151405Y0069215D01*
X0150126Y0069745D01*
X0148741Y0069745D01*
X0147461Y0069215D01*
X0146482Y0068236D01*
X0145952Y0066956D01*
X0145952Y0065571D01*
X0146482Y0064292D01*
X0147461Y0063313D01*
X0148741Y0062783D01*
X0149803Y0062783D01*
X0173020Y0039565D01*
X0173020Y0036663D01*
X0171534Y0035176D01*
X0168936Y0035176D01*
X0168844Y0035398D01*
X0168116Y0036126D01*
X0168844Y0036854D01*
X0169495Y0038425D01*
X0169495Y0040126D01*
X0168844Y0041697D01*
X0167642Y0042900D01*
X0166071Y0043550D01*
X0164415Y0043550D01*
X0164272Y0043989D01*
X0163981Y0044561D01*
X0163604Y0045080D01*
X0163151Y0045533D01*
X0162632Y0045910D01*
X0162060Y0046201D01*
X0161450Y0046400D01*
X0160817Y0046500D01*
X0160783Y0046500D01*
X0160783Y0042713D01*
X0160209Y0042713D01*
X0160209Y0046500D01*
X0160175Y0046500D01*
X0159542Y0046400D01*
X0158932Y0046201D01*
X0158360Y0045910D01*
X0157841Y0045533D01*
X0157388Y0045080D01*
X0157011Y0044561D01*
X0156720Y0043989D01*
X0156522Y0043379D01*
X0156421Y0042746D01*
X0156421Y0042713D01*
X0160209Y0042713D01*
X0160209Y0042138D01*
X0156421Y0042138D01*
X0156421Y0042104D01*
X0156522Y0041471D01*
X0156720Y0040861D01*
X0157011Y0040290D01*
X0157388Y0039771D01*
X0157742Y0039417D01*
X0156872Y0038547D01*
X0156221Y0036976D01*
X0156221Y0035276D01*
X0156872Y0033705D01*
X0157600Y0032976D01*
X0156872Y0032248D01*
X0156221Y0030677D01*
X0156221Y0029623D01*
X0150992Y0026141D01*
X0133899Y0026141D01*
X0133007Y0026155D01*
X0132992Y0026141D01*
X0091215Y0026141D01*
X0091215Y0027119D01*
X0090560Y0028700D01*
X0089351Y0029909D01*
X0087770Y0030564D01*
X0080860Y0030564D01*
X0079279Y0029909D01*
X0078070Y0028700D01*
X0077415Y0027119D01*
X0077415Y0025408D01*
X0078070Y0023828D01*
X0079279Y0022618D01*
X0080860Y0021964D01*
X0087770Y0021964D01*
X0088343Y0022201D01*
X0088638Y0022078D01*
X0088975Y0021741D01*
X0089446Y0021741D01*
X0089880Y0021560D01*
X0090321Y0021741D01*
X0115277Y0021741D01*
X0114078Y0020542D01*
X0113367Y0018826D01*
X0113367Y0016969D01*
X0114078Y0015253D01*
X0115391Y0013940D01*
X0117107Y0013229D01*
X0118964Y0013229D01*
X0120680Y0013940D01*
X0121993Y0015253D01*
X0122186Y0015717D01*
X0122285Y0015476D01*
X0123488Y0014274D01*
X0122284Y0015479D02*
X0122087Y0015479D01*
X0119575Y0013482D02*
X0147992Y0013482D01*
X0146346Y0014481D02*
X0144286Y0014481D01*
X0145283Y0015479D02*
X0145480Y0015479D01*
X0151071Y0013482D02*
X0196650Y0013482D01*
X0196650Y0012484D02*
X0003200Y0012484D01*
X0003200Y0013482D02*
X0116496Y0013482D01*
X0114850Y0014481D02*
X0003200Y0014481D01*
X0003200Y0015479D02*
X0113984Y0015479D01*
X0113570Y0016478D02*
X0003200Y0016478D01*
X0003200Y0017476D02*
X0113367Y0017476D01*
X0113367Y0018475D02*
X0003200Y0018475D01*
X0003200Y0019473D02*
X0113635Y0019473D01*
X0114049Y0020472D02*
X0003200Y0020472D01*
X0003200Y0021470D02*
X0115006Y0021470D01*
X0128538Y0014481D02*
X0131155Y0014481D01*
X0130158Y0015479D02*
X0129535Y0015479D01*
X0133783Y0017898D02*
X0133882Y0023941D01*
X0089886Y0023941D01*
X0084315Y0026264D01*
X0088028Y0030457D02*
X0156221Y0030457D01*
X0155974Y0029458D02*
X0089802Y0029458D01*
X0090660Y0028460D02*
X0154474Y0028460D01*
X0152975Y0027461D02*
X0091073Y0027461D01*
X0091215Y0026463D02*
X0151475Y0026463D01*
X0151657Y0023941D02*
X0160496Y0029827D01*
X0160496Y0029807D01*
X0165673Y0024630D01*
X0172071Y0024630D01*
X0183193Y0035752D01*
X0183193Y0035850D01*
X0190772Y0043429D01*
X0190772Y0062157D01*
X0188500Y0064429D01*
X0188500Y0071500D01*
X0193500Y0076500D01*
X0189746Y0080382D02*
X0144596Y0080382D01*
X0143857Y0079644D02*
X0158736Y0094523D01*
X0161706Y0094523D01*
X0164225Y0097042D01*
X0164225Y0100604D01*
X0161706Y0103123D01*
X0158144Y0103123D01*
X0155625Y0100604D01*
X0155625Y0097634D01*
X0139457Y0081466D01*
X0139457Y0044180D01*
X0137357Y0042080D01*
X0137357Y0038518D01*
X0139876Y0035999D01*
X0143439Y0035999D01*
X0145957Y0038518D01*
X0145957Y0042080D01*
X0143857Y0044180D01*
X0143857Y0079644D01*
X0143857Y0079384D02*
X0188850Y0079384D01*
X0188436Y0078385D02*
X0143857Y0078385D01*
X0143857Y0077387D02*
X0188100Y0077387D01*
X0188100Y0076388D02*
X0143857Y0076388D01*
X0143857Y0075390D02*
X0188115Y0075390D01*
X0188280Y0074391D02*
X0143857Y0074391D01*
X0143857Y0073393D02*
X0187282Y0073393D01*
X0186300Y0072394D02*
X0143857Y0072394D01*
X0143857Y0071396D02*
X0186300Y0071396D01*
X0186300Y0070397D02*
X0143857Y0070397D01*
X0143857Y0069399D02*
X0147905Y0069399D01*
X0146647Y0068400D02*
X0143857Y0068400D01*
X0143857Y0067402D02*
X0146137Y0067402D01*
X0145952Y0066403D02*
X0143857Y0066403D01*
X0143857Y0065405D02*
X0146021Y0065405D01*
X0146435Y0064406D02*
X0143857Y0064406D01*
X0143857Y0063408D02*
X0147366Y0063408D01*
X0150176Y0062409D02*
X0143857Y0062409D01*
X0143857Y0061411D02*
X0151175Y0061411D01*
X0152173Y0060412D02*
X0143857Y0060412D01*
X0143857Y0059414D02*
X0153172Y0059414D01*
X0154170Y0058415D02*
X0143857Y0058415D01*
X0143857Y0057417D02*
X0155169Y0057417D01*
X0156167Y0056418D02*
X0143857Y0056418D01*
X0143857Y0055420D02*
X0157166Y0055420D01*
X0158164Y0054421D02*
X0143857Y0054421D01*
X0143857Y0053423D02*
X0159163Y0053423D01*
X0160161Y0052424D02*
X0143857Y0052424D01*
X0143857Y0051426D02*
X0161160Y0051426D01*
X0162159Y0050427D02*
X0143857Y0050427D01*
X0143857Y0049429D02*
X0163157Y0049429D01*
X0164156Y0048430D02*
X0143857Y0048430D01*
X0143857Y0047432D02*
X0165154Y0047432D01*
X0166153Y0046433D02*
X0161240Y0046433D01*
X0160783Y0046433D02*
X0160209Y0046433D01*
X0159752Y0046433D02*
X0143857Y0046433D01*
X0143857Y0045434D02*
X0157743Y0045434D01*
X0156947Y0044436D02*
X0143857Y0044436D01*
X0144600Y0043437D02*
X0156540Y0043437D01*
X0156532Y0041440D02*
X0145957Y0041440D01*
X0145957Y0040442D02*
X0156933Y0040442D01*
X0157715Y0039443D02*
X0145957Y0039443D01*
X0145884Y0038445D02*
X0156830Y0038445D01*
X0156416Y0037446D02*
X0144886Y0037446D01*
X0143887Y0036448D02*
X0156221Y0036448D01*
X0156221Y0035449D02*
X0091215Y0035449D01*
X0091215Y0035408D02*
X0091215Y0037119D01*
X0090560Y0038700D01*
X0089351Y0039909D01*
X0087770Y0040564D01*
X0080860Y0040564D01*
X0079279Y0039909D01*
X0078070Y0038700D01*
X0077415Y0037119D01*
X0077415Y0035408D01*
X0078070Y0033828D01*
X0079279Y0032618D01*
X0080860Y0031964D01*
X0087770Y0031964D01*
X0089351Y0032618D01*
X0090560Y0033828D01*
X0091215Y0035408D01*
X0090818Y0034451D02*
X0156563Y0034451D01*
X0157124Y0033452D02*
X0090185Y0033452D01*
X0088953Y0032454D02*
X0157078Y0032454D01*
X0156544Y0031455D02*
X0003200Y0031455D01*
X0003200Y0030457D02*
X0050601Y0030457D01*
X0050860Y0030564D02*
X0049279Y0029909D01*
X0048070Y0028700D01*
X0047415Y0027119D01*
X0047415Y0025408D01*
X0048070Y0023828D01*
X0049279Y0022618D01*
X0050860Y0021964D01*
X0057770Y0021964D01*
X0059351Y0022618D01*
X0060560Y0023828D01*
X0061215Y0025408D01*
X0061215Y0027119D01*
X0060560Y0028700D01*
X0059351Y0029909D01*
X0057770Y0030564D01*
X0050860Y0030564D01*
X0050860Y0031964D02*
X0049279Y0032618D01*
X0048070Y0033828D01*
X0047415Y0035408D01*
X0047415Y0037119D01*
X0048070Y0038700D01*
X0049279Y0039909D01*
X0050860Y0040564D01*
X0057770Y0040564D01*
X0059351Y0039909D01*
X0060560Y0038700D01*
X0061215Y0037119D01*
X0061215Y0035408D01*
X0060560Y0033828D01*
X0059351Y0032618D01*
X0057770Y0031964D01*
X0050860Y0031964D01*
X0049676Y0032454D02*
X0003200Y0032454D01*
X0003200Y0033452D02*
X0048445Y0033452D01*
X0047812Y0034451D02*
X0003200Y0034451D01*
X0003200Y0035449D02*
X0047415Y0035449D01*
X0047415Y0036448D02*
X0003200Y0036448D01*
X0003200Y0037446D02*
X0047551Y0037446D01*
X0047964Y0038445D02*
X0003200Y0038445D01*
X0003200Y0039443D02*
X0048813Y0039443D01*
X0050566Y0040442D02*
X0003200Y0040442D01*
X0003200Y0041440D02*
X0117557Y0041440D01*
X0117557Y0041997D02*
X0117557Y0040599D01*
X0121357Y0040599D01*
X0121357Y0039999D01*
X0117557Y0039999D01*
X0117557Y0038601D01*
X0119959Y0036199D01*
X0121357Y0036199D01*
X0121357Y0039999D01*
X0121957Y0039999D01*
X0121957Y0036199D01*
X0123356Y0036199D01*
X0125757Y0038601D01*
X0125757Y0039999D01*
X0121958Y0039999D01*
X0121958Y0040599D01*
X0125757Y0040599D01*
X0125757Y0041997D01*
X0123356Y0044399D01*
X0121957Y0044399D01*
X0121957Y0040599D01*
X0121357Y0040599D01*
X0121357Y0044399D01*
X0119959Y0044399D01*
X0117557Y0041997D01*
X0117999Y0042439D02*
X0088917Y0042439D01*
X0089351Y0042618D02*
X0090560Y0043828D01*
X0091215Y0045408D01*
X0091215Y0047119D01*
X0090560Y0048700D01*
X0089351Y0049909D01*
X0087770Y0050564D01*
X0080860Y0050564D01*
X0079279Y0049909D01*
X0078070Y0048700D01*
X0077415Y0047119D01*
X0077415Y0045408D01*
X0078070Y0043828D01*
X0079279Y0042618D01*
X0080860Y0041964D01*
X0087770Y0041964D01*
X0089351Y0042618D01*
X0090170Y0043437D02*
X0118997Y0043437D01*
X0121357Y0043437D02*
X0121957Y0043437D01*
X0121957Y0042439D02*
X0121357Y0042439D01*
X0121357Y0041440D02*
X0121957Y0041440D01*
X0121958Y0040442D02*
X0137357Y0040442D01*
X0137357Y0041440D02*
X0125757Y0041440D01*
X0125316Y0042439D02*
X0137716Y0042439D01*
X0138715Y0043437D02*
X0124317Y0043437D01*
X0121357Y0040442D02*
X0088064Y0040442D01*
X0089816Y0039443D02*
X0117557Y0039443D01*
X0117713Y0038445D02*
X0090666Y0038445D01*
X0091079Y0037446D02*
X0118712Y0037446D01*
X0119711Y0036448D02*
X0091215Y0036448D01*
X0090812Y0044436D02*
X0139457Y0044436D01*
X0139457Y0045434D02*
X0091215Y0045434D01*
X0091215Y0046433D02*
X0139457Y0046433D01*
X0139457Y0047432D02*
X0091086Y0047432D01*
X0090672Y0048430D02*
X0139457Y0048430D01*
X0139457Y0049429D02*
X0089831Y0049429D01*
X0088100Y0050427D02*
X0139457Y0050427D01*
X0139457Y0051426D02*
X0136467Y0051426D01*
X0136444Y0051403D02*
X0137424Y0052382D01*
X0137954Y0053662D01*
X0137954Y0055047D01*
X0137424Y0056326D01*
X0136444Y0057305D01*
X0135165Y0057835D01*
X0133780Y0057835D01*
X0132501Y0057305D01*
X0131749Y0056554D01*
X0117136Y0056554D01*
X0090211Y0083479D01*
X0090560Y0083828D01*
X0091215Y0085408D01*
X0091215Y0086253D01*
X0113404Y0064064D01*
X0131749Y0064064D01*
X0132501Y0063313D01*
X0133780Y0062783D01*
X0135165Y0062783D01*
X0136444Y0063313D01*
X0137424Y0064292D01*
X0137954Y0065571D01*
X0137954Y0066956D01*
X0137424Y0068236D01*
X0136444Y0069215D01*
X0135165Y0069745D01*
X0133780Y0069745D01*
X0132501Y0069215D01*
X0131749Y0068464D01*
X0115226Y0068464D01*
X0090211Y0093479D01*
X0090560Y0093828D01*
X0091215Y0095408D01*
X0091215Y0097119D01*
X0090560Y0098700D01*
X0089351Y0099909D01*
X0087770Y0100564D01*
X0080860Y0100564D01*
X0079279Y0099909D01*
X0078070Y0098700D01*
X0077415Y0097119D01*
X0077415Y0095408D01*
X0078070Y0093828D01*
X0079279Y0092618D01*
X0080860Y0091964D01*
X0085504Y0091964D01*
X0086904Y0090564D01*
X0080860Y0090564D01*
X0079279Y0089909D01*
X0078070Y0088700D01*
X0077415Y0087119D01*
X0077415Y0085408D01*
X0078070Y0083828D01*
X0079279Y0082618D01*
X0080860Y0081964D01*
X0085504Y0081964D01*
X0086904Y0080564D01*
X0080860Y0080564D01*
X0079279Y0079909D01*
X0078070Y0078700D01*
X0077415Y0077119D01*
X0077415Y0075408D01*
X0078070Y0073828D01*
X0079279Y0072618D01*
X0080860Y0071964D01*
X0087770Y0071964D01*
X0089351Y0072618D01*
X0090560Y0073828D01*
X0091215Y0075408D01*
X0091215Y0076253D01*
X0115313Y0052154D01*
X0131749Y0052154D01*
X0132501Y0051403D01*
X0133780Y0050873D01*
X0135165Y0050873D01*
X0136444Y0051403D01*
X0137441Y0052424D02*
X0139457Y0052424D01*
X0139457Y0053423D02*
X0137854Y0053423D01*
X0137954Y0054421D02*
X0139457Y0054421D01*
X0139457Y0055420D02*
X0137799Y0055420D01*
X0137332Y0056418D02*
X0139457Y0056418D01*
X0139457Y0057417D02*
X0136176Y0057417D01*
X0139457Y0058415D02*
X0115275Y0058415D01*
X0116273Y0057417D02*
X0132769Y0057417D01*
X0134472Y0054354D02*
X0116224Y0054354D01*
X0084315Y0086264D01*
X0086101Y0091366D02*
X0068267Y0091366D01*
X0068267Y0090368D02*
X0080386Y0090368D01*
X0078739Y0089369D02*
X0068267Y0089369D01*
X0068267Y0088370D02*
X0077933Y0088370D01*
X0077520Y0087372D02*
X0068267Y0087372D01*
X0068267Y0086373D02*
X0077415Y0086373D01*
X0077429Y0085375D02*
X0068267Y0085375D01*
X0068267Y0084376D02*
X0077842Y0084376D01*
X0078520Y0083378D02*
X0068267Y0083378D01*
X0068267Y0082379D02*
X0079856Y0082379D01*
X0080422Y0080382D02*
X0068267Y0080382D01*
X0068267Y0079384D02*
X0078754Y0079384D01*
X0077939Y0078385D02*
X0068267Y0078385D01*
X0068267Y0077387D02*
X0077526Y0077387D01*
X0077415Y0076388D02*
X0068267Y0076388D01*
X0068267Y0075390D02*
X0077423Y0075390D01*
X0077836Y0074391D02*
X0068267Y0074391D01*
X0068267Y0073393D02*
X0078505Y0073393D01*
X0079820Y0072394D02*
X0068267Y0072394D01*
X0068267Y0071396D02*
X0096072Y0071396D01*
X0097070Y0070397D02*
X0068267Y0070397D01*
X0068267Y0069399D02*
X0079055Y0069399D01*
X0079044Y0069391D02*
X0078588Y0068935D01*
X0078208Y0068413D01*
X0077915Y0067838D01*
X0077716Y0067224D01*
X0077615Y0066586D01*
X0077615Y0066564D01*
X0084015Y0066564D01*
X0084015Y0070364D01*
X0081392Y0070364D01*
X0080755Y0070263D01*
X0080141Y0070063D01*
X0079566Y0069770D01*
X0079044Y0069391D01*
X0078202Y0068400D02*
X0068267Y0068400D01*
X0068267Y0067402D02*
X0077774Y0067402D01*
X0077615Y0065964D02*
X0077615Y0065941D01*
X0077716Y0065304D01*
X0077915Y0064690D01*
X0078208Y0064115D01*
X0078588Y0063593D01*
X0079044Y0063136D01*
X0079566Y0062757D01*
X0080141Y0062464D01*
X0080755Y0062265D01*
X0081392Y0062164D01*
X0084015Y0062164D01*
X0084015Y0065964D01*
X0077615Y0065964D01*
X0077700Y0065405D02*
X0066567Y0065405D01*
X0067566Y0066403D02*
X0084015Y0066403D01*
X0084015Y0066564D02*
X0084015Y0065964D01*
X0084615Y0065964D01*
X0084615Y0066564D01*
X0084015Y0066564D01*
X0084615Y0066564D02*
X0084615Y0070364D01*
X0087238Y0070364D01*
X0087875Y0070263D01*
X0088489Y0070063D01*
X0089064Y0069770D01*
X0089586Y0069391D01*
X0090042Y0068935D01*
X0090422Y0068413D01*
X0090715Y0067838D01*
X0090914Y0067224D01*
X0091015Y0066586D01*
X0091015Y0066564D01*
X0084615Y0066564D01*
X0084615Y0066403D02*
X0101064Y0066403D01*
X0102063Y0065405D02*
X0090930Y0065405D01*
X0090914Y0065304D02*
X0091015Y0065941D01*
X0091015Y0065964D01*
X0084615Y0065964D01*
X0084615Y0062164D01*
X0087238Y0062164D01*
X0087875Y0062265D01*
X0088489Y0062464D01*
X0089064Y0062757D01*
X0089586Y0063136D01*
X0090042Y0063593D01*
X0090422Y0064115D01*
X0090715Y0064690D01*
X0090914Y0065304D01*
X0090570Y0064406D02*
X0103061Y0064406D01*
X0104060Y0063408D02*
X0089857Y0063408D01*
X0088320Y0062409D02*
X0105058Y0062409D01*
X0106057Y0061411D02*
X0062573Y0061411D01*
X0063572Y0062409D02*
X0080310Y0062409D01*
X0078773Y0063408D02*
X0064570Y0063408D01*
X0065569Y0064406D02*
X0078060Y0064406D01*
X0079279Y0059909D02*
X0080860Y0060564D01*
X0087770Y0060564D01*
X0089351Y0059909D01*
X0090560Y0058700D01*
X0091215Y0057119D01*
X0091215Y0055408D01*
X0090560Y0053828D01*
X0089351Y0052618D01*
X0087770Y0051964D01*
X0080860Y0051964D01*
X0079279Y0052618D01*
X0078070Y0053828D01*
X0077415Y0055408D01*
X0077415Y0057119D01*
X0078070Y0058700D01*
X0079279Y0059909D01*
X0078784Y0059414D02*
X0060576Y0059414D01*
X0060211Y0059049D02*
X0068267Y0067104D01*
X0068267Y0108777D01*
X0069018Y0109528D01*
X0069548Y0110808D01*
X0069548Y0112192D01*
X0069018Y0113472D01*
X0068267Y0114223D01*
X0068267Y0162647D01*
X0066978Y0163936D01*
X0050199Y0180715D01*
X0050935Y0182493D01*
X0050935Y0184641D01*
X0050113Y0186626D01*
X0048594Y0188145D01*
X0046610Y0188967D01*
X0044461Y0188967D01*
X0042477Y0188145D01*
X0040958Y0186626D01*
X0040135Y0184641D01*
X0040135Y0182493D01*
X0040958Y0180508D01*
X0042477Y0178989D01*
X0044461Y0178167D01*
X0046525Y0178167D01*
X0063867Y0160825D01*
X0063867Y0114223D01*
X0063116Y0113472D01*
X0062586Y0112192D01*
X0062586Y0110808D01*
X0063116Y0109528D01*
X0063867Y0108777D01*
X0063867Y0068927D01*
X0061215Y0066275D01*
X0061215Y0067119D01*
X0060560Y0068700D01*
X0059351Y0069909D01*
X0057770Y0070564D01*
X0050860Y0070564D01*
X0049279Y0069909D01*
X0048070Y0068700D01*
X0047972Y0068464D01*
X0043403Y0068464D01*
X0042628Y0068556D01*
X0042510Y0068464D01*
X0042360Y0068464D01*
X0041809Y0067912D01*
X0039352Y0065979D01*
X0038591Y0066294D01*
X0038811Y0066366D01*
X0039540Y0066738D01*
X0040203Y0067219D01*
X0040781Y0067797D01*
X0041262Y0068460D01*
X0041634Y0069189D01*
X0041887Y0069967D01*
X0042001Y0070685D01*
X0037315Y0070685D01*
X0037315Y0071685D01*
X0042001Y0071685D01*
X0041887Y0072403D01*
X0041634Y0073181D01*
X0041262Y0073910D01*
X0040781Y0074573D01*
X0040203Y0075151D01*
X0039540Y0075632D01*
X0038811Y0076004D01*
X0038591Y0076076D01*
X0039874Y0076607D01*
X0041393Y0078126D01*
X0042215Y0080111D01*
X0042215Y0082259D01*
X0041393Y0084244D01*
X0039874Y0085763D01*
X0037889Y0086585D01*
X0035741Y0086585D01*
X0033756Y0085763D01*
X0032237Y0084244D01*
X0031415Y0082259D01*
X0031415Y0080111D01*
X0032237Y0078126D01*
X0033756Y0076607D01*
X0035039Y0076076D01*
X0034819Y0076004D01*
X0034090Y0075632D01*
X0033427Y0075151D01*
X0032849Y0074573D01*
X0032368Y0073910D01*
X0031996Y0073181D01*
X0031743Y0072403D01*
X0031629Y0071685D01*
X0036315Y0071685D01*
X0036315Y0070685D01*
X0031629Y0070685D01*
X0031743Y0069967D01*
X0031996Y0069189D01*
X0032368Y0068460D01*
X0032849Y0067797D01*
X0033427Y0067219D01*
X0034090Y0066738D01*
X0034819Y0066366D01*
X0035039Y0066294D01*
X0033756Y0065763D01*
X0032237Y0064244D01*
X0031415Y0062259D01*
X0031415Y0060111D01*
X0032237Y0058126D01*
X0033756Y0056607D01*
X0035741Y0055785D01*
X0037889Y0055785D01*
X0039874Y0056607D01*
X0041393Y0058126D01*
X0042215Y0060111D01*
X0042215Y0062259D01*
X0042098Y0062542D01*
X0044033Y0064064D01*
X0047972Y0064064D01*
X0048070Y0063828D01*
X0049279Y0062618D01*
X0050860Y0061964D01*
X0056904Y0061964D01*
X0055504Y0060564D01*
X0050860Y0060564D01*
X0049279Y0059909D01*
X0048070Y0058700D01*
X0047415Y0057119D01*
X0047415Y0055408D01*
X0048070Y0053828D01*
X0049279Y0052618D01*
X0050860Y0051964D01*
X0057770Y0051964D01*
X0059351Y0052618D01*
X0060560Y0053828D01*
X0061215Y0055408D01*
X0061215Y0057119D01*
X0060560Y0058700D01*
X0060211Y0059049D01*
X0060678Y0058415D02*
X0077952Y0058415D01*
X0077538Y0057417D02*
X0061092Y0057417D01*
X0061215Y0056418D02*
X0077415Y0056418D01*
X0077415Y0055420D02*
X0061215Y0055420D01*
X0060806Y0054421D02*
X0077824Y0054421D01*
X0078475Y0053423D02*
X0060155Y0053423D01*
X0058882Y0052424D02*
X0079748Y0052424D01*
X0080530Y0050427D02*
X0058100Y0050427D01*
X0057770Y0050564D02*
X0059351Y0049909D01*
X0060560Y0048700D01*
X0061215Y0047119D01*
X0061215Y0045408D01*
X0060560Y0043828D01*
X0059351Y0042618D01*
X0057770Y0041964D01*
X0050860Y0041964D01*
X0049279Y0042618D01*
X0048070Y0043828D01*
X0047415Y0045408D01*
X0047415Y0047119D01*
X0048070Y0048700D01*
X0049279Y0049909D01*
X0050860Y0050564D01*
X0057770Y0050564D01*
X0059831Y0049429D02*
X0078799Y0049429D01*
X0077958Y0048430D02*
X0060672Y0048430D01*
X0061086Y0047432D02*
X0077544Y0047432D01*
X0077415Y0046433D02*
X0061215Y0046433D01*
X0061215Y0045434D02*
X0077415Y0045434D01*
X0077818Y0044436D02*
X0060812Y0044436D01*
X0060170Y0043437D02*
X0078460Y0043437D01*
X0079712Y0042439D02*
X0058917Y0042439D01*
X0058064Y0040442D02*
X0080566Y0040442D01*
X0078813Y0039443D02*
X0059816Y0039443D01*
X0060666Y0038445D02*
X0077964Y0038445D01*
X0077551Y0037446D02*
X0061079Y0037446D01*
X0061215Y0036448D02*
X0077415Y0036448D01*
X0077415Y0035449D02*
X0061215Y0035449D01*
X0060818Y0034451D02*
X0077812Y0034451D01*
X0078445Y0033452D02*
X0060185Y0033452D01*
X0058953Y0032454D02*
X0079676Y0032454D01*
X0080601Y0030457D02*
X0058028Y0030457D01*
X0059802Y0029458D02*
X0078828Y0029458D01*
X0077970Y0028460D02*
X0060660Y0028460D01*
X0061073Y0027461D02*
X0077557Y0027461D01*
X0077415Y0026463D02*
X0061215Y0026463D01*
X0061215Y0025464D02*
X0077415Y0025464D01*
X0077805Y0024466D02*
X0060824Y0024466D01*
X0060200Y0023467D02*
X0078430Y0023467D01*
X0079641Y0022469D02*
X0058989Y0022469D01*
X0049641Y0022469D02*
X0034625Y0022469D01*
X0034360Y0022203D02*
X0036761Y0024605D01*
X0036761Y0026003D01*
X0032961Y0026003D01*
X0032961Y0022203D01*
X0034360Y0022203D01*
X0032961Y0022469D02*
X0032361Y0022469D01*
X0032361Y0022203D02*
X0032361Y0026003D01*
X0028561Y0026003D01*
X0028561Y0024605D01*
X0030963Y0022203D01*
X0032361Y0022203D01*
X0032361Y0023467D02*
X0032961Y0023467D01*
X0032961Y0024466D02*
X0032361Y0024466D01*
X0032361Y0025464D02*
X0032961Y0025464D01*
X0032961Y0026003D02*
X0032361Y0026003D01*
X0032361Y0026603D01*
X0028561Y0026603D01*
X0028561Y0028001D01*
X0030963Y0030403D01*
X0032361Y0030403D01*
X0032361Y0026603D01*
X0032961Y0026603D01*
X0032961Y0030403D01*
X0034360Y0030403D01*
X0036761Y0028001D01*
X0036761Y0026603D01*
X0032961Y0026603D01*
X0032961Y0026003D01*
X0032961Y0026463D02*
X0047415Y0026463D01*
X0047415Y0025464D02*
X0036761Y0025464D01*
X0036622Y0024466D02*
X0047805Y0024466D01*
X0048430Y0023467D02*
X0035624Y0023467D01*
X0036761Y0027461D02*
X0047557Y0027461D01*
X0047970Y0028460D02*
X0036303Y0028460D01*
X0035305Y0029458D02*
X0048828Y0029458D01*
X0049712Y0042439D02*
X0034878Y0042439D01*
X0034443Y0042003D02*
X0036961Y0044522D01*
X0036961Y0048084D01*
X0034443Y0050603D01*
X0030880Y0050603D01*
X0028361Y0048084D01*
X0028361Y0044522D01*
X0030880Y0042003D01*
X0034443Y0042003D01*
X0035877Y0043437D02*
X0048460Y0043437D01*
X0047818Y0044436D02*
X0036875Y0044436D01*
X0036961Y0045434D02*
X0047415Y0045434D01*
X0047415Y0046433D02*
X0036961Y0046433D01*
X0036961Y0047432D02*
X0047544Y0047432D01*
X0047958Y0048430D02*
X0036616Y0048430D01*
X0035617Y0049429D02*
X0048799Y0049429D01*
X0050530Y0050427D02*
X0034619Y0050427D01*
X0030704Y0050427D02*
X0003200Y0050427D01*
X0003200Y0049429D02*
X0029706Y0049429D01*
X0028707Y0048430D02*
X0003200Y0048430D01*
X0003200Y0047432D02*
X0028361Y0047432D01*
X0028361Y0046433D02*
X0003200Y0046433D01*
X0003200Y0045434D02*
X0028361Y0045434D01*
X0028447Y0044436D02*
X0003200Y0044436D01*
X0003200Y0043437D02*
X0029446Y0043437D01*
X0030444Y0042439D02*
X0003200Y0042439D01*
X0003200Y0051426D02*
X0132478Y0051426D01*
X0139457Y0059414D02*
X0114276Y0059414D01*
X0113278Y0060412D02*
X0139457Y0060412D01*
X0139457Y0061411D02*
X0112279Y0061411D01*
X0111281Y0062409D02*
X0139457Y0062409D01*
X0139457Y0063408D02*
X0136539Y0063408D01*
X0137471Y0064406D02*
X0139457Y0064406D01*
X0139457Y0065405D02*
X0137885Y0065405D01*
X0137954Y0066403D02*
X0139457Y0066403D01*
X0139457Y0067402D02*
X0137769Y0067402D01*
X0137259Y0068400D02*
X0139457Y0068400D01*
X0139457Y0069399D02*
X0136000Y0069399D01*
X0134472Y0066264D02*
X0114315Y0066264D01*
X0084315Y0096264D01*
X0088280Y0100353D02*
X0103169Y0100353D01*
X0103169Y0100322D02*
X0105893Y0097598D01*
X0107519Y0097598D01*
X0107519Y0101948D01*
X0108119Y0101948D01*
X0108119Y0102548D01*
X0112469Y0102548D01*
X0112469Y0104174D01*
X0109745Y0106898D01*
X0108119Y0106898D01*
X0108119Y0102548D01*
X0107519Y0102548D01*
X0107519Y0106898D01*
X0105893Y0106898D01*
X0103169Y0104174D01*
X0103169Y0102548D01*
X0107519Y0102548D01*
X0107519Y0101948D01*
X0103169Y0101948D01*
X0103169Y0100322D01*
X0103169Y0101351D02*
X0068267Y0101351D01*
X0068267Y0100353D02*
X0080350Y0100353D01*
X0080860Y0101964D02*
X0079279Y0102618D01*
X0078070Y0103828D01*
X0077415Y0105408D01*
X0077415Y0107119D01*
X0078070Y0108700D01*
X0079279Y0109909D01*
X0080860Y0110564D01*
X0087770Y0110564D01*
X0089351Y0109909D01*
X0090560Y0108700D01*
X0091215Y0107119D01*
X0091215Y0105408D01*
X0090560Y0103828D01*
X0089351Y0102618D01*
X0087770Y0101964D01*
X0080860Y0101964D01*
X0079928Y0102350D02*
X0068267Y0102350D01*
X0068267Y0103348D02*
X0078549Y0103348D01*
X0077855Y0104347D02*
X0068267Y0104347D01*
X0068267Y0105345D02*
X0077441Y0105345D01*
X0077415Y0106344D02*
X0068267Y0106344D01*
X0068267Y0107342D02*
X0077507Y0107342D01*
X0077921Y0108341D02*
X0068267Y0108341D01*
X0068829Y0109339D02*
X0078709Y0109339D01*
X0080314Y0110338D02*
X0069353Y0110338D01*
X0069548Y0111336D02*
X0152725Y0111336D01*
X0152725Y0110338D02*
X0135338Y0110338D01*
X0135053Y0110623D02*
X0131491Y0110623D01*
X0128972Y0108104D01*
X0128972Y0104542D01*
X0131491Y0102023D01*
X0135053Y0102023D01*
X0137572Y0104542D01*
X0137572Y0108104D01*
X0135053Y0110623D01*
X0136336Y0109339D02*
X0151860Y0109339D01*
X0150862Y0108341D02*
X0137335Y0108341D01*
X0137572Y0107342D02*
X0150625Y0107342D01*
X0150625Y0106344D02*
X0137572Y0106344D01*
X0137572Y0105345D02*
X0150625Y0105345D01*
X0150820Y0104347D02*
X0137377Y0104347D01*
X0136378Y0103348D02*
X0151819Y0103348D01*
X0152817Y0102350D02*
X0135380Y0102350D01*
X0131164Y0102350D02*
X0108119Y0102350D01*
X0108119Y0101948D02*
X0112469Y0101948D01*
X0112469Y0100322D01*
X0109745Y0097598D01*
X0108119Y0097598D01*
X0108119Y0101948D01*
X0108119Y0101351D02*
X0107519Y0101351D01*
X0107519Y0100353D02*
X0108119Y0100353D01*
X0108119Y0099354D02*
X0107519Y0099354D01*
X0107519Y0098356D02*
X0108119Y0098356D01*
X0108784Y0097098D02*
X0106854Y0097098D01*
X0105072Y0096360D01*
X0103707Y0094995D01*
X0102969Y0093213D01*
X0102969Y0091283D01*
X0103707Y0089501D01*
X0105072Y0088136D01*
X0106854Y0087398D01*
X0108784Y0087398D01*
X0110566Y0088136D01*
X0111931Y0089501D01*
X0112669Y0091283D01*
X0112669Y0093213D01*
X0111931Y0094995D01*
X0110566Y0096360D01*
X0108784Y0097098D01*
X0110567Y0096359D02*
X0154350Y0096359D01*
X0155348Y0097357D02*
X0091116Y0097357D01*
X0091215Y0096359D02*
X0105071Y0096359D01*
X0104072Y0095360D02*
X0091195Y0095360D01*
X0090781Y0094362D02*
X0103445Y0094362D01*
X0103031Y0093363D02*
X0090327Y0093363D01*
X0091325Y0092365D02*
X0102969Y0092365D01*
X0102969Y0091366D02*
X0092324Y0091366D01*
X0093322Y0090368D02*
X0103348Y0090368D01*
X0103839Y0089369D02*
X0094321Y0089369D01*
X0095320Y0088370D02*
X0104837Y0088370D01*
X0110800Y0088370D02*
X0129521Y0088370D01*
X0129172Y0088021D02*
X0129172Y0086623D01*
X0132972Y0086623D01*
X0132972Y0090423D01*
X0131573Y0090423D01*
X0129172Y0088021D01*
X0129172Y0087372D02*
X0096318Y0087372D01*
X0097317Y0086373D02*
X0132972Y0086373D01*
X0132972Y0086623D02*
X0132972Y0086023D01*
X0133572Y0086023D01*
X0133572Y0086623D01*
X0137372Y0086623D01*
X0137372Y0088021D01*
X0134970Y0090423D01*
X0133572Y0090423D01*
X0133572Y0086623D01*
X0132972Y0086623D01*
X0132972Y0086023D02*
X0129172Y0086023D01*
X0129172Y0084625D01*
X0131573Y0082223D01*
X0132972Y0082223D01*
X0132972Y0086023D01*
X0133572Y0086023D02*
X0133572Y0082223D01*
X0134970Y0082223D01*
X0137372Y0084625D01*
X0137372Y0086023D01*
X0133572Y0086023D01*
X0133572Y0086373D02*
X0144365Y0086373D01*
X0143366Y0085375D02*
X0137372Y0085375D01*
X0137124Y0084376D02*
X0142368Y0084376D01*
X0141369Y0083378D02*
X0136125Y0083378D01*
X0135127Y0082379D02*
X0140371Y0082379D01*
X0139457Y0081381D02*
X0102309Y0081381D01*
X0101311Y0082379D02*
X0131417Y0082379D01*
X0130418Y0083378D02*
X0100312Y0083378D01*
X0099314Y0084376D02*
X0129420Y0084376D01*
X0129172Y0085375D02*
X0098315Y0085375D01*
X0095088Y0082379D02*
X0091311Y0082379D01*
X0092309Y0081381D02*
X0096087Y0081381D01*
X0097085Y0080382D02*
X0093308Y0080382D01*
X0094306Y0079384D02*
X0098084Y0079384D01*
X0099082Y0078385D02*
X0095305Y0078385D01*
X0096303Y0077387D02*
X0100081Y0077387D01*
X0101079Y0076388D02*
X0097302Y0076388D01*
X0098300Y0075390D02*
X0102078Y0075390D01*
X0103076Y0074391D02*
X0099299Y0074391D01*
X0100297Y0073393D02*
X0104075Y0073393D01*
X0105073Y0072394D02*
X0101296Y0072394D01*
X0102294Y0071396D02*
X0106072Y0071396D01*
X0107070Y0070397D02*
X0103293Y0070397D01*
X0104291Y0069399D02*
X0108069Y0069399D01*
X0109067Y0068400D02*
X0105290Y0068400D01*
X0106288Y0067402D02*
X0110066Y0067402D01*
X0111064Y0066403D02*
X0107287Y0066403D01*
X0108285Y0065405D02*
X0112063Y0065405D01*
X0113061Y0064406D02*
X0109284Y0064406D01*
X0110282Y0063408D02*
X0132405Y0063408D01*
X0132944Y0069399D02*
X0114291Y0069399D01*
X0113293Y0070397D02*
X0139457Y0070397D01*
X0139457Y0071396D02*
X0112294Y0071396D01*
X0111296Y0072394D02*
X0139457Y0072394D01*
X0139457Y0073393D02*
X0110297Y0073393D01*
X0109299Y0074391D02*
X0139457Y0074391D01*
X0139457Y0075390D02*
X0108300Y0075390D01*
X0107302Y0076388D02*
X0139457Y0076388D01*
X0139457Y0077387D02*
X0106303Y0077387D01*
X0105305Y0078385D02*
X0139457Y0078385D01*
X0139457Y0079384D02*
X0104306Y0079384D01*
X0103308Y0080382D02*
X0139457Y0080382D01*
X0141657Y0080555D02*
X0159925Y0098823D01*
X0156372Y0101351D02*
X0112469Y0101351D01*
X0112469Y0100353D02*
X0155625Y0100353D01*
X0155625Y0099354D02*
X0111501Y0099354D01*
X0110503Y0098356D02*
X0155625Y0098356D01*
X0153351Y0095360D02*
X0111566Y0095360D01*
X0112193Y0094362D02*
X0152353Y0094362D01*
X0151354Y0093363D02*
X0112607Y0093363D01*
X0112669Y0092365D02*
X0150356Y0092365D01*
X0149357Y0091366D02*
X0112669Y0091366D01*
X0112290Y0090368D02*
X0131518Y0090368D01*
X0130520Y0089369D02*
X0111799Y0089369D01*
X0105135Y0098356D02*
X0090703Y0098356D01*
X0089906Y0099354D02*
X0104137Y0099354D01*
X0103169Y0103348D02*
X0090080Y0103348D01*
X0090775Y0104347D02*
X0103341Y0104347D01*
X0104340Y0105345D02*
X0091189Y0105345D01*
X0091215Y0106344D02*
X0105338Y0106344D01*
X0107519Y0106344D02*
X0108119Y0106344D01*
X0108119Y0105345D02*
X0107519Y0105345D01*
X0107519Y0104347D02*
X0108119Y0104347D01*
X0108119Y0103348D02*
X0107519Y0103348D01*
X0107519Y0102350D02*
X0088702Y0102350D01*
X0091123Y0107342D02*
X0128972Y0107342D01*
X0128972Y0106344D02*
X0110299Y0106344D01*
X0111298Y0105345D02*
X0128972Y0105345D01*
X0129167Y0104347D02*
X0112296Y0104347D01*
X0112469Y0103348D02*
X0130165Y0103348D01*
X0129208Y0108341D02*
X0090709Y0108341D01*
X0089921Y0109339D02*
X0130207Y0109339D01*
X0131205Y0110338D02*
X0088316Y0110338D01*
X0087770Y0111964D02*
X0089351Y0112618D01*
X0090560Y0113828D01*
X0091215Y0115408D01*
X0091215Y0117119D01*
X0090560Y0118700D01*
X0089351Y0119909D01*
X0087770Y0120564D01*
X0080860Y0120564D01*
X0079279Y0119909D01*
X0078070Y0118700D01*
X0077415Y0117119D01*
X0077415Y0115408D01*
X0078070Y0113828D01*
X0079279Y0112618D01*
X0080860Y0111964D01*
X0087770Y0111964D01*
X0088666Y0112335D02*
X0152725Y0112335D01*
X0152725Y0113333D02*
X0090066Y0113333D01*
X0090769Y0114332D02*
X0152725Y0114332D01*
X0152725Y0115330D02*
X0091183Y0115330D01*
X0091215Y0116329D02*
X0152725Y0116329D01*
X0152725Y0117327D02*
X0091129Y0117327D01*
X0090715Y0118326D02*
X0152725Y0118326D01*
X0152725Y0119324D02*
X0089936Y0119324D01*
X0088352Y0120323D02*
X0152725Y0120323D01*
X0152725Y0121321D02*
X0068267Y0121321D01*
X0068267Y0120323D02*
X0080278Y0120323D01*
X0080860Y0121964D02*
X0079279Y0122618D01*
X0078070Y0123828D01*
X0077415Y0125408D01*
X0077415Y0127119D01*
X0078070Y0128700D01*
X0079279Y0129909D01*
X0080860Y0130564D01*
X0087770Y0130564D01*
X0089351Y0129909D01*
X0090560Y0128700D01*
X0091215Y0127119D01*
X0091215Y0125408D01*
X0090560Y0123828D01*
X0089351Y0122618D01*
X0087770Y0121964D01*
X0080860Y0121964D01*
X0080000Y0122320D02*
X0068267Y0122320D01*
X0068267Y0123318D02*
X0078579Y0123318D01*
X0077867Y0124317D02*
X0068267Y0124317D01*
X0068267Y0125315D02*
X0077453Y0125315D01*
X0077415Y0126314D02*
X0068267Y0126314D01*
X0068267Y0127312D02*
X0077495Y0127312D01*
X0077909Y0128311D02*
X0068267Y0128311D01*
X0068267Y0129309D02*
X0078680Y0129309D01*
X0080242Y0130308D02*
X0068267Y0130308D01*
X0068267Y0131306D02*
X0152725Y0131306D01*
X0152725Y0130308D02*
X0088388Y0130308D01*
X0087770Y0131964D02*
X0089351Y0132618D01*
X0090560Y0133828D01*
X0091215Y0135408D01*
X0091215Y0137119D01*
X0090560Y0138700D01*
X0089351Y0139909D01*
X0087770Y0140564D01*
X0080860Y0140564D01*
X0079279Y0139909D01*
X0078070Y0138700D01*
X0077415Y0137119D01*
X0077415Y0135408D01*
X0078070Y0133828D01*
X0079279Y0132618D01*
X0080860Y0131964D01*
X0087770Y0131964D01*
X0088594Y0132305D02*
X0152725Y0132305D01*
X0152725Y0133303D02*
X0090036Y0133303D01*
X0090757Y0134302D02*
X0152725Y0134302D01*
X0152725Y0135301D02*
X0091170Y0135301D01*
X0091215Y0136299D02*
X0152725Y0136299D01*
X0152725Y0137298D02*
X0091141Y0137298D01*
X0090727Y0138296D02*
X0152725Y0138296D01*
X0152725Y0139295D02*
X0089965Y0139295D01*
X0088424Y0140293D02*
X0103483Y0140293D01*
X0103778Y0139998D02*
X0101376Y0142400D01*
X0101376Y0143798D01*
X0105176Y0143798D01*
X0105176Y0144398D01*
X0101376Y0144398D01*
X0101376Y0145797D01*
X0103778Y0148198D01*
X0105176Y0148198D01*
X0105176Y0144398D01*
X0105776Y0144398D01*
X0109576Y0144398D01*
X0109576Y0145797D01*
X0107175Y0148198D01*
X0105776Y0148198D01*
X0105776Y0144398D01*
X0105776Y0143798D01*
X0105776Y0139998D01*
X0107175Y0139998D01*
X0109576Y0142400D01*
X0109576Y0143798D01*
X0105776Y0143798D01*
X0105176Y0143798D01*
X0105176Y0139998D01*
X0103778Y0139998D01*
X0105176Y0140293D02*
X0105776Y0140293D01*
X0105776Y0141292D02*
X0105176Y0141292D01*
X0105176Y0142290D02*
X0105776Y0142290D01*
X0105776Y0143289D02*
X0105176Y0143289D01*
X0105176Y0144287D02*
X0090509Y0144287D01*
X0090422Y0144115D02*
X0090715Y0144690D01*
X0090914Y0145304D01*
X0091015Y0145941D01*
X0091015Y0145964D01*
X0084615Y0145964D01*
X0084615Y0146564D01*
X0084015Y0146564D01*
X0084015Y0150364D01*
X0081392Y0150364D01*
X0080755Y0150263D01*
X0080141Y0150063D01*
X0079566Y0149770D01*
X0079044Y0149391D01*
X0078588Y0148935D01*
X0078208Y0148413D01*
X0077915Y0147838D01*
X0077716Y0147224D01*
X0077615Y0146586D01*
X0077615Y0146564D01*
X0084015Y0146564D01*
X0084015Y0145964D01*
X0077615Y0145964D01*
X0077615Y0145941D01*
X0077716Y0145304D01*
X0077915Y0144690D01*
X0078208Y0144115D01*
X0078588Y0143593D01*
X0079044Y0143136D01*
X0079566Y0142757D01*
X0080141Y0142464D01*
X0080755Y0142265D01*
X0081392Y0142164D01*
X0084015Y0142164D01*
X0084015Y0145964D01*
X0084615Y0145964D01*
X0084615Y0142164D01*
X0087238Y0142164D01*
X0087875Y0142265D01*
X0088489Y0142464D01*
X0089064Y0142757D01*
X0089586Y0143136D01*
X0090042Y0143593D01*
X0090422Y0144115D01*
X0089738Y0143289D02*
X0101376Y0143289D01*
X0101486Y0142290D02*
X0087953Y0142290D01*
X0084615Y0142290D02*
X0084015Y0142290D01*
X0084015Y0143289D02*
X0084615Y0143289D01*
X0084615Y0144287D02*
X0084015Y0144287D01*
X0084015Y0145286D02*
X0084615Y0145286D01*
X0084615Y0146284D02*
X0101864Y0146284D01*
X0101376Y0145286D02*
X0090908Y0145286D01*
X0091015Y0146564D02*
X0091015Y0146586D01*
X0090914Y0147224D01*
X0090715Y0147838D01*
X0090422Y0148413D01*
X0090042Y0148935D01*
X0089586Y0149391D01*
X0089064Y0149770D01*
X0088489Y0150063D01*
X0087875Y0150263D01*
X0087238Y0150364D01*
X0084615Y0150364D01*
X0084615Y0146564D01*
X0091015Y0146564D01*
X0090895Y0147283D02*
X0102862Y0147283D01*
X0105176Y0147283D02*
X0105776Y0147283D01*
X0105776Y0146284D02*
X0105176Y0146284D01*
X0105176Y0145286D02*
X0105776Y0145286D01*
X0105776Y0144287D02*
X0152725Y0144287D01*
X0152725Y0143289D02*
X0109576Y0143289D01*
X0109466Y0142290D02*
X0152725Y0142290D01*
X0152725Y0141292D02*
X0108468Y0141292D01*
X0107469Y0140293D02*
X0152725Y0140293D01*
X0157125Y0140293D02*
X0189656Y0140293D01*
X0188813Y0139295D02*
X0157125Y0139295D01*
X0157125Y0138296D02*
X0188399Y0138296D01*
X0188100Y0137298D02*
X0157125Y0137298D01*
X0157125Y0136299D02*
X0188100Y0136299D01*
X0188152Y0135301D02*
X0157125Y0135301D01*
X0157125Y0134302D02*
X0188566Y0134302D01*
X0189060Y0133303D02*
X0157125Y0133303D01*
X0157125Y0132305D02*
X0190058Y0132305D01*
X0190993Y0131306D02*
X0157125Y0131306D01*
X0157125Y0130308D02*
X0189671Y0130308D01*
X0188819Y0129309D02*
X0157125Y0129309D01*
X0157125Y0128311D02*
X0188405Y0128311D01*
X0188100Y0127312D02*
X0157125Y0127312D01*
X0157125Y0126314D02*
X0188100Y0126314D01*
X0188146Y0125315D02*
X0157125Y0125315D01*
X0157125Y0124317D02*
X0188559Y0124317D01*
X0189045Y0123318D02*
X0157125Y0123318D01*
X0157125Y0122320D02*
X0190043Y0122320D01*
X0191029Y0121321D02*
X0157125Y0121321D01*
X0157125Y0120323D02*
X0189686Y0120323D01*
X0188825Y0119324D02*
X0157125Y0119324D01*
X0157125Y0118326D02*
X0188411Y0118326D01*
X0188100Y0117327D02*
X0157125Y0117327D01*
X0157125Y0116329D02*
X0188100Y0116329D01*
X0188140Y0115330D02*
X0157125Y0115330D01*
X0157125Y0114332D02*
X0188553Y0114332D01*
X0189030Y0113333D02*
X0157125Y0113333D01*
X0157125Y0112335D02*
X0190028Y0112335D01*
X0191065Y0111336D02*
X0157125Y0111336D01*
X0157125Y0110338D02*
X0163142Y0110338D01*
X0163227Y0110423D02*
X0160825Y0108021D01*
X0160825Y0106623D01*
X0164625Y0106623D01*
X0164625Y0106023D01*
X0160825Y0106023D01*
X0160825Y0104625D01*
X0163227Y0102223D01*
X0164625Y0102223D01*
X0164625Y0106023D01*
X0165225Y0106023D01*
X0165225Y0102223D01*
X0166623Y0102223D01*
X0169025Y0104625D01*
X0169025Y0106023D01*
X0165225Y0106023D01*
X0165225Y0106623D01*
X0164625Y0106623D01*
X0164625Y0110423D01*
X0163227Y0110423D01*
X0164625Y0110338D02*
X0165225Y0110338D01*
X0165225Y0110423D02*
X0166623Y0110423D01*
X0169025Y0108021D01*
X0169025Y0106623D01*
X0165225Y0106623D01*
X0165225Y0110423D01*
X0165225Y0109339D02*
X0164625Y0109339D01*
X0164625Y0108341D02*
X0165225Y0108341D01*
X0165225Y0107342D02*
X0164625Y0107342D01*
X0164625Y0106344D02*
X0159225Y0106344D01*
X0159225Y0107342D02*
X0160825Y0107342D01*
X0161145Y0108341D02*
X0158988Y0108341D01*
X0157990Y0109339D02*
X0162143Y0109339D01*
X0165225Y0106344D02*
X0188100Y0106344D01*
X0188100Y0107342D02*
X0169025Y0107342D01*
X0168706Y0108341D02*
X0188418Y0108341D01*
X0188831Y0109339D02*
X0167707Y0109339D01*
X0166709Y0110338D02*
X0189701Y0110338D01*
X0188133Y0105345D02*
X0169025Y0105345D01*
X0168747Y0104347D02*
X0188547Y0104347D01*
X0189015Y0103348D02*
X0167749Y0103348D01*
X0166750Y0102350D02*
X0190014Y0102350D01*
X0191101Y0101351D02*
X0163478Y0101351D01*
X0163100Y0102350D02*
X0162479Y0102350D01*
X0162102Y0103348D02*
X0158032Y0103348D01*
X0157371Y0102350D02*
X0157033Y0102350D01*
X0159030Y0104347D02*
X0161103Y0104347D01*
X0160825Y0105345D02*
X0159225Y0105345D01*
X0154925Y0106323D02*
X0154925Y0145201D01*
X0156362Y0146638D01*
X0150102Y0152898D01*
X0145457Y0152898D01*
X0145457Y0163193D01*
X0123409Y0185575D01*
X0117150Y0191500D01*
X0021500Y0191500D01*
X0006500Y0176500D01*
X0011410Y0174242D02*
X0050449Y0174242D01*
X0051448Y0173244D02*
X0010881Y0173244D01*
X0009882Y0172245D02*
X0052446Y0172245D01*
X0053445Y0171247D02*
X0008638Y0171247D01*
X0010105Y0170248D02*
X0054443Y0170248D01*
X0055442Y0169250D02*
X0010930Y0169250D01*
X0011399Y0168251D02*
X0056440Y0168251D01*
X0057439Y0167253D02*
X0011646Y0167253D01*
X0011563Y0165256D02*
X0059436Y0165256D01*
X0058437Y0166254D02*
X0007000Y0166254D01*
X0011193Y0164257D02*
X0060435Y0164257D01*
X0061433Y0163259D02*
X0010573Y0163259D01*
X0009511Y0162260D02*
X0020333Y0162260D01*
X0020861Y0162788D02*
X0018342Y0160269D01*
X0018342Y0156707D01*
X0020861Y0154188D01*
X0024423Y0154188D01*
X0026942Y0156707D01*
X0026942Y0160269D01*
X0024423Y0162788D01*
X0020861Y0162788D01*
X0019334Y0161262D02*
X0009115Y0161262D01*
X0010373Y0160263D02*
X0018342Y0160263D01*
X0018342Y0159265D02*
X0011200Y0159265D01*
X0011613Y0158266D02*
X0018342Y0158266D01*
X0018342Y0157268D02*
X0011900Y0157268D01*
X0011900Y0156269D02*
X0018780Y0156269D01*
X0019778Y0155271D02*
X0011836Y0155271D01*
X0011839Y0154272D02*
X0020777Y0154272D01*
X0024507Y0154272D02*
X0047886Y0154272D01*
X0048070Y0153828D02*
X0047415Y0155408D01*
X0047415Y0157119D01*
X0048070Y0158700D01*
X0049279Y0159909D01*
X0050860Y0160564D01*
X0057770Y0160564D01*
X0059351Y0159909D01*
X0060560Y0158700D01*
X0061215Y0157119D01*
X0061215Y0155408D01*
X0060560Y0153828D01*
X0059351Y0152618D01*
X0057770Y0151964D01*
X0050860Y0151964D01*
X0049279Y0152618D01*
X0048070Y0153828D01*
X0048624Y0153274D02*
X0012838Y0153274D01*
X0013836Y0152275D02*
X0050108Y0152275D01*
X0050860Y0150564D02*
X0049279Y0149909D01*
X0048070Y0148700D01*
X0047415Y0147119D01*
X0047415Y0145408D01*
X0048070Y0143828D01*
X0049279Y0142618D01*
X0050860Y0141964D01*
X0057770Y0141964D01*
X0059351Y0142618D01*
X0060560Y0143828D01*
X0061215Y0145408D01*
X0061215Y0147119D01*
X0060560Y0148700D01*
X0059351Y0149909D01*
X0057770Y0150564D01*
X0050860Y0150564D01*
X0050170Y0150278D02*
X0015833Y0150278D01*
X0016832Y0149280D02*
X0048650Y0149280D01*
X0047896Y0148281D02*
X0017830Y0148281D01*
X0018829Y0147283D02*
X0047483Y0147283D01*
X0047415Y0146284D02*
X0019827Y0146284D01*
X0020826Y0145286D02*
X0047466Y0145286D01*
X0047879Y0144287D02*
X0021824Y0144287D01*
X0021500Y0141500D02*
X0039079Y0141500D01*
X0054315Y0126264D01*
X0052384Y0131306D02*
X0063867Y0131306D01*
X0063867Y0130308D02*
X0058388Y0130308D01*
X0059950Y0129309D02*
X0063867Y0129309D01*
X0063867Y0128311D02*
X0060721Y0128311D01*
X0061135Y0127312D02*
X0063867Y0127312D01*
X0063867Y0126314D02*
X0061215Y0126314D01*
X0061176Y0125315D02*
X0063867Y0125315D01*
X0063867Y0124317D02*
X0060763Y0124317D01*
X0060051Y0123318D02*
X0063867Y0123318D01*
X0063867Y0122320D02*
X0058630Y0122320D01*
X0058352Y0120323D02*
X0063867Y0120323D01*
X0063867Y0121321D02*
X0052369Y0121321D01*
X0048143Y0119324D02*
X0040564Y0119324D01*
X0040564Y0118326D02*
X0047915Y0118326D01*
X0047501Y0117327D02*
X0040851Y0117327D01*
X0041849Y0116329D02*
X0047415Y0116329D01*
X0047447Y0115330D02*
X0042848Y0115330D01*
X0043700Y0114332D02*
X0047861Y0114332D01*
X0048564Y0113333D02*
X0043700Y0113333D01*
X0043700Y0112335D02*
X0049964Y0112335D01*
X0050860Y0110564D02*
X0049279Y0109909D01*
X0048070Y0108700D01*
X0047415Y0107119D01*
X0047415Y0105408D01*
X0048070Y0103828D01*
X0049279Y0102618D01*
X0050860Y0101964D01*
X0057770Y0101964D01*
X0059351Y0102618D01*
X0060560Y0103828D01*
X0061215Y0105408D01*
X0061215Y0107119D01*
X0060560Y0108700D01*
X0059351Y0109909D01*
X0057770Y0110564D01*
X0050860Y0110564D01*
X0050314Y0110338D02*
X0043700Y0110338D01*
X0043700Y0111336D02*
X0062586Y0111336D01*
X0062645Y0112335D02*
X0058666Y0112335D01*
X0060066Y0113333D02*
X0063058Y0113333D01*
X0063867Y0114332D02*
X0060769Y0114332D01*
X0061183Y0115330D02*
X0063867Y0115330D01*
X0063867Y0116329D02*
X0061215Y0116329D01*
X0061129Y0117327D02*
X0063867Y0117327D01*
X0063867Y0118326D02*
X0060715Y0118326D01*
X0059936Y0119324D02*
X0063867Y0119324D01*
X0068267Y0119324D02*
X0078694Y0119324D01*
X0077915Y0118326D02*
X0068267Y0118326D01*
X0068267Y0117327D02*
X0077501Y0117327D01*
X0077415Y0116329D02*
X0068267Y0116329D01*
X0068267Y0115330D02*
X0077447Y0115330D01*
X0077861Y0114332D02*
X0068267Y0114332D01*
X0069075Y0113333D02*
X0078564Y0113333D01*
X0079964Y0112335D02*
X0069489Y0112335D01*
X0066067Y0111500D02*
X0066067Y0068016D01*
X0054315Y0056264D01*
X0054374Y0056323D01*
X0056351Y0061411D02*
X0042215Y0061411D01*
X0042215Y0060412D02*
X0050494Y0060412D01*
X0048784Y0059414D02*
X0041926Y0059414D01*
X0041513Y0058415D02*
X0047952Y0058415D01*
X0047538Y0057417D02*
X0040683Y0057417D01*
X0039417Y0056418D02*
X0047415Y0056418D01*
X0047415Y0055420D02*
X0003200Y0055420D01*
X0003200Y0056418D02*
X0034212Y0056418D01*
X0032947Y0057417D02*
X0003200Y0057417D01*
X0003200Y0058415D02*
X0032117Y0058415D01*
X0031704Y0059414D02*
X0003200Y0059414D01*
X0003200Y0060412D02*
X0031415Y0060412D01*
X0031415Y0061411D02*
X0007608Y0061411D01*
X0007718Y0061428D02*
X0008496Y0061681D01*
X0009225Y0062053D01*
X0009888Y0062534D01*
X0010466Y0063112D01*
X0010947Y0063775D01*
X0011319Y0064504D01*
X0011572Y0065282D01*
X0011686Y0066000D01*
X0007000Y0066000D01*
X0007000Y0061314D01*
X0007718Y0061428D01*
X0007000Y0061411D02*
X0006000Y0061411D01*
X0005392Y0061411D02*
X0003200Y0061411D01*
X0003200Y0062409D02*
X0003284Y0062409D01*
X0006000Y0062409D02*
X0007000Y0062409D01*
X0007000Y0063408D02*
X0006000Y0063408D01*
X0006000Y0064406D02*
X0007000Y0064406D01*
X0007000Y0065405D02*
X0006000Y0065405D01*
X0007000Y0066403D02*
X0034746Y0066403D01*
X0033398Y0065405D02*
X0011591Y0065405D01*
X0011269Y0064406D02*
X0032399Y0064406D01*
X0031891Y0063408D02*
X0010681Y0063408D01*
X0009716Y0062409D02*
X0031477Y0062409D01*
X0033244Y0067402D02*
X0011622Y0067402D01*
X0011350Y0068400D02*
X0032411Y0068400D01*
X0031928Y0069399D02*
X0010821Y0069399D01*
X0009957Y0070397D02*
X0031675Y0070397D01*
X0031742Y0072394D02*
X0010031Y0072394D01*
X0011030Y0073393D02*
X0032104Y0073393D01*
X0032717Y0074391D02*
X0017503Y0074391D01*
X0018501Y0075390D02*
X0033756Y0075390D01*
X0034284Y0076388D02*
X0019500Y0076388D01*
X0020498Y0077387D02*
X0032976Y0077387D01*
X0032130Y0078385D02*
X0021497Y0078385D01*
X0022495Y0079384D02*
X0031716Y0079384D01*
X0031415Y0080382D02*
X0023494Y0080382D01*
X0024492Y0081381D02*
X0031415Y0081381D01*
X0031465Y0082379D02*
X0025491Y0082379D01*
X0026489Y0083378D02*
X0031878Y0083378D01*
X0032370Y0084376D02*
X0027488Y0084376D01*
X0028486Y0085375D02*
X0033368Y0085375D01*
X0035230Y0086373D02*
X0029485Y0086373D01*
X0030483Y0087372D02*
X0047764Y0087372D01*
X0047716Y0087224D02*
X0047615Y0086586D01*
X0047615Y0086564D01*
X0054015Y0086564D01*
X0054015Y0090364D01*
X0051392Y0090364D01*
X0050755Y0090263D01*
X0050141Y0090063D01*
X0049566Y0089770D01*
X0049044Y0089391D01*
X0048588Y0088935D01*
X0048208Y0088413D01*
X0047915Y0087838D01*
X0047716Y0087224D01*
X0048187Y0088370D02*
X0031482Y0088370D01*
X0032480Y0089369D02*
X0049022Y0089369D01*
X0047615Y0085964D02*
X0047615Y0085941D01*
X0047716Y0085304D01*
X0047915Y0084690D01*
X0048208Y0084115D01*
X0048588Y0083593D01*
X0049044Y0083136D01*
X0049566Y0082757D01*
X0050141Y0082464D01*
X0050755Y0082265D01*
X0051392Y0082164D01*
X0054015Y0082164D01*
X0054015Y0085964D01*
X0047615Y0085964D01*
X0047705Y0085375D02*
X0040262Y0085375D01*
X0041260Y0084376D02*
X0048075Y0084376D01*
X0048803Y0083378D02*
X0041752Y0083378D01*
X0042165Y0082379D02*
X0050402Y0082379D01*
X0050860Y0080564D02*
X0049279Y0079909D01*
X0048070Y0078700D01*
X0047415Y0077119D01*
X0047415Y0075408D01*
X0048070Y0073828D01*
X0049279Y0072618D01*
X0050860Y0071964D01*
X0057770Y0071964D01*
X0059351Y0072618D01*
X0060560Y0073828D01*
X0061215Y0075408D01*
X0061215Y0077119D01*
X0060560Y0078700D01*
X0059351Y0079909D01*
X0057770Y0080564D01*
X0050860Y0080564D01*
X0050422Y0080382D02*
X0042215Y0080382D01*
X0042215Y0081381D02*
X0063867Y0081381D01*
X0063867Y0082379D02*
X0058228Y0082379D01*
X0058489Y0082464D02*
X0059064Y0082757D01*
X0059586Y0083136D01*
X0060042Y0083593D01*
X0060422Y0084115D01*
X0060715Y0084690D01*
X0060914Y0085304D01*
X0061015Y0085941D01*
X0061015Y0085964D01*
X0054615Y0085964D01*
X0054615Y0086564D01*
X0054015Y0086564D01*
X0054015Y0085964D01*
X0054615Y0085964D01*
X0054615Y0082164D01*
X0057238Y0082164D01*
X0057875Y0082265D01*
X0058489Y0082464D01*
X0059827Y0083378D02*
X0063867Y0083378D01*
X0063867Y0084376D02*
X0060555Y0084376D01*
X0060925Y0085375D02*
X0063867Y0085375D01*
X0063867Y0086373D02*
X0054615Y0086373D01*
X0054615Y0086564D02*
X0061015Y0086564D01*
X0061015Y0086586D01*
X0060914Y0087224D01*
X0060715Y0087838D01*
X0060422Y0088413D01*
X0060042Y0088935D01*
X0059586Y0089391D01*
X0059064Y0089770D01*
X0058489Y0090063D01*
X0057875Y0090263D01*
X0057238Y0090364D01*
X0054615Y0090364D01*
X0054615Y0086564D01*
X0054015Y0086373D02*
X0038400Y0086373D01*
X0034477Y0091366D02*
X0063867Y0091366D01*
X0063867Y0090368D02*
X0033479Y0090368D01*
X0035476Y0092365D02*
X0049892Y0092365D01*
X0049279Y0092618D02*
X0050860Y0091964D01*
X0057770Y0091964D01*
X0059351Y0092618D01*
X0060560Y0093828D01*
X0061215Y0095408D01*
X0061215Y0097119D01*
X0060560Y0098700D01*
X0059351Y0099909D01*
X0057770Y0100564D01*
X0050860Y0100564D01*
X0049279Y0099909D01*
X0048070Y0098700D01*
X0047415Y0097119D01*
X0047415Y0095408D01*
X0048070Y0093828D01*
X0049279Y0092618D01*
X0048535Y0093363D02*
X0036474Y0093363D01*
X0037473Y0094362D02*
X0047849Y0094362D01*
X0047435Y0095360D02*
X0038471Y0095360D01*
X0039470Y0096359D02*
X0047415Y0096359D01*
X0047514Y0097357D02*
X0040468Y0097357D01*
X0041467Y0098356D02*
X0047927Y0098356D01*
X0048724Y0099354D02*
X0042465Y0099354D01*
X0043464Y0100353D02*
X0050350Y0100353D01*
X0049928Y0102350D02*
X0043700Y0102350D01*
X0043700Y0103348D02*
X0048549Y0103348D01*
X0047855Y0104347D02*
X0043700Y0104347D01*
X0043700Y0105345D02*
X0047441Y0105345D01*
X0047415Y0106344D02*
X0043700Y0106344D01*
X0043700Y0107342D02*
X0047507Y0107342D01*
X0047921Y0108341D02*
X0043700Y0108341D01*
X0043700Y0109339D02*
X0048709Y0109339D01*
X0041500Y0113567D02*
X0041500Y0101500D01*
X0016500Y0076500D01*
X0006500Y0076500D01*
X0010254Y0080382D02*
X0017271Y0080382D01*
X0016273Y0079384D02*
X0011150Y0079384D01*
X0008827Y0081381D02*
X0018270Y0081381D01*
X0019268Y0082379D02*
X0010016Y0082379D01*
X0011015Y0083378D02*
X0020267Y0083378D01*
X0021265Y0084376D02*
X0011465Y0084376D01*
X0011879Y0085375D02*
X0022264Y0085375D01*
X0023262Y0086373D02*
X0011900Y0086373D01*
X0011900Y0087372D02*
X0024261Y0087372D01*
X0025259Y0088370D02*
X0011570Y0088370D01*
X0011157Y0089369D02*
X0026258Y0089369D01*
X0027256Y0090368D02*
X0010269Y0090368D01*
X0008863Y0091366D02*
X0028255Y0091366D01*
X0029253Y0092365D02*
X0010001Y0092365D01*
X0011000Y0093363D02*
X0030252Y0093363D01*
X0031250Y0094362D02*
X0017473Y0094362D01*
X0018471Y0095360D02*
X0032249Y0095360D01*
X0033247Y0096359D02*
X0019470Y0096359D01*
X0020468Y0097357D02*
X0034246Y0097357D01*
X0035244Y0098356D02*
X0021467Y0098356D01*
X0022465Y0099354D02*
X0036243Y0099354D01*
X0037241Y0100353D02*
X0023464Y0100353D01*
X0024462Y0101351D02*
X0038240Y0101351D01*
X0039238Y0102350D02*
X0025461Y0102350D01*
X0026459Y0103348D02*
X0039300Y0103348D01*
X0039300Y0104347D02*
X0027458Y0104347D01*
X0028456Y0105345D02*
X0039300Y0105345D01*
X0039300Y0106344D02*
X0029455Y0106344D01*
X0030453Y0107342D02*
X0039300Y0107342D01*
X0039300Y0108341D02*
X0032969Y0108341D01*
X0034262Y0109339D02*
X0039300Y0109339D01*
X0039300Y0110338D02*
X0034786Y0110338D01*
X0034981Y0111336D02*
X0039300Y0111336D01*
X0039300Y0112335D02*
X0034922Y0112335D01*
X0034509Y0113333D02*
X0038622Y0113333D01*
X0037624Y0114332D02*
X0033591Y0114332D01*
X0033656Y0115330D02*
X0025282Y0115330D01*
X0024340Y0114388D02*
X0026742Y0116790D01*
X0026742Y0118188D01*
X0022942Y0118188D01*
X0022942Y0118788D01*
X0026742Y0118788D01*
X0026742Y0120186D01*
X0024340Y0122588D01*
X0022942Y0122588D01*
X0022942Y0118788D01*
X0022342Y0118788D01*
X0022342Y0122588D01*
X0020943Y0122588D01*
X0018542Y0120186D01*
X0018542Y0118788D01*
X0022342Y0118788D01*
X0022342Y0118188D01*
X0022942Y0118188D01*
X0022942Y0114388D01*
X0024340Y0114388D01*
X0022942Y0115330D02*
X0022342Y0115330D01*
X0022342Y0114388D02*
X0022342Y0118188D01*
X0018542Y0118188D01*
X0018542Y0116790D01*
X0020943Y0114388D01*
X0022342Y0114388D01*
X0022342Y0116329D02*
X0022942Y0116329D01*
X0022942Y0117327D02*
X0022342Y0117327D01*
X0022342Y0118326D02*
X0011589Y0118326D01*
X0011900Y0117327D02*
X0018542Y0117327D01*
X0019003Y0116329D02*
X0011900Y0116329D01*
X0011860Y0115330D02*
X0020001Y0115330D01*
X0022942Y0118326D02*
X0031964Y0118326D01*
X0031964Y0119324D02*
X0026742Y0119324D01*
X0026605Y0120323D02*
X0031964Y0120323D01*
X0032701Y0121321D02*
X0025607Y0121321D01*
X0024608Y0122320D02*
X0033699Y0122320D01*
X0036264Y0118803D02*
X0041500Y0113567D01*
X0040564Y0120323D02*
X0047145Y0120323D01*
X0046146Y0121321D02*
X0039827Y0121321D01*
X0038828Y0122320D02*
X0045148Y0122320D01*
X0044149Y0123318D02*
X0010955Y0123318D01*
X0011441Y0124317D02*
X0043151Y0124317D01*
X0042152Y0125315D02*
X0011854Y0125315D01*
X0011900Y0126314D02*
X0041154Y0126314D01*
X0040155Y0127312D02*
X0011900Y0127312D01*
X0011595Y0128311D02*
X0039157Y0128311D01*
X0039079Y0131500D02*
X0054315Y0116264D01*
X0058316Y0110338D02*
X0062780Y0110338D01*
X0063305Y0109339D02*
X0059921Y0109339D01*
X0060709Y0108341D02*
X0063867Y0108341D01*
X0063867Y0107342D02*
X0061123Y0107342D01*
X0061215Y0106344D02*
X0063867Y0106344D01*
X0063867Y0105345D02*
X0061189Y0105345D01*
X0060775Y0104347D02*
X0063867Y0104347D01*
X0063867Y0103348D02*
X0060080Y0103348D01*
X0058702Y0102350D02*
X0063867Y0102350D01*
X0063867Y0101351D02*
X0043700Y0101351D01*
X0054015Y0089369D02*
X0054615Y0089369D01*
X0054615Y0088370D02*
X0054015Y0088370D01*
X0054015Y0087372D02*
X0054615Y0087372D01*
X0054615Y0085375D02*
X0054015Y0085375D01*
X0054015Y0084376D02*
X0054615Y0084376D01*
X0054615Y0083378D02*
X0054015Y0083378D01*
X0054015Y0082379D02*
X0054615Y0082379D01*
X0058208Y0080382D02*
X0063867Y0080382D01*
X0063867Y0079384D02*
X0059876Y0079384D01*
X0060690Y0078385D02*
X0063867Y0078385D01*
X0063867Y0077387D02*
X0061104Y0077387D01*
X0061215Y0076388D02*
X0063867Y0076388D01*
X0063867Y0075390D02*
X0061207Y0075390D01*
X0060794Y0074391D02*
X0063867Y0074391D01*
X0063867Y0073393D02*
X0060125Y0073393D01*
X0058810Y0072394D02*
X0063867Y0072394D01*
X0063867Y0071396D02*
X0037315Y0071396D01*
X0036315Y0071396D02*
X0008288Y0071396D01*
X0003200Y0054421D02*
X0047824Y0054421D01*
X0048475Y0053423D02*
X0003200Y0053423D01*
X0003200Y0052424D02*
X0049748Y0052424D01*
X0049784Y0062409D02*
X0042153Y0062409D01*
X0043199Y0063408D02*
X0048490Y0063408D01*
X0043272Y0066264D02*
X0036815Y0061185D01*
X0038884Y0066403D02*
X0039891Y0066403D01*
X0040386Y0067402D02*
X0041160Y0067402D01*
X0041219Y0068400D02*
X0042297Y0068400D01*
X0041702Y0069399D02*
X0048769Y0069399D01*
X0050458Y0070397D02*
X0041955Y0070397D01*
X0041888Y0072394D02*
X0049820Y0072394D01*
X0048505Y0073393D02*
X0041526Y0073393D01*
X0040913Y0074391D02*
X0047836Y0074391D01*
X0047423Y0075390D02*
X0039874Y0075390D01*
X0039346Y0076388D02*
X0047415Y0076388D01*
X0047526Y0077387D02*
X0040654Y0077387D01*
X0041500Y0078385D02*
X0047939Y0078385D01*
X0048754Y0079384D02*
X0041914Y0079384D01*
X0043272Y0066264D02*
X0054315Y0066264D01*
X0058172Y0070397D02*
X0063867Y0070397D01*
X0063867Y0069399D02*
X0059861Y0069399D01*
X0060684Y0068400D02*
X0063340Y0068400D01*
X0062342Y0067402D02*
X0061098Y0067402D01*
X0061215Y0066403D02*
X0061343Y0066403D01*
X0061575Y0060412D02*
X0080494Y0060412D01*
X0084015Y0062409D02*
X0084615Y0062409D01*
X0084615Y0063408D02*
X0084015Y0063408D01*
X0084015Y0064406D02*
X0084615Y0064406D01*
X0084615Y0065405D02*
X0084015Y0065405D01*
X0084015Y0067402D02*
X0084615Y0067402D01*
X0084615Y0068400D02*
X0084015Y0068400D01*
X0084015Y0069399D02*
X0084615Y0069399D01*
X0089575Y0069399D02*
X0098069Y0069399D01*
X0099067Y0068400D02*
X0090428Y0068400D01*
X0090856Y0067402D02*
X0100066Y0067402D01*
X0095073Y0072394D02*
X0088810Y0072394D01*
X0090125Y0073393D02*
X0094075Y0073393D01*
X0093076Y0074391D02*
X0090794Y0074391D01*
X0091207Y0075390D02*
X0092078Y0075390D01*
X0086087Y0081381D02*
X0068267Y0081381D01*
X0063867Y0087372D02*
X0060866Y0087372D01*
X0060443Y0088370D02*
X0063867Y0088370D01*
X0063867Y0089369D02*
X0059608Y0089369D01*
X0058738Y0092365D02*
X0063867Y0092365D01*
X0063867Y0093363D02*
X0060095Y0093363D01*
X0060781Y0094362D02*
X0063867Y0094362D01*
X0063867Y0095360D02*
X0061195Y0095360D01*
X0061215Y0096359D02*
X0063867Y0096359D01*
X0063867Y0097357D02*
X0061116Y0097357D01*
X0060703Y0098356D02*
X0063867Y0098356D01*
X0063867Y0099354D02*
X0059906Y0099354D01*
X0058280Y0100353D02*
X0063867Y0100353D01*
X0068267Y0099354D02*
X0078724Y0099354D01*
X0077927Y0098356D02*
X0068267Y0098356D01*
X0068267Y0097357D02*
X0077514Y0097357D01*
X0077415Y0096359D02*
X0068267Y0096359D01*
X0068267Y0095360D02*
X0077435Y0095360D01*
X0077849Y0094362D02*
X0068267Y0094362D01*
X0068267Y0093363D02*
X0078535Y0093363D01*
X0079892Y0092365D02*
X0068267Y0092365D01*
X0066067Y0111500D02*
X0066067Y0161736D01*
X0045535Y0182268D01*
X0045535Y0183567D01*
X0041555Y0187223D02*
X0029516Y0187223D01*
X0030113Y0186626D02*
X0028594Y0188145D01*
X0026610Y0188967D01*
X0024461Y0188967D01*
X0022477Y0188145D01*
X0020958Y0186626D01*
X0020135Y0184641D01*
X0020135Y0182493D01*
X0020958Y0180508D01*
X0022477Y0178989D01*
X0024461Y0178167D01*
X0026610Y0178167D01*
X0028594Y0178989D01*
X0030113Y0180508D01*
X0030935Y0182493D01*
X0030935Y0184641D01*
X0030113Y0186626D01*
X0030280Y0186225D02*
X0040791Y0186225D01*
X0040378Y0185226D02*
X0030693Y0185226D01*
X0030935Y0184228D02*
X0040135Y0184228D01*
X0040135Y0183229D02*
X0030935Y0183229D01*
X0030827Y0182231D02*
X0040244Y0182231D01*
X0040658Y0181232D02*
X0030413Y0181232D01*
X0029839Y0180234D02*
X0041232Y0180234D01*
X0042231Y0179235D02*
X0028840Y0179235D01*
X0026778Y0178237D02*
X0044293Y0178237D01*
X0047454Y0177238D02*
X0011900Y0177238D01*
X0011900Y0176239D02*
X0048452Y0176239D01*
X0049451Y0175241D02*
X0011823Y0175241D01*
X0011626Y0178237D02*
X0024293Y0178237D01*
X0022231Y0179235D02*
X0012346Y0179235D01*
X0013345Y0180234D02*
X0021232Y0180234D01*
X0020658Y0181232D02*
X0014343Y0181232D01*
X0015342Y0182231D02*
X0020244Y0182231D01*
X0020135Y0183229D02*
X0016340Y0183229D01*
X0017339Y0184228D02*
X0020135Y0184228D01*
X0020378Y0185226D02*
X0018337Y0185226D01*
X0019336Y0186225D02*
X0020791Y0186225D01*
X0020334Y0187223D02*
X0021555Y0187223D01*
X0021333Y0188222D02*
X0022662Y0188222D01*
X0022331Y0189220D02*
X0095698Y0189220D01*
X0094700Y0188222D02*
X0084069Y0188222D01*
X0084067Y0188224D02*
X0082082Y0189046D01*
X0079934Y0189046D01*
X0077949Y0188224D01*
X0076430Y0186705D01*
X0075608Y0184720D01*
X0075608Y0182572D01*
X0076430Y0180587D01*
X0077949Y0179068D01*
X0079934Y0178246D01*
X0082082Y0178246D01*
X0084067Y0179068D01*
X0085586Y0180587D01*
X0086408Y0182572D01*
X0086408Y0184720D01*
X0085586Y0186705D01*
X0084067Y0188224D01*
X0085067Y0187223D02*
X0093991Y0187223D01*
X0093991Y0186225D02*
X0085785Y0186225D01*
X0086198Y0185226D02*
X0093991Y0185226D01*
X0093991Y0184228D02*
X0086408Y0184228D01*
X0086408Y0183229D02*
X0094713Y0183229D01*
X0095712Y0182231D02*
X0086267Y0182231D01*
X0085853Y0181232D02*
X0118599Y0181232D01*
X0118067Y0180234D02*
X0085232Y0180234D01*
X0084234Y0179235D02*
X0117534Y0179235D01*
X0117001Y0178237D02*
X0052678Y0178237D01*
X0051679Y0179235D02*
X0058232Y0179235D01*
X0058282Y0179198D02*
X0059012Y0178827D01*
X0059790Y0178574D01*
X0060508Y0178460D01*
X0060508Y0183146D01*
X0055822Y0183146D01*
X0055936Y0182428D01*
X0056189Y0181650D01*
X0056560Y0180920D01*
X0057042Y0180258D01*
X0057620Y0179679D01*
X0058282Y0179198D01*
X0057066Y0180234D02*
X0050681Y0180234D01*
X0050413Y0181232D02*
X0056402Y0181232D01*
X0056000Y0182231D02*
X0050827Y0182231D01*
X0050935Y0183229D02*
X0060508Y0183229D01*
X0060508Y0183146D02*
X0060508Y0184146D01*
X0060508Y0188831D01*
X0059790Y0188718D01*
X0059012Y0188465D01*
X0058282Y0188093D01*
X0057620Y0187612D01*
X0057042Y0187033D01*
X0056560Y0186371D01*
X0056189Y0185642D01*
X0055936Y0184863D01*
X0055822Y0184146D01*
X0060508Y0184146D01*
X0061508Y0184146D01*
X0061508Y0188831D01*
X0062226Y0188718D01*
X0063004Y0188465D01*
X0063733Y0188093D01*
X0064395Y0187612D01*
X0064974Y0187033D01*
X0065455Y0186371D01*
X0065827Y0185642D01*
X0066080Y0184863D01*
X0066193Y0184146D01*
X0061508Y0184146D01*
X0061508Y0183146D01*
X0066193Y0183146D01*
X0066080Y0182428D01*
X0065827Y0181650D01*
X0065455Y0180920D01*
X0064974Y0180258D01*
X0064395Y0179679D01*
X0063733Y0179198D01*
X0063004Y0178827D01*
X0062226Y0178574D01*
X0061508Y0178460D01*
X0061508Y0183146D01*
X0060508Y0183146D01*
X0060508Y0182231D02*
X0061508Y0182231D01*
X0061508Y0183229D02*
X0075608Y0183229D01*
X0075608Y0184228D02*
X0066181Y0184228D01*
X0065962Y0185226D02*
X0075818Y0185226D01*
X0076231Y0186225D02*
X0065530Y0186225D01*
X0064784Y0187223D02*
X0076949Y0187223D01*
X0077947Y0188222D02*
X0063481Y0188222D01*
X0061508Y0188222D02*
X0060508Y0188222D01*
X0060508Y0187223D02*
X0061508Y0187223D01*
X0061508Y0186225D02*
X0060508Y0186225D01*
X0060508Y0185226D02*
X0061508Y0185226D01*
X0061508Y0184228D02*
X0060508Y0184228D01*
X0060508Y0181232D02*
X0061508Y0181232D01*
X0061508Y0180234D02*
X0060508Y0180234D01*
X0060508Y0179235D02*
X0061508Y0179235D01*
X0063784Y0179235D02*
X0077782Y0179235D01*
X0076783Y0180234D02*
X0064950Y0180234D01*
X0065614Y0181232D02*
X0076163Y0181232D01*
X0075749Y0182231D02*
X0066016Y0182231D01*
X0058535Y0188222D02*
X0048409Y0188222D01*
X0049516Y0187223D02*
X0057231Y0187223D01*
X0056486Y0186225D02*
X0050280Y0186225D01*
X0050693Y0185226D02*
X0056054Y0185226D01*
X0055835Y0184228D02*
X0050935Y0184228D01*
X0053676Y0177238D02*
X0116469Y0177238D01*
X0115936Y0176239D02*
X0054675Y0176239D01*
X0055673Y0175241D02*
X0115403Y0175241D01*
X0114871Y0174242D02*
X0056672Y0174242D01*
X0057670Y0173244D02*
X0114338Y0173244D01*
X0113805Y0172245D02*
X0058669Y0172245D01*
X0059667Y0171247D02*
X0113273Y0171247D01*
X0112740Y0170248D02*
X0060666Y0170248D01*
X0061665Y0169250D02*
X0112207Y0169250D01*
X0111675Y0168251D02*
X0107405Y0168251D01*
X0108403Y0167253D02*
X0111142Y0167253D01*
X0111953Y0164098D02*
X0123409Y0185575D01*
X0119109Y0185226D02*
X0112591Y0185226D01*
X0112591Y0184228D02*
X0119109Y0184228D01*
X0119665Y0183229D02*
X0111869Y0183229D01*
X0110871Y0182231D02*
X0119132Y0182231D01*
X0119109Y0186225D02*
X0112591Y0186225D01*
X0112591Y0187223D02*
X0118468Y0187223D01*
X0117413Y0188222D02*
X0111883Y0188222D01*
X0110885Y0189220D02*
X0116358Y0189220D01*
X0119594Y0192216D02*
X0142808Y0192216D01*
X0142633Y0192041D02*
X0142633Y0188479D01*
X0145152Y0185960D01*
X0148714Y0185960D01*
X0151233Y0188479D01*
X0151233Y0192041D01*
X0148714Y0194560D01*
X0145152Y0194560D01*
X0142633Y0192041D01*
X0142633Y0191217D02*
X0120649Y0191217D01*
X0121704Y0190219D02*
X0142633Y0190219D01*
X0142633Y0189220D02*
X0135845Y0189220D01*
X0135191Y0189875D02*
X0131628Y0189875D01*
X0129109Y0187356D01*
X0129109Y0183794D01*
X0131628Y0181275D01*
X0135191Y0181275D01*
X0135381Y0181465D01*
X0142653Y0174194D01*
X0142653Y0171648D01*
X0145172Y0169129D01*
X0148734Y0169129D01*
X0151253Y0171648D01*
X0151253Y0175210D01*
X0148734Y0177729D01*
X0146188Y0177729D01*
X0137709Y0186208D01*
X0137709Y0187356D01*
X0135191Y0189875D01*
X0136844Y0188222D02*
X0142890Y0188222D01*
X0143889Y0187223D02*
X0137709Y0187223D01*
X0137709Y0186225D02*
X0144887Y0186225D01*
X0148979Y0186225D02*
X0185170Y0186225D01*
X0185235Y0186160D02*
X0186633Y0186160D01*
X0186633Y0189960D01*
X0182833Y0189960D01*
X0182833Y0188562D01*
X0185235Y0186160D01*
X0186633Y0186225D02*
X0187233Y0186225D01*
X0187233Y0186160D02*
X0188631Y0186160D01*
X0191033Y0188562D01*
X0191033Y0189960D01*
X0187233Y0189960D01*
X0187233Y0190560D01*
X0186633Y0190560D01*
X0186633Y0194360D01*
X0185235Y0194360D01*
X0182833Y0191958D01*
X0182833Y0190560D01*
X0186633Y0190560D01*
X0186633Y0189960D01*
X0187233Y0189960D01*
X0187233Y0186160D01*
X0187233Y0187223D02*
X0186633Y0187223D01*
X0186633Y0188222D02*
X0187233Y0188222D01*
X0187233Y0189220D02*
X0186633Y0189220D01*
X0186633Y0190219D02*
X0151233Y0190219D01*
X0151233Y0191217D02*
X0182833Y0191217D01*
X0183091Y0192216D02*
X0151058Y0192216D01*
X0150060Y0193214D02*
X0184089Y0193214D01*
X0185088Y0194213D02*
X0149061Y0194213D01*
X0144805Y0194213D02*
X0003200Y0194213D01*
X0003200Y0195211D02*
X0196650Y0195211D01*
X0196650Y0194213D02*
X0188778Y0194213D01*
X0188631Y0194360D02*
X0187233Y0194360D01*
X0187233Y0190560D01*
X0191033Y0190560D01*
X0191033Y0191958D01*
X0188631Y0194360D01*
X0187233Y0194213D02*
X0186633Y0194213D01*
X0186633Y0193214D02*
X0187233Y0193214D01*
X0187233Y0192216D02*
X0186633Y0192216D01*
X0186633Y0191217D02*
X0187233Y0191217D01*
X0187233Y0190219D02*
X0196650Y0190219D01*
X0196650Y0191217D02*
X0191033Y0191217D01*
X0190776Y0192216D02*
X0196650Y0192216D01*
X0196650Y0193214D02*
X0189777Y0193214D01*
X0191033Y0189220D02*
X0196650Y0189220D01*
X0196650Y0188222D02*
X0190693Y0188222D01*
X0189695Y0187223D02*
X0196650Y0187223D01*
X0196650Y0186225D02*
X0188696Y0186225D01*
X0184172Y0187223D02*
X0149977Y0187223D01*
X0150976Y0188222D02*
X0183173Y0188222D01*
X0182833Y0189220D02*
X0151233Y0189220D01*
X0143806Y0193214D02*
X0118547Y0193214D01*
X0125845Y0189220D02*
X0130974Y0189220D01*
X0129975Y0188222D02*
X0126844Y0188222D01*
X0127709Y0187223D02*
X0129109Y0187223D01*
X0129109Y0186225D02*
X0127709Y0186225D01*
X0127709Y0185226D02*
X0129109Y0185226D01*
X0129109Y0184228D02*
X0127825Y0184228D01*
X0128808Y0183229D02*
X0129674Y0183229D01*
X0129792Y0182231D02*
X0130673Y0182231D01*
X0130775Y0181232D02*
X0135614Y0181232D01*
X0136613Y0180234D02*
X0131759Y0180234D01*
X0132743Y0179235D02*
X0137611Y0179235D01*
X0138610Y0178237D02*
X0133726Y0178237D01*
X0134710Y0177238D02*
X0139608Y0177238D01*
X0140607Y0176239D02*
X0135693Y0176239D01*
X0136677Y0175241D02*
X0141605Y0175241D01*
X0142604Y0174242D02*
X0137660Y0174242D01*
X0138644Y0173244D02*
X0142653Y0173244D01*
X0142653Y0172245D02*
X0139628Y0172245D01*
X0140611Y0171247D02*
X0143054Y0171247D01*
X0144052Y0170248D02*
X0141595Y0170248D01*
X0142578Y0169250D02*
X0145051Y0169250D01*
X0143562Y0168251D02*
X0196650Y0168251D01*
X0196650Y0167253D02*
X0144546Y0167253D01*
X0145529Y0166254D02*
X0196650Y0166254D01*
X0196650Y0165256D02*
X0146513Y0165256D01*
X0147504Y0164257D02*
X0196650Y0164257D01*
X0196650Y0163259D02*
X0147657Y0163259D01*
X0147657Y0162260D02*
X0196650Y0162260D01*
X0196650Y0161262D02*
X0147657Y0161262D01*
X0147657Y0160263D02*
X0196650Y0160263D01*
X0196650Y0159265D02*
X0147657Y0159265D01*
X0147657Y0158266D02*
X0196650Y0158266D01*
X0196650Y0157268D02*
X0174356Y0157268D01*
X0174312Y0157311D02*
X0172686Y0157311D01*
X0172686Y0152961D01*
X0177036Y0152961D01*
X0177036Y0154588D01*
X0174312Y0157311D01*
X0175354Y0156269D02*
X0196650Y0156269D01*
X0196650Y0155271D02*
X0176353Y0155271D01*
X0177036Y0154272D02*
X0196650Y0154272D01*
X0196650Y0153274D02*
X0177036Y0153274D01*
X0177036Y0152361D02*
X0172686Y0152361D01*
X0172686Y0148011D01*
X0174312Y0148011D01*
X0177036Y0150735D01*
X0177036Y0152361D01*
X0177036Y0152275D02*
X0196650Y0152275D01*
X0196650Y0151277D02*
X0177036Y0151277D01*
X0176579Y0150278D02*
X0196650Y0150278D01*
X0196650Y0149280D02*
X0175580Y0149280D01*
X0174582Y0148281D02*
X0196650Y0148281D01*
X0196650Y0147283D02*
X0160118Y0147283D01*
X0159120Y0146284D02*
X0196650Y0146284D01*
X0196650Y0145286D02*
X0158121Y0145286D01*
X0157125Y0144287D02*
X0196650Y0144287D01*
X0196650Y0143289D02*
X0157125Y0143289D01*
X0157125Y0142290D02*
X0196650Y0142290D01*
X0196650Y0141292D02*
X0196043Y0141292D01*
X0190957Y0141292D02*
X0157125Y0141292D01*
X0152725Y0145286D02*
X0109576Y0145286D01*
X0109089Y0146284D02*
X0152897Y0146284D01*
X0152606Y0147283D02*
X0108090Y0147283D01*
X0102485Y0141292D02*
X0068267Y0141292D01*
X0068267Y0142290D02*
X0080677Y0142290D01*
X0078892Y0143289D02*
X0068267Y0143289D01*
X0068267Y0144287D02*
X0078121Y0144287D01*
X0077722Y0145286D02*
X0068267Y0145286D01*
X0068267Y0146284D02*
X0084015Y0146284D01*
X0084015Y0147283D02*
X0084615Y0147283D01*
X0084615Y0148281D02*
X0084015Y0148281D01*
X0084015Y0149280D02*
X0084615Y0149280D01*
X0084615Y0150278D02*
X0084015Y0150278D01*
X0087778Y0150278D02*
X0122278Y0150278D01*
X0121357Y0151199D02*
X0121357Y0152598D01*
X0125157Y0152598D01*
X0125157Y0153198D01*
X0125157Y0156998D01*
X0123758Y0156998D01*
X0121357Y0154596D01*
X0121357Y0153198D01*
X0125157Y0153198D01*
X0125757Y0153198D01*
X0125757Y0156998D01*
X0127155Y0156998D01*
X0129557Y0154596D01*
X0129557Y0153198D01*
X0125757Y0153198D01*
X0125757Y0152598D01*
X0129557Y0152598D01*
X0129557Y0151199D01*
X0127155Y0148798D01*
X0125757Y0148798D01*
X0125757Y0152598D01*
X0125157Y0152598D01*
X0125157Y0148798D01*
X0123758Y0148798D01*
X0121357Y0151199D01*
X0121357Y0151277D02*
X0068267Y0151277D01*
X0068267Y0152275D02*
X0080108Y0152275D01*
X0078624Y0153274D02*
X0068267Y0153274D01*
X0068267Y0154272D02*
X0077886Y0154272D01*
X0077472Y0155271D02*
X0068267Y0155271D01*
X0068267Y0156269D02*
X0077415Y0156269D01*
X0077477Y0157268D02*
X0068267Y0157268D01*
X0068267Y0158266D02*
X0077890Y0158266D01*
X0078635Y0159265D02*
X0068267Y0159265D01*
X0068267Y0160263D02*
X0080134Y0160263D01*
X0084315Y0156264D02*
X0092150Y0164098D01*
X0105476Y0164098D01*
X0111953Y0164098D01*
X0113466Y0162260D02*
X0143257Y0162260D01*
X0143257Y0161262D02*
X0108721Y0161262D01*
X0107722Y0160263D02*
X0143257Y0160263D01*
X0143257Y0159265D02*
X0090427Y0159265D01*
X0090740Y0158266D02*
X0143257Y0158266D01*
X0143257Y0157268D02*
X0091153Y0157268D01*
X0091215Y0156269D02*
X0123030Y0156269D01*
X0122032Y0155271D02*
X0091158Y0155271D01*
X0090744Y0154272D02*
X0121357Y0154272D01*
X0121357Y0153274D02*
X0090006Y0153274D01*
X0088522Y0152275D02*
X0121357Y0152275D01*
X0123276Y0149280D02*
X0089697Y0149280D01*
X0090489Y0148281D02*
X0151608Y0148281D01*
X0150609Y0149280D02*
X0147920Y0149280D01*
X0148918Y0150278D02*
X0149611Y0150278D01*
X0152838Y0153274D02*
X0157536Y0153274D01*
X0157536Y0152275D02*
X0153836Y0152275D01*
X0154835Y0151277D02*
X0157710Y0151277D01*
X0156891Y0150278D02*
X0155833Y0150278D01*
X0156362Y0146638D02*
X0162386Y0152661D01*
X0165863Y0149280D02*
X0169191Y0149280D01*
X0168193Y0150278D02*
X0166648Y0150278D01*
X0167062Y0151277D02*
X0167736Y0151277D01*
X0167736Y0150735D02*
X0170460Y0148011D01*
X0172086Y0148011D01*
X0172086Y0152361D01*
X0172686Y0152361D01*
X0172686Y0152961D01*
X0172086Y0152961D01*
X0172086Y0152361D01*
X0167736Y0152361D01*
X0167736Y0150735D01*
X0167736Y0152275D02*
X0167236Y0152275D01*
X0167736Y0152961D02*
X0172086Y0152961D01*
X0172086Y0157311D01*
X0170460Y0157311D01*
X0167736Y0154588D01*
X0167736Y0152961D01*
X0167736Y0153274D02*
X0167236Y0153274D01*
X0166968Y0154272D02*
X0167736Y0154272D01*
X0168419Y0155271D02*
X0166555Y0155271D01*
X0165637Y0156269D02*
X0169418Y0156269D01*
X0170416Y0157268D02*
X0163939Y0157268D01*
X0160833Y0157268D02*
X0147657Y0157268D01*
X0148166Y0156269D02*
X0159135Y0156269D01*
X0158217Y0155271D02*
X0149165Y0155271D01*
X0151839Y0154272D02*
X0157803Y0154272D01*
X0164485Y0148281D02*
X0170190Y0148281D01*
X0172086Y0148281D02*
X0172686Y0148281D01*
X0172686Y0149280D02*
X0172086Y0149280D01*
X0172086Y0150278D02*
X0172686Y0150278D01*
X0172686Y0151277D02*
X0172086Y0151277D01*
X0172086Y0152275D02*
X0172686Y0152275D01*
X0172686Y0153274D02*
X0172086Y0153274D01*
X0172086Y0154272D02*
X0172686Y0154272D01*
X0172686Y0155271D02*
X0172086Y0155271D01*
X0172086Y0156269D02*
X0172686Y0156269D01*
X0172686Y0157268D02*
X0172086Y0157268D01*
X0185254Y0169329D02*
X0186653Y0169329D01*
X0186653Y0173129D01*
X0187253Y0173129D01*
X0187253Y0173729D01*
X0191053Y0173729D01*
X0191053Y0175127D01*
X0188651Y0177529D01*
X0187253Y0177529D01*
X0187253Y0173729D01*
X0186653Y0173729D01*
X0186653Y0177529D01*
X0185254Y0177529D01*
X0182853Y0175127D01*
X0182853Y0173729D01*
X0186653Y0173729D01*
X0186653Y0173129D01*
X0182853Y0173129D01*
X0182853Y0171731D01*
X0185254Y0169329D01*
X0184335Y0170248D02*
X0149853Y0170248D01*
X0148855Y0169250D02*
X0196650Y0169250D01*
X0196650Y0170248D02*
X0189570Y0170248D01*
X0188651Y0169329D02*
X0187253Y0169329D01*
X0187253Y0173129D01*
X0191053Y0173129D01*
X0191053Y0171731D01*
X0188651Y0169329D01*
X0187253Y0170248D02*
X0186653Y0170248D01*
X0186653Y0171247D02*
X0187253Y0171247D01*
X0187253Y0172245D02*
X0186653Y0172245D01*
X0186653Y0173244D02*
X0151253Y0173244D01*
X0151253Y0174242D02*
X0182853Y0174242D01*
X0182966Y0175241D02*
X0151222Y0175241D01*
X0150223Y0176239D02*
X0183965Y0176239D01*
X0184963Y0177238D02*
X0149225Y0177238D01*
X0145681Y0178237D02*
X0196650Y0178237D01*
X0196650Y0179235D02*
X0144682Y0179235D01*
X0143684Y0180234D02*
X0196650Y0180234D01*
X0196650Y0181232D02*
X0142685Y0181232D01*
X0141687Y0182231D02*
X0196650Y0182231D01*
X0196650Y0183229D02*
X0140688Y0183229D01*
X0139690Y0184228D02*
X0196650Y0184228D01*
X0196650Y0185226D02*
X0138691Y0185226D01*
X0129517Y0176239D02*
X0120923Y0176239D01*
X0120390Y0175241D02*
X0130501Y0175241D01*
X0131484Y0174242D02*
X0119858Y0174242D01*
X0119325Y0173244D02*
X0132468Y0173244D01*
X0133451Y0172245D02*
X0118792Y0172245D01*
X0118260Y0171247D02*
X0134435Y0171247D01*
X0135419Y0170248D02*
X0117727Y0170248D01*
X0117194Y0169250D02*
X0136402Y0169250D01*
X0137386Y0168251D02*
X0116662Y0168251D01*
X0116129Y0167253D02*
X0138369Y0167253D01*
X0139353Y0166254D02*
X0115596Y0166254D01*
X0115064Y0165256D02*
X0140336Y0165256D01*
X0141320Y0164257D02*
X0114531Y0164257D01*
X0114153Y0163259D02*
X0142304Y0163259D01*
X0142747Y0156269D02*
X0127883Y0156269D01*
X0128882Y0155271D02*
X0141749Y0155271D01*
X0141157Y0154272D02*
X0129557Y0154272D01*
X0129557Y0153274D02*
X0141157Y0153274D01*
X0141157Y0152275D02*
X0129557Y0152275D01*
X0129557Y0151277D02*
X0141157Y0151277D01*
X0141995Y0150278D02*
X0128636Y0150278D01*
X0127637Y0149280D02*
X0142994Y0149280D01*
X0125757Y0149280D02*
X0125157Y0149280D01*
X0125157Y0150278D02*
X0125757Y0150278D01*
X0125757Y0151277D02*
X0125157Y0151277D01*
X0125157Y0152275D02*
X0125757Y0152275D01*
X0125757Y0153274D02*
X0125157Y0153274D01*
X0125157Y0154272D02*
X0125757Y0154272D01*
X0125757Y0155271D02*
X0125157Y0155271D01*
X0125157Y0156269D02*
X0125757Y0156269D01*
X0128534Y0177238D02*
X0121456Y0177238D01*
X0121988Y0178237D02*
X0127550Y0178237D01*
X0126566Y0179235D02*
X0122521Y0179235D01*
X0123054Y0180234D02*
X0125583Y0180234D01*
X0124599Y0181232D02*
X0123586Y0181232D01*
X0105712Y0182231D02*
X0100871Y0182231D01*
X0101869Y0183229D02*
X0104713Y0183229D01*
X0103991Y0184228D02*
X0102591Y0184228D01*
X0102591Y0185226D02*
X0103991Y0185226D01*
X0103991Y0186225D02*
X0102591Y0186225D01*
X0102591Y0187223D02*
X0103991Y0187223D01*
X0104700Y0188222D02*
X0101883Y0188222D01*
X0100885Y0189220D02*
X0105698Y0189220D01*
X0103548Y0168251D02*
X0062663Y0168251D01*
X0063662Y0167253D02*
X0102550Y0167253D01*
X0102232Y0161262D02*
X0092424Y0161262D01*
X0091426Y0160263D02*
X0103230Y0160263D01*
X0091194Y0166254D02*
X0064660Y0166254D01*
X0065659Y0165256D02*
X0090196Y0165256D01*
X0089197Y0164257D02*
X0066657Y0164257D01*
X0067656Y0163259D02*
X0088199Y0163259D01*
X0087200Y0162260D02*
X0068267Y0162260D01*
X0068267Y0161262D02*
X0086202Y0161262D01*
X0080852Y0150278D02*
X0068267Y0150278D01*
X0068267Y0149280D02*
X0078933Y0149280D01*
X0078141Y0148281D02*
X0068267Y0148281D01*
X0068267Y0147283D02*
X0077735Y0147283D01*
X0080206Y0140293D02*
X0068267Y0140293D01*
X0068267Y0139295D02*
X0078665Y0139295D01*
X0077902Y0138296D02*
X0068267Y0138296D01*
X0068267Y0137298D02*
X0077489Y0137298D01*
X0077415Y0136299D02*
X0068267Y0136299D01*
X0068267Y0135301D02*
X0077460Y0135301D01*
X0077873Y0134302D02*
X0068267Y0134302D01*
X0068267Y0133303D02*
X0078594Y0133303D01*
X0080036Y0132305D02*
X0068267Y0132305D01*
X0063867Y0132305D02*
X0058594Y0132305D01*
X0060036Y0133303D02*
X0063867Y0133303D01*
X0063867Y0134302D02*
X0060757Y0134302D01*
X0061170Y0135301D02*
X0063867Y0135301D01*
X0063867Y0136299D02*
X0061215Y0136299D01*
X0061141Y0137298D02*
X0063867Y0137298D01*
X0063867Y0138296D02*
X0060727Y0138296D01*
X0059965Y0139295D02*
X0063867Y0139295D01*
X0063867Y0140293D02*
X0058424Y0140293D01*
X0058558Y0142290D02*
X0063867Y0142290D01*
X0063867Y0141292D02*
X0042398Y0141292D01*
X0041400Y0142290D02*
X0050072Y0142290D01*
X0048609Y0143289D02*
X0040401Y0143289D01*
X0043397Y0140293D02*
X0050206Y0140293D01*
X0048665Y0139295D02*
X0044395Y0139295D01*
X0045394Y0138296D02*
X0047902Y0138296D01*
X0047489Y0137298D02*
X0046392Y0137298D01*
X0047391Y0136299D02*
X0047415Y0136299D01*
X0039079Y0131500D02*
X0021500Y0131500D01*
X0006500Y0146500D01*
X0014835Y0151277D02*
X0063867Y0151277D01*
X0063867Y0152275D02*
X0058522Y0152275D01*
X0060006Y0153274D02*
X0063867Y0153274D01*
X0063867Y0154272D02*
X0060744Y0154272D01*
X0061158Y0155271D02*
X0063867Y0155271D01*
X0063867Y0156269D02*
X0061215Y0156269D01*
X0061153Y0157268D02*
X0063867Y0157268D01*
X0063867Y0158266D02*
X0060740Y0158266D01*
X0059995Y0159265D02*
X0063867Y0159265D01*
X0063867Y0160263D02*
X0058496Y0160263D01*
X0062432Y0162260D02*
X0038888Y0162260D01*
X0038045Y0163103D02*
X0034483Y0163103D01*
X0031964Y0160584D01*
X0031964Y0157022D01*
X0034483Y0154503D01*
X0038045Y0154503D01*
X0040564Y0157022D01*
X0040564Y0160584D01*
X0038045Y0163103D01*
X0039886Y0161262D02*
X0063430Y0161262D01*
X0063867Y0150278D02*
X0058460Y0150278D01*
X0059980Y0149280D02*
X0063867Y0149280D01*
X0063867Y0148281D02*
X0060734Y0148281D01*
X0061147Y0147283D02*
X0063867Y0147283D01*
X0063867Y0146284D02*
X0061215Y0146284D01*
X0061164Y0145286D02*
X0063867Y0145286D01*
X0063867Y0144287D02*
X0060750Y0144287D01*
X0060021Y0143289D02*
X0063867Y0143289D01*
X0047472Y0155271D02*
X0038812Y0155271D01*
X0039811Y0156269D02*
X0047415Y0156269D01*
X0047477Y0157268D02*
X0040564Y0157268D01*
X0040564Y0158266D02*
X0047890Y0158266D01*
X0048635Y0159265D02*
X0040564Y0159265D01*
X0040564Y0160263D02*
X0050134Y0160263D01*
X0033640Y0162260D02*
X0024951Y0162260D01*
X0025949Y0161262D02*
X0032641Y0161262D01*
X0031964Y0160263D02*
X0026942Y0160263D01*
X0026942Y0159265D02*
X0031964Y0159265D01*
X0031964Y0158266D02*
X0026942Y0158266D01*
X0026942Y0157268D02*
X0031964Y0157268D01*
X0032717Y0156269D02*
X0026504Y0156269D01*
X0025505Y0155271D02*
X0033715Y0155271D01*
X0021500Y0141500D02*
X0006500Y0156500D01*
X0011900Y0137298D02*
X0012591Y0137298D01*
X0011900Y0136299D02*
X0013590Y0136299D01*
X0014588Y0135301D02*
X0011848Y0135301D01*
X0011434Y0134302D02*
X0015587Y0134302D01*
X0016585Y0133303D02*
X0010940Y0133303D01*
X0009942Y0132305D02*
X0017584Y0132305D01*
X0018582Y0131306D02*
X0009007Y0131306D01*
X0010329Y0130308D02*
X0019581Y0130308D01*
X0020579Y0129309D02*
X0011181Y0129309D01*
X0009957Y0122320D02*
X0020675Y0122320D01*
X0019677Y0121321D02*
X0008971Y0121321D01*
X0010314Y0120323D02*
X0018678Y0120323D01*
X0018542Y0119324D02*
X0011175Y0119324D01*
X0011447Y0114332D02*
X0029409Y0114332D01*
X0028491Y0113333D02*
X0010970Y0113333D01*
X0009972Y0112335D02*
X0028078Y0112335D01*
X0028019Y0111336D02*
X0008935Y0111336D01*
X0010299Y0110338D02*
X0027226Y0110338D01*
X0026228Y0109339D02*
X0011169Y0109339D01*
X0011582Y0108341D02*
X0025229Y0108341D01*
X0024231Y0107342D02*
X0011900Y0107342D01*
X0011900Y0106344D02*
X0023232Y0106344D01*
X0022234Y0105345D02*
X0011867Y0105345D01*
X0011453Y0104347D02*
X0021235Y0104347D01*
X0020237Y0103348D02*
X0010985Y0103348D01*
X0009986Y0102350D02*
X0019238Y0102350D01*
X0018240Y0101351D02*
X0008899Y0101351D01*
X0010284Y0100353D02*
X0017241Y0100353D01*
X0016243Y0099354D02*
X0011163Y0099354D01*
X0006500Y0096500D02*
X0016500Y0096500D01*
X0031500Y0111500D01*
X0032657Y0116329D02*
X0026281Y0116329D01*
X0026742Y0117327D02*
X0031964Y0117327D01*
X0022942Y0119324D02*
X0022342Y0119324D01*
X0022342Y0120323D02*
X0022942Y0120323D01*
X0022942Y0121321D02*
X0022342Y0121321D01*
X0022342Y0122320D02*
X0022942Y0122320D01*
X0012115Y0185226D02*
X0011817Y0185226D01*
X0011900Y0186225D02*
X0013113Y0186225D01*
X0014112Y0187223D02*
X0011900Y0187223D01*
X0011632Y0188222D02*
X0015110Y0188222D01*
X0016109Y0189220D02*
X0011218Y0189220D01*
X0010418Y0190219D02*
X0017107Y0190219D01*
X0018106Y0191217D02*
X0009223Y0191217D01*
X0003777Y0191217D02*
X0003200Y0191217D01*
X0003200Y0192216D02*
X0019104Y0192216D01*
X0020103Y0193214D02*
X0003200Y0193214D01*
X0003200Y0196210D02*
X0196650Y0196210D01*
X0196650Y0177238D02*
X0188942Y0177238D01*
X0189941Y0176239D02*
X0196650Y0176239D01*
X0196650Y0175241D02*
X0190939Y0175241D01*
X0191053Y0174242D02*
X0196650Y0174242D01*
X0196650Y0173244D02*
X0187253Y0173244D01*
X0187253Y0174242D02*
X0186653Y0174242D01*
X0186653Y0175241D02*
X0187253Y0175241D01*
X0187253Y0176239D02*
X0186653Y0176239D01*
X0186653Y0177238D02*
X0187253Y0177238D01*
X0191053Y0172245D02*
X0196650Y0172245D01*
X0196650Y0171247D02*
X0190569Y0171247D01*
X0183337Y0171247D02*
X0150852Y0171247D01*
X0151253Y0172245D02*
X0182853Y0172245D01*
X0152725Y0129309D02*
X0089950Y0129309D01*
X0090721Y0128311D02*
X0152725Y0128311D01*
X0152725Y0127312D02*
X0091135Y0127312D01*
X0091215Y0126314D02*
X0152725Y0126314D01*
X0152725Y0125315D02*
X0091176Y0125315D01*
X0090763Y0124317D02*
X0152725Y0124317D01*
X0152725Y0123318D02*
X0090051Y0123318D01*
X0088630Y0122320D02*
X0152725Y0122320D01*
X0164625Y0105345D02*
X0165225Y0105345D01*
X0165225Y0104347D02*
X0164625Y0104347D01*
X0164625Y0103348D02*
X0165225Y0103348D01*
X0165225Y0102350D02*
X0164625Y0102350D01*
X0164225Y0100353D02*
X0189716Y0100353D01*
X0188837Y0099354D02*
X0164225Y0099354D01*
X0164225Y0098356D02*
X0188424Y0098356D01*
X0188100Y0097357D02*
X0164225Y0097357D01*
X0163542Y0096359D02*
X0188100Y0096359D01*
X0188127Y0095360D02*
X0162544Y0095360D01*
X0158575Y0094362D02*
X0188541Y0094362D01*
X0189000Y0093363D02*
X0157577Y0093363D01*
X0156578Y0092365D02*
X0189999Y0092365D01*
X0191137Y0091366D02*
X0155580Y0091366D01*
X0154581Y0090368D02*
X0189731Y0090368D01*
X0188843Y0089369D02*
X0153583Y0089369D01*
X0152584Y0088370D02*
X0188430Y0088370D01*
X0188100Y0087372D02*
X0151586Y0087372D01*
X0150587Y0086373D02*
X0188100Y0086373D01*
X0188121Y0085375D02*
X0149589Y0085375D01*
X0148590Y0084376D02*
X0188535Y0084376D01*
X0188985Y0083378D02*
X0147592Y0083378D01*
X0146593Y0082379D02*
X0189984Y0082379D01*
X0191173Y0081381D02*
X0145595Y0081381D01*
X0141657Y0080555D02*
X0141657Y0040299D01*
X0138429Y0037446D02*
X0124603Y0037446D01*
X0123604Y0036448D02*
X0139428Y0036448D01*
X0137431Y0038445D02*
X0125601Y0038445D01*
X0125757Y0039443D02*
X0137357Y0039443D01*
X0145599Y0042439D02*
X0160209Y0042439D01*
X0160209Y0043437D02*
X0160783Y0043437D01*
X0160783Y0044436D02*
X0160209Y0044436D01*
X0160209Y0045434D02*
X0160783Y0045434D01*
X0163249Y0045434D02*
X0167151Y0045434D01*
X0168150Y0044436D02*
X0164045Y0044436D01*
X0166343Y0043437D02*
X0169148Y0043437D01*
X0170147Y0042439D02*
X0168103Y0042439D01*
X0168951Y0041440D02*
X0171145Y0041440D01*
X0172144Y0040442D02*
X0169364Y0040442D01*
X0169495Y0039443D02*
X0173020Y0039443D01*
X0173020Y0038445D02*
X0169495Y0038445D01*
X0169090Y0037446D02*
X0173020Y0037446D01*
X0172805Y0036448D02*
X0168438Y0036448D01*
X0168793Y0035449D02*
X0171807Y0035449D01*
X0172445Y0032976D02*
X0175220Y0035752D01*
X0175220Y0040476D01*
X0149433Y0066264D01*
X0149335Y0066362D01*
X0149433Y0066264D01*
X0150961Y0069399D02*
X0186300Y0069399D01*
X0186300Y0068400D02*
X0152220Y0068400D01*
X0152730Y0067402D02*
X0186300Y0067402D01*
X0186300Y0066403D02*
X0152914Y0066403D01*
X0153403Y0065405D02*
X0186300Y0065405D01*
X0186300Y0064406D02*
X0154402Y0064406D01*
X0155400Y0063408D02*
X0186410Y0063408D01*
X0187408Y0062409D02*
X0156399Y0062409D01*
X0157397Y0061411D02*
X0188407Y0061411D01*
X0188572Y0060412D02*
X0158396Y0060412D01*
X0159394Y0059414D02*
X0188572Y0059414D01*
X0188572Y0058415D02*
X0160393Y0058415D01*
X0161391Y0057417D02*
X0178180Y0057417D01*
X0179121Y0057806D02*
X0176434Y0056693D01*
X0174377Y0054637D01*
X0173265Y0051950D01*
X0173265Y0049042D01*
X0174377Y0046355D01*
X0176434Y0044299D01*
X0179121Y0043186D01*
X0182029Y0043186D01*
X0184716Y0044299D01*
X0186772Y0046355D01*
X0187885Y0049042D01*
X0187885Y0051950D01*
X0186772Y0054637D01*
X0184716Y0056693D01*
X0182029Y0057806D01*
X0179121Y0057806D01*
X0176159Y0056418D02*
X0162390Y0056418D01*
X0163388Y0055420D02*
X0175160Y0055420D01*
X0174288Y0054421D02*
X0164387Y0054421D01*
X0165386Y0053423D02*
X0173874Y0053423D01*
X0173461Y0052424D02*
X0166384Y0052424D01*
X0167383Y0051426D02*
X0173265Y0051426D01*
X0173265Y0050427D02*
X0168381Y0050427D01*
X0169380Y0049429D02*
X0173265Y0049429D01*
X0173518Y0048430D02*
X0170378Y0048430D01*
X0171377Y0047432D02*
X0173932Y0047432D01*
X0174345Y0046433D02*
X0172375Y0046433D01*
X0173374Y0045434D02*
X0175298Y0045434D01*
X0174372Y0044436D02*
X0176297Y0044436D01*
X0175371Y0043437D02*
X0178513Y0043437D01*
X0177368Y0041440D02*
X0185672Y0041440D01*
X0184673Y0040442D02*
X0177420Y0040442D01*
X0177420Y0039443D02*
X0183675Y0039443D01*
X0182676Y0038445D02*
X0177420Y0038445D01*
X0177420Y0037446D02*
X0181678Y0037446D01*
X0180778Y0036448D02*
X0177420Y0036448D01*
X0177420Y0035449D02*
X0179779Y0035449D01*
X0178781Y0034451D02*
X0177031Y0034451D01*
X0177782Y0033452D02*
X0176032Y0033452D01*
X0176784Y0032454D02*
X0175034Y0032454D01*
X0175785Y0031455D02*
X0174035Y0031455D01*
X0174787Y0030457D02*
X0168746Y0030457D01*
X0167748Y0029458D02*
X0173788Y0029458D01*
X0172789Y0028460D02*
X0164955Y0028460D01*
X0165953Y0027461D02*
X0171791Y0027461D01*
X0173021Y0022469D02*
X0173265Y0022469D01*
X0173265Y0021470D02*
X0152561Y0021470D01*
X0153416Y0022469D02*
X0164723Y0022469D01*
X0163725Y0023467D02*
X0154915Y0023467D01*
X0156415Y0024466D02*
X0162726Y0024466D01*
X0161728Y0025464D02*
X0157914Y0025464D01*
X0153518Y0020472D02*
X0173265Y0020472D01*
X0173608Y0019473D02*
X0153932Y0019473D01*
X0154200Y0018475D02*
X0174021Y0018475D01*
X0174516Y0017476D02*
X0154200Y0017476D01*
X0153996Y0016478D02*
X0175515Y0016478D01*
X0176626Y0015479D02*
X0153583Y0015479D01*
X0152717Y0014481D02*
X0179036Y0014481D01*
X0182113Y0014481D02*
X0196650Y0014481D01*
X0196650Y0015479D02*
X0184524Y0015479D01*
X0185635Y0016478D02*
X0196650Y0016478D01*
X0196650Y0017476D02*
X0186633Y0017476D01*
X0187128Y0018475D02*
X0196650Y0018475D01*
X0196650Y0019473D02*
X0187542Y0019473D01*
X0187885Y0020472D02*
X0196650Y0020472D01*
X0196650Y0021470D02*
X0187885Y0021470D01*
X0187885Y0022469D02*
X0196650Y0022469D01*
X0196650Y0023467D02*
X0187778Y0023467D01*
X0187365Y0024466D02*
X0196650Y0024466D01*
X0196650Y0025464D02*
X0186951Y0025464D01*
X0186206Y0026463D02*
X0196650Y0026463D01*
X0196650Y0027461D02*
X0185208Y0027461D01*
X0183493Y0028460D02*
X0196650Y0028460D01*
X0196650Y0029458D02*
X0180011Y0029458D01*
X0181009Y0030457D02*
X0196650Y0030457D01*
X0196650Y0031455D02*
X0182008Y0031455D01*
X0183006Y0032454D02*
X0196650Y0032454D01*
X0196650Y0033452D02*
X0184005Y0033452D01*
X0185003Y0034451D02*
X0196650Y0034451D01*
X0196650Y0035449D02*
X0185903Y0035449D01*
X0186902Y0036448D02*
X0196650Y0036448D01*
X0196650Y0037446D02*
X0187900Y0037446D01*
X0188899Y0038445D02*
X0196650Y0038445D01*
X0196650Y0039443D02*
X0189897Y0039443D01*
X0190896Y0040442D02*
X0196650Y0040442D01*
X0196650Y0041440D02*
X0191894Y0041440D01*
X0192893Y0042439D02*
X0196650Y0042439D01*
X0196650Y0043437D02*
X0192972Y0043437D01*
X0192972Y0044436D02*
X0196650Y0044436D01*
X0196650Y0045434D02*
X0192972Y0045434D01*
X0192972Y0046433D02*
X0196650Y0046433D01*
X0196650Y0047432D02*
X0192972Y0047432D01*
X0192972Y0048430D02*
X0196650Y0048430D01*
X0196650Y0049429D02*
X0192972Y0049429D01*
X0192972Y0050427D02*
X0196650Y0050427D01*
X0196650Y0051426D02*
X0192972Y0051426D01*
X0192972Y0052424D02*
X0196650Y0052424D01*
X0196650Y0053423D02*
X0192972Y0053423D01*
X0192972Y0054421D02*
X0196650Y0054421D01*
X0196650Y0055420D02*
X0192972Y0055420D01*
X0192972Y0056418D02*
X0196650Y0056418D01*
X0196650Y0057417D02*
X0192972Y0057417D01*
X0192972Y0058415D02*
X0196650Y0058415D01*
X0196650Y0059414D02*
X0192972Y0059414D01*
X0192972Y0060412D02*
X0196650Y0060412D01*
X0196650Y0061411D02*
X0194608Y0061411D01*
X0194000Y0061411D02*
X0193000Y0061411D01*
X0193000Y0062409D02*
X0194000Y0062409D01*
X0194000Y0063408D02*
X0193000Y0063408D01*
X0193000Y0064406D02*
X0194000Y0064406D01*
X0194000Y0065405D02*
X0193000Y0065405D01*
X0188572Y0057417D02*
X0182970Y0057417D01*
X0184991Y0056418D02*
X0188572Y0056418D01*
X0188572Y0055420D02*
X0185989Y0055420D01*
X0186862Y0054421D02*
X0188572Y0054421D01*
X0188572Y0053423D02*
X0187275Y0053423D01*
X0187689Y0052424D02*
X0188572Y0052424D01*
X0188572Y0051426D02*
X0187885Y0051426D01*
X0187885Y0050427D02*
X0188572Y0050427D01*
X0188572Y0049429D02*
X0187885Y0049429D01*
X0187632Y0048430D02*
X0188572Y0048430D01*
X0188572Y0047432D02*
X0187218Y0047432D01*
X0186804Y0046433D02*
X0188572Y0046433D01*
X0188572Y0045434D02*
X0185851Y0045434D01*
X0184853Y0044436D02*
X0188572Y0044436D01*
X0187669Y0043437D02*
X0182636Y0043437D01*
X0186670Y0042439D02*
X0176369Y0042439D01*
X0172445Y0032976D02*
X0165220Y0032976D01*
X0151657Y0023941D02*
X0133882Y0023941D01*
X0137409Y0015479D02*
X0138032Y0015479D01*
X0139029Y0014481D02*
X0136412Y0014481D01*
X0121957Y0036448D02*
X0121357Y0036448D01*
X0121357Y0037446D02*
X0121957Y0037446D01*
X0121957Y0038445D02*
X0121357Y0038445D01*
X0121357Y0039443D02*
X0121957Y0039443D01*
X0115043Y0052424D02*
X0088882Y0052424D01*
X0090155Y0053423D02*
X0114045Y0053423D01*
X0113046Y0054421D02*
X0090806Y0054421D01*
X0091215Y0055420D02*
X0112048Y0055420D01*
X0111049Y0056418D02*
X0091215Y0056418D01*
X0091092Y0057417D02*
X0110051Y0057417D01*
X0109052Y0058415D02*
X0090678Y0058415D01*
X0089846Y0059414D02*
X0108054Y0059414D01*
X0107055Y0060412D02*
X0088136Y0060412D01*
X0090312Y0083378D02*
X0094090Y0083378D01*
X0093091Y0084376D02*
X0090787Y0084376D01*
X0091201Y0085375D02*
X0092093Y0085375D01*
X0132972Y0085375D02*
X0133572Y0085375D01*
X0133572Y0084376D02*
X0132972Y0084376D01*
X0132972Y0083378D02*
X0133572Y0083378D01*
X0133572Y0082379D02*
X0132972Y0082379D01*
X0132972Y0087372D02*
X0133572Y0087372D01*
X0133572Y0088370D02*
X0132972Y0088370D01*
X0132972Y0089369D02*
X0133572Y0089369D01*
X0133572Y0090368D02*
X0132972Y0090368D01*
X0135025Y0090368D02*
X0148359Y0090368D01*
X0147360Y0089369D02*
X0136024Y0089369D01*
X0137022Y0088370D02*
X0146362Y0088370D01*
X0145363Y0087372D02*
X0137372Y0087372D01*
X0196650Y0011485D02*
X0003200Y0011485D01*
X0003200Y0010487D02*
X0196650Y0010487D01*
X0196650Y0009488D02*
X0003200Y0009488D01*
X0003200Y0008490D02*
X0196650Y0008490D01*
X0196650Y0007491D02*
X0003200Y0007491D01*
X0003200Y0006493D02*
X0196650Y0006493D01*
X0196650Y0005494D02*
X0003200Y0005494D01*
X0003200Y0004496D02*
X0196650Y0004496D01*
X0196650Y0003497D02*
X0003200Y0003497D01*
X0003200Y0022469D02*
X0030698Y0022469D01*
X0029699Y0023467D02*
X0003200Y0023467D01*
X0003200Y0024466D02*
X0028701Y0024466D01*
X0028561Y0025464D02*
X0003200Y0025464D01*
X0003200Y0026463D02*
X0032361Y0026463D01*
X0032361Y0027461D02*
X0032961Y0027461D01*
X0032961Y0028460D02*
X0032361Y0028460D01*
X0032361Y0029458D02*
X0032961Y0029458D01*
X0030018Y0029458D02*
X0003200Y0029458D01*
X0003200Y0028460D02*
X0029020Y0028460D01*
X0028561Y0027461D02*
X0003200Y0027461D01*
X0028409Y0188222D02*
X0042662Y0188222D01*
D20*
X0133409Y0185575D02*
X0134807Y0185575D01*
X0146953Y0173429D01*
D21*
X0066067Y0111500D03*
X0031500Y0111500D03*
X0134472Y0066264D03*
X0134472Y0054354D03*
X0149433Y0066264D03*
M02*
