%
M48
M72
T01C0.02362
T02C0.03150
T03C0.03200
T04C0.03937
T05C0.04000
T06C0.07480
%
T01
X31500Y111500
X66067Y111500
X134472Y66264
X134472Y54354
X149433Y66264
T02
X125909Y17898
X133783Y17898
X141657Y17898
X160496Y29827
X165220Y32976
X160496Y36126
X165220Y39276
X160496Y42425
T03
X32661Y26303
X32661Y46303
X54315Y46264
X54315Y56264
X54315Y66264
X54315Y76264
X54315Y86264
X54315Y96264
X54315Y106264
X54315Y116264
X54315Y126264
X54315Y136264
X54315Y146264
X54315Y156264
X36264Y158803
X22642Y158488
X22642Y118488
X36264Y118803
X84315Y116264
X84315Y126264
X84315Y136264
X84315Y146264
X84315Y156264
X105476Y164098
X105476Y144098
X125457Y152898
X145457Y152898
X162386Y152661
X172386Y152661
X186953Y173429
X186933Y190260
X146933Y190260
X133409Y185575
X123409Y185575
X108291Y185732
X98291Y185732
X146953Y173429
X154925Y106323
X159925Y98823
X164925Y106323
X133272Y106323
X133272Y86323
X107819Y92248
X107819Y102248
X84315Y106264
X84315Y96264
X84315Y86264
X84315Y76264
X84315Y66264
X84315Y56264
X84315Y46264
X84315Y36264
X84315Y26264
X54315Y26264
X54315Y36264
X121657Y40299
X141657Y40299
T04
X118035Y17898
X149531Y17898
T05
X36815Y61185
X36815Y71185
X36815Y81185
X6500Y76500
X6500Y66500
X6500Y86500
X6500Y96500
X6500Y106500
X6500Y116500
X6500Y126500
X6500Y136500
X6500Y146500
X6500Y156500
X6500Y166500
X6500Y176500
X6500Y186500
X25535Y183567
X45535Y183567
X61008Y183646
X81008Y183646
X193500Y136500
X193500Y126500
X193500Y116500
X193500Y106500
X193500Y96500
X193500Y86500
X193500Y76500
X193500Y66500
T06
X180575Y21756
X180575Y50496
M30
